<svg width="200" height="52" viewBox="0 0 200 52" fill="none" xmlns="http://www.w3.org/2000/svg">
  <path opacity="0.5" fill-rule="evenodd" clip-rule="evenodd" d="M1.81198e-05 1.99917C2.45948e-05 0.894639 0.895411 0.000976562 1.99994 0.000976562H198C199.105 0.000976562 200 0.894986 200 1.99956C200 3.30096 200 5.12057 200 7.09989V45.001C200 46.987 200 48.7443 200 50.0014C200 51.106 199.105 52.001 198 52.001H2.00003C0.895484 52.001 6.15704e-05 51.107 4.33958e-05 50.0024C2.19982e-05 48.702 0 46.884 0 44.9055V7.09649C5.34623e-06 4.65901 1.19359e-05 3.05404 1.81198e-05 1.99917Z" fill="#2A2C2E"/>
  <path fill-rule="evenodd" clip-rule="evenodd" d="M72.6 31.2222H64.5V33.655H70.3C70 37.1014 67.2 38.5205 64.5 38.5205C61.1 38.5205 58.1 35.7836 58.1 32.0332C58.1 28.384 60.9 25.4445 64.5 25.4445C67.2 25.4445 68.8 27.1677 68.8 27.1677L70.5 25.4445C70.5 25.4445 68.3 23.0117 64.4 23.0117C59.4 23.0117 55.5 27.269 55.5 31.9318C55.5 36.4932 59.2 40.9532 64.5 40.9532C69.2 40.9532 72.7 37.7096 72.7 32.8441C72.8 31.8304 72.6 31.2222 72.6 31.2222Z" fill="white"/>
  <path fill-rule="evenodd" clip-rule="evenodd" d="M79.6008 31.729C81.2008 31.729 82.8008 33.0468 82.8008 35.2768C82.8008 37.4055 81.3008 38.8246 79.6008 38.8246C77.8008 38.8246 76.4008 37.3041 76.4008 35.2768C76.3008 33.2495 77.7008 31.729 79.6008 31.729ZM79.5008 29.499C76.2008 29.499 73.8008 32.1345 73.8008 35.1754C73.8008 38.3177 76.1008 40.9532 79.6008 40.9532C82.7008 40.9532 85.3008 38.5205 85.3008 35.1754C85.2008 31.425 82.3008 29.499 79.5008 29.499Z" fill="white"/>
  <path fill-rule="evenodd" clip-rule="evenodd" d="M92.0984 31.729C93.6984 31.729 95.2984 33.0468 95.2984 35.2768C95.2984 37.4055 93.7984 38.8246 92.0984 38.8246C90.2984 38.8246 88.8984 37.3041 88.8984 35.2768C88.8984 33.2495 90.2984 31.729 92.0984 31.729ZM92.0984 29.499C88.7984 29.499 86.3984 32.1345 86.3984 35.1754C86.3984 38.3177 88.6984 40.9532 92.1984 40.9532C95.2984 40.9532 97.8984 38.5205 97.8984 35.1754C97.7984 31.425 94.7984 29.499 92.0984 29.499Z" fill="white"/>
  <path fill-rule="evenodd" clip-rule="evenodd" d="M104.598 31.729C106.098 31.729 107.598 33.0468 107.598 35.2768C107.598 37.5068 106.098 38.7232 104.498 38.7232C102.898 38.7232 101.398 37.4055 101.398 35.2768C101.498 33.0468 102.998 31.729 104.598 31.729ZM104.398 29.499C101.298 29.499 98.8984 32.2359 98.8984 35.2768C98.8984 38.7232 101.698 41.0546 104.298 41.0546C105.898 41.0546 106.798 40.4464 107.398 39.6355V40.7505C107.398 42.7778 106.198 43.8928 104.398 43.8928C102.698 43.8928 101.798 42.575 101.498 41.8655L99.2984 42.7778C100.098 44.3996 101.598 46.1228 104.398 46.1228C107.398 46.1228 109.798 44.1969 109.798 40.1423V29.8031H107.398V30.8168C106.698 30.0058 105.698 29.499 104.398 29.499Z" fill="white"/>
  <path fill-rule="evenodd" clip-rule="evenodd" d="M121.099 31.6277C122.099 31.6277 122.899 32.2359 123.199 32.8441L118.099 34.9727C117.899 33.3509 119.399 31.6277 121.099 31.6277ZM120.999 29.499C118.099 29.499 115.699 31.8304 115.699 35.2768C115.699 38.9259 118.399 41.0546 121.299 41.0546C123.699 41.0546 125.199 39.7368 126.099 38.5205L124.099 37.2027C123.599 38.0136 122.699 38.8246 121.299 38.8246C119.699 38.8246 118.999 37.9123 118.499 37.1014L126.099 33.8577L125.699 32.9454C124.999 31.0195 123.199 29.499 120.999 29.499Z" fill="white"/>
  <path d="M114.301 23.6191H111.801V40.6484H114.301V23.6191Z" fill="white"/>
  <path d="M147.898 23.6191H145.398V40.6484H147.898V23.6191Z" fill="white"/>
  <path d="M134.602 23.6191H132.102V40.6484H134.602V23.6191Z" fill="white"/>
  <path fill-rule="evenodd" clip-rule="evenodd" d="M132.102 23.6191H138.202C141.102 23.6191 143.502 26.0519 143.502 28.9915C143.502 31.931 141.102 34.3638 138.202 34.3638H132.102V23.6191ZM134.602 26.1533V31.931H138.202C139.802 31.931 141.002 30.6133 141.002 29.0928C141.002 27.471 139.702 26.2546 138.202 26.2546H134.602V26.1533Z" fill="white"/>
  <path fill-rule="evenodd" clip-rule="evenodd" d="M166.402 46.2242L173.602 29.499H170.902L163.602 46.2242H166.402Z" fill="white"/>
  <path fill-rule="evenodd" clip-rule="evenodd" d="M167.202 42.3723L161.602 29.499H164.302L168.202 38.3177H167.202V42.3723Z" fill="white"/>
  <path fill-rule="evenodd" clip-rule="evenodd" d="M158.102 40.648H160.602V34.5662C161.002 28.2816 153.102 26.7611 150.102 31.3225L152.102 32.7416C153.602 30.1061 157.702 30.7143 158.002 33.5525C156.702 33.2484 155.402 32.9443 154.202 33.1471C152.302 33.3498 150.602 34.5662 150.402 36.5935C150.302 37.7085 150.502 39.0262 151.302 39.8371C152.502 41.1549 154.402 41.2562 156.002 40.8508C156.902 40.648 157.602 40.0399 158.202 39.3303V40.648H158.102ZM158.102 35.7826C157.802 37.2017 156.702 38.2153 155.302 38.6208C152.402 39.4317 151.702 34.6675 156.002 35.2757C156.802 35.3771 157.402 35.4785 158.102 35.7826Z" fill="white"/>
  <path fill-rule="evenodd" clip-rule="evenodd" d="M63.8 13.28H60.1V14.395H62.7C62.6 15.9155 61.3 16.625 60.1 16.625C58.6 16.625 57.2 15.4086 57.2 13.6854C57.2 11.9622 58.5 10.7459 60.1 10.7459C61.3 10.7459 62.1 11.5568 62.1 11.5568L62.9 10.7459C62.9 10.7459 61.9 9.63086 60.1 9.63086C57.8 9.63086 56 11.5568 56 13.6854C56 15.7127 57.7 17.74 60.1 17.74C62.3 17.74 63.8 16.2196 63.8 13.9895C63.9 13.5841 63.8 13.28 63.8 13.28Z" fill="white"/>
  <path d="M79.9984 9.83398H78.8984V17.5377H79.9984V9.83398Z" fill="white"/>
  <path fill-rule="evenodd" clip-rule="evenodd" d="M72.5016 17.6391H73.6016V11.0504H75.5016V9.83398C73.9016 9.83398 72.2016 9.83398 70.6016 9.83398V10.949H72.5016V17.6391Z" fill="white"/>
  <path fill-rule="evenodd" clip-rule="evenodd" d="M65.1016 17.6391H69.5016V16.524H66.3016V14.3954H69.1016V13.179H66.3016V11.0504H69.5016V9.83398H65.1016C65.1016 12.4695 65.1016 15.0036 65.1016 17.6391Z" fill="white"/>
  <path fill-rule="evenodd" clip-rule="evenodd" d="M82.9 17.6391H84V11.0504H85.9V9.83398C84.3 9.83398 82.6 9.83398 81 9.83398V10.949H82.9V17.6391Z" fill="white"/>
  <path fill-rule="evenodd" clip-rule="evenodd" d="M92.9008 16.625C91.4008 16.625 90.0008 15.4086 90.0008 13.6854C90.0008 12.0636 91.3008 10.7459 92.9008 10.7459C94.5008 10.7459 95.8008 12.0636 95.8008 13.6854C95.7008 15.4086 94.4008 16.625 92.9008 16.625ZM92.9008 9.63086C90.6008 9.63086 88.8008 11.5568 88.8008 13.6854C88.8008 15.7127 90.4008 17.74 92.9008 17.74C95.3008 17.74 97.0008 15.7127 97.0008 13.6854C96.9008 11.5568 95.1008 9.63086 92.9008 9.63086Z" fill="white"/>
  <path fill-rule="evenodd" clip-rule="evenodd" d="M98.1016 17.6391H99.2016V11.9626L102.902 17.6391H104.002V9.83398H102.802V15.5104L99.2016 9.83398H98.1016V17.6391Z" fill="white"/>
  <path fill-rule="evenodd" clip-rule="evenodd" d="M26.0008 39.3304C26.1008 39.3304 26.2008 39.229 26.3008 39.1276L42.0008 30.5117L38.3008 26.7612L26.0008 39.3304ZM42.7008 30.1062L38.8008 26.153L42.7008 22.1998L48.0008 25.1393C49.3008 25.8489 48.6008 26.7612 48.0008 27.1666L42.7008 30.1062ZM42.0008 21.8957L26.4008 13.1783C26.2008 13.077 26.0008 13.077 25.9008 12.9756L38.4008 25.6462L42.0008 21.8957ZM24.9008 13.1783L37.8008 26.2543L25.0008 39.3304C24.6008 39.1276 24.4008 38.5194 24.4008 37.9113C24.4008 36.5935 24.3008 16.1179 24.3008 14.5974C24.3008 13.8879 24.5008 13.381 24.9008 13.1783Z" fill="white"/>
</svg>
