<svg width="200" height="52" viewBox="0 0 200 52" fill="none" xmlns="http://www.w3.org/2000/svg">
  <path opacity="0.5" fill-rule="evenodd" clip-rule="evenodd" d="M1.81198e-05 1.99917C2.45948e-05 0.894639 0.895411 0.000976562 1.99994 0.000976562H198C199.105 0.000976562 200 0.894986 200 1.99956C200 3.30096 200 5.12057 200 7.09989V45.001C200 46.987 200 48.7443 200 50.0014C200 51.106 199.105 52.001 198 52.001H2.00003C0.895484 52.001 6.15704e-05 51.107 4.33958e-05 50.0024C2.19982e-05 48.702 0 46.884 0 44.9055V7.09649C5.34623e-06 4.65901 1.19359e-05 3.05404 1.81198e-05 1.99917Z" fill="#2A2C2E"/>
  <path d="M45.6945 25.9667C45.6945 21.9648 49.0215 20.0127 49.1193 19.9151C47.2601 17.1821 44.3245 16.7917 43.2481 16.7917C40.8018 16.4989 38.3555 18.2558 37.1812 18.2558C35.9091 18.2558 33.9521 16.7917 31.8971 16.8893C29.2551 16.8893 26.7109 18.451 25.341 20.8912C22.5032 25.7715 24.656 32.9943 27.298 36.9962C28.668 38.9483 30.2336 41.0956 32.2886 40.998C34.3435 40.9004 35.1263 39.7291 37.5726 39.7291C40.019 39.7291 40.7039 40.998 42.8567 40.998C45.0095 40.998 46.3794 39.0459 47.7494 37.0938C49.315 34.8488 50 32.7015 50 32.6039C50 32.4087 45.7923 30.847 45.6945 25.9667Z" fill="white"/>
  <path d="M41.423 14.3746C42.4253 12.9279 43.1542 10.9644 42.972 9.00097C41.5141 9.10431 39.6917 10.1377 38.5983 11.5845C37.6871 12.8245 36.776 14.8913 37.0493 16.7514C38.6894 16.8548 40.4207 15.8214 41.423 14.3746Z" fill="white"/>
  <path d="M78.1 40.7497H80.8L74.8 24.0246H72L66 40.7497H68.6L70.1 36.2897H76.4L78.1 40.7497ZM73.4 27.0655H73.6L76 34.1611H71L73.4 27.0655ZM88.1 27.9778C86.4 27.9778 84.9 28.7887 84.2 30.3092H84V28.1805H81.6V44.9057H84.1V38.9252H84.3C85 40.2429 86.4 41.0538 88.1 41.0538C91.3 41.0538 93.3 38.5197 93.3 34.5665C93.3 30.6133 91.3 27.9778 88.1 27.9778ZM87.4 38.7225C85.3 38.7225 84 37.1006 84 34.4651C84 31.8297 85.3 30.2078 87.4 30.2078C89.5 30.2078 90.7 31.8297 90.7 34.4651C90.8 37.1006 89.5 38.7225 87.4 38.7225ZM100.9 27.9778C99.2 27.9778 97.7 28.7887 97 30.3092H96.8V28.1805H94.4V44.9057H96.9V38.9252H97.1C97.8 40.2429 99.2 41.0538 100.9 41.0538C104.1 41.0538 106.1 38.5197 106.1 34.5665C106.1 30.6133 104.1 27.9778 100.9 27.9778ZM100.2 38.7225C98.1 38.7225 96.8 37.1006 96.8 34.4651C96.8 31.8297 98.1 30.2078 100.2 30.2078C102.3 30.2078 103.5 31.8297 103.5 34.4651C103.5 37.1006 102.3 38.7225 100.2 38.7225ZM111.3 36.2897C111.5 39.3306 113.9 41.1552 117.6 41.1552C121.5 41.1552 124 39.1279 124 35.9856C124 33.4515 122.6 32.0324 119.2 31.2215L117.4 30.816C115.2 30.3092 114.4 29.5996 114.4 28.3833C114.4 26.8628 115.8 25.8492 117.8 25.8492C119.7 25.8492 121.1 26.8628 121.3 28.3833H123.8C123.7 25.5451 121.2 23.6191 117.8 23.6191C114.2 23.6191 111.8 25.6464 111.8 28.586C111.8 31.0188 113.2 32.5392 116.2 33.2488L118.3 33.7556C120.5 34.2624 121.5 35.0733 121.5 36.2897C121.5 37.8102 120 38.8238 117.9 38.8238C115.7 38.8238 114.2 37.8102 113.9 36.1883H111.3V36.2897ZM126.1 25.0382V28.1805H124V30.3092H126.1V37.4047C126.1 39.8375 127.2 40.8511 129.9 40.8511C130.4 40.8511 130.8 40.7497 131.2 40.7497V38.6211C130.9 38.6211 130.7 38.7225 130.3 38.7225C129.1 38.7225 128.5 38.1143 128.5 36.7965V30.3092H131.3V28.1805H128.5V25.0382H126.1ZM137.4 38.8238C135.3 38.8238 134.1 37.202 134.1 34.4651C134.1 31.7283 135.3 30.1065 137.4 30.1065C139.5 30.1065 140.7 31.7283 140.7 34.4651C140.8 37.202 139.6 38.8238 137.4 38.8238ZM137.4 41.0538C141 41.0538 143.3 38.6211 143.3 34.4651C143.3 30.4106 141.1 27.8765 137.4 27.8765C133.8 27.8765 131.5 30.4106 131.5 34.4651C131.6 38.5197 133.8 41.0538 137.4 41.0538ZM144.4 40.7497H146.9V33.2488C146.9 31.4242 148.2 30.3092 150.1 30.3092C150.5 30.3092 151.3 30.4106 151.5 30.4106V27.9778C151.2 27.8765 150.8 27.8765 150.4 27.8765C148.8 27.8765 147.4 28.7887 147 30.0051H146.8V28.0792H144.4V40.7497ZM157 30.0051C158.8 30.0051 160 31.3228 160.1 33.2488H153.8C153.9 31.3228 155.2 30.0051 157 30.0051ZM160 37.4047C159.5 38.4184 158.5 38.9252 157 38.9252C155 38.9252 153.8 37.5061 153.7 35.2761V35.1747H162.5V34.2624C162.5 30.3092 160.4 27.8765 156.9 27.8765C153.4 27.8765 151.1 30.4106 151.1 34.4651C151.1 38.5197 153.3 40.9525 156.9 40.9525C159.8 40.9525 161.7 39.5334 162.3 37.3034H160V37.4047Z" fill="white"/>
  <path d="M66 10.34V17.9424H68.7C70.9 17.9424 72.2 16.5233 72.2 14.0905C72.2 11.6578 70.9 10.34 68.7 10.34H66ZM67.1 11.455H68.5C70.1 11.455 71 12.4687 71 14.1919C71 15.9151 70.1 16.9287 68.5 16.9287H67.1V11.455ZM76.3 17.0301C75.3 17.0301 74.8 16.3205 74.8 15.1042C74.8 13.8878 75.3 13.1782 76.3 13.1782C77.3 13.1782 77.8 13.8878 77.8 15.1042C77.8 16.3205 77.3 17.0301 76.3 17.0301ZM76.3 18.0437C77.9 18.0437 79 16.9287 79 15.1042C79 13.2796 78 12.1646 76.3 12.1646C74.7 12.1646 73.6 13.2796 73.6 15.1042C73.6 16.9287 74.6 18.0437 76.3 18.0437ZM87.7 12.1646H86.6L85.6 16.5233H85.5L84.3 12.1646H83.3L82.1 16.5233H82L81 12.1646H79.9L81.5 17.9424H82.6L83.8 13.6851H83.9L85.1 17.9424H86.3L87.7 12.1646ZM89.1 17.9424H90.2V14.5973C90.2 13.6851 90.7 13.1782 91.6 13.1782C92.4 13.1782 92.8 13.6851 92.8 14.5973V18.0437H93.9V14.1919C93.9 12.8741 93.2 12.0632 91.9 12.0632C91 12.0632 90.4 12.4687 90.1 13.0769H90V12.1646H88.9V17.9424H89.1ZM95.9 17.9424H97V9.93457H95.9V17.9424ZM101.3 17.0301C100.3 17.0301 99.8 16.3205 99.8 15.1042C99.8 13.8878 100.3 13.1782 101.3 13.1782C102.3 13.1782 102.8 13.8878 102.8 15.1042C102.9 16.3205 102.3 17.0301 101.3 17.0301ZM101.3 18.0437C102.9 18.0437 104 16.9287 104 15.1042C104 13.2796 103 12.1646 101.3 12.1646C99.7 12.1646 98.6 13.2796 98.6 15.1042C98.7 16.9287 99.7 18.0437 101.3 18.0437ZM107.5 17.0301C106.9 17.0301 106.5 16.726 106.5 16.2192C106.5 15.7123 106.9 15.4083 107.6 15.4083L109 15.3069V15.8137C108.9 16.5233 108.3 17.0301 107.5 17.0301ZM107.2 18.0437C107.9 18.0437 108.6 17.7396 108.9 17.1315H109V17.9424H110.1V13.9892C110.1 12.7728 109.3 12.0632 107.9 12.0632C106.6 12.0632 105.7 12.6714 105.6 13.6851H106.7C106.8 13.2796 107.3 13.0769 107.9 13.0769C108.7 13.0769 109.1 13.381 109.1 13.9892V14.496L107.6 14.5973C106.3 14.6987 105.5 15.3069 105.5 16.3205C105.3 17.3342 106.1 18.0437 107.2 18.0437ZM114 18.0437C114.8 18.0437 115.4 17.6383 115.8 17.0301H115.9V17.9424H117V9.93457H115.9V13.0769H115.8C115.5 12.4687 114.8 12.0632 114.1 12.0632C112.7 12.0632 111.8 13.1782 111.8 15.0028C111.6 16.8274 112.5 18.0437 114 18.0437ZM114.3 13.0769C115.2 13.0769 115.8 13.7864 115.8 15.0028C115.8 16.2192 115.2 16.9287 114.3 16.9287C113.4 16.9287 112.8 16.2192 112.8 15.0028C112.8 13.8878 113.3 13.0769 114.3 13.0769ZM124.4 17.0301C123.4 17.0301 122.9 16.3205 122.9 15.1042C122.9 13.8878 123.4 13.1782 124.4 13.1782C125.4 13.1782 125.9 13.8878 125.9 15.1042C125.9 16.3205 125.3 17.0301 124.4 17.0301ZM124.4 18.0437C126 18.0437 127.1 16.9287 127.1 15.1042C127.1 13.2796 126.1 12.1646 124.4 12.1646C122.8 12.1646 121.7 13.2796 121.7 15.1042C121.7 16.9287 122.7 18.0437 124.4 18.0437ZM128.6 17.9424H129.7V14.5973C129.7 13.6851 130.2 13.1782 131.1 13.1782C131.9 13.1782 132.3 13.6851 132.3 14.5973V18.0437H133.4V14.1919C133.4 12.8741 132.7 12.0632 131.4 12.0632C130.5 12.0632 129.9 12.4687 129.6 13.0769H129.5V12.1646H128.4V17.9424H128.6ZM139 10.8469V12.266H138.1V13.1782H139V16.4219C139 17.5369 139.5 17.9424 140.7 17.9424C140.9 17.9424 141.1 17.9424 141.3 17.841V16.9287C141.1 16.9287 141.1 16.9287 140.9 16.9287C140.3 16.9287 140.1 16.6246 140.1 16.0164V13.1782H141.4V12.266H140.1V10.8469H139ZM142.9 17.9424H144V14.5973C144 13.6851 144.6 13.1782 145.5 13.1782C146.3 13.1782 146.8 13.6851 146.8 14.5973V18.0437H147.9V14.1919C147.9 12.8741 147.2 12.0632 145.9 12.0632C145 12.0632 144.4 12.4687 144.1 13.0769H144V9.93457H142.9V17.9424ZM152.1 13.0769C152.9 13.0769 153.5 13.6851 153.5 14.5973H150.6C150.7 13.6851 151.2 13.0769 152.1 13.0769ZM153.4 16.4219C153.2 16.8274 152.7 17.1315 152.1 17.1315C151.2 17.1315 150.6 16.5233 150.6 15.5096V15.4083H154.6V15.0028C154.6 13.1782 153.7 12.1646 152.1 12.1646C150.5 12.1646 149.5 13.2796 149.5 15.2055C149.5 17.1315 150.5 18.1451 152.1 18.1451C153.4 18.1451 154.3 17.5369 154.5 16.5233H153.4V16.4219Z" fill="white"/>
</svg>
