<svg  xmlns:xlink="http://www.w3.org/1999/xlink" xmlns="http://www.w3.org/2000/svg" viewBox="0 0 100 100" style="display: none;">
  <symbol id="ic-graph" viewBox="0 0 30 26" fill="none" xmlns="http://www.w3.org/2000/svg">
    <path d="M21.8182 0.866667C21.8182 0.388021 22.2252 0 22.7273 0H29.0909C29.593 0 30 0.38802 30 0.866667V25.1333C30 25.612 29.593 26 29.0909 26H22.7273C22.2252 26 21.8182 25.612 21.8182 25.1333V0.866667Z" fill="#8DD294"/>
    <path d="M10.9091 8.125C10.9091 7.64635 11.3161 7.25833 11.8182 7.25833H18.1818C18.6839 7.25833 19.0909 7.64635 19.0909 8.125V25.1333C19.0909 25.612 18.6839 26 18.1818 26H11.8182C11.3161 26 10.9091 25.612 10.9091 25.1333V8.125Z" fill="#8DD294"/>
    <path d="M0.909091 14.3C0.407014 14.3 0 14.688 0 15.1667V25.1333C0 25.612 0.407014 26 0.909091 26H7.27273C7.77481 26 8.18182 25.612 8.18182 25.1333V15.1667C8.18182 14.688 7.77481 14.3 7.27273 14.3H0.909091Z" fill="#8DD294"/>
  </symbol>
  <symbol id="ic-rocket" viewBox="0 0 32 32" fill="none" xmlns="http://www.w3.org/2000/svg">
    <path d="M20.8421 22.8665C21.18 22.1141 21.1039 21.2864 20.7646 20.5715C32.4552 9.81125 30.9409 0.0668154 30.9409 0.0668154C30.9409 0.0668154 21.195 -1.47574 10.446 10.2627C9.7308 9.92412 8.90306 9.8865 8.15088 10.1875C6.72177 10.7895 -0.346723 15.6805 0.0304488 16.6587C0.256694 17.1854 3.30389 16.8844 6.04993 16.3953C5.63744 17.825 7.06908 19.8567 9.10272 21.926C11.1363 23.9576 13.1694 25.3873 14.6363 24.9734C14.1498 27.7199 13.8517 30.7674 14.3787 30.9932C15.3572 31.3694 20.2415 24.2962 20.8421 22.8665ZM6.35882 24.6348C6.35882 24.6348 6.05592 22.6408 6.35539 21.0606C5.67824 21.1359 5.03893 21.4368 4.55033 21.9636C3.30996 23.2051 3.8781 27.1556 3.8781 27.1556C3.8781 27.1556 7.82908 27.7199 9.06946 26.4784C9.59568 25.9516 9.85843 25.312 9.97069 24.6725C8.35314 24.9358 6.35882 24.6348 6.35882 24.6348ZM20.6044 10.4132C19.6629 9.47264 19.6615 8.00533 20.6012 7.06475C21.5409 6.12417 23.0082 6.12417 23.9497 7.06475C24.8912 8.00533 24.8926 9.47264 23.9529 10.4132C23.0132 11.3162 21.5083 11.3538 20.6044 10.4132Z" fill="#8DD294"/>
  </symbol>
  <symbol id="ic-dollar" viewBox="0 0 31 31" fill="none" xmlns="http://www.w3.org/2000/svg">
    <path d="M15.4992 1.35498e-06C6.9526 6.07815e-07 -6.07903e-07 6.9536 -1.35505e-06 15.5C-2.1022e-06 24.0464 6.9526 31 15.4992 31C24.0462 31 31 24.0464 31 15.5C31 6.9536 24.0462 2.10218e-06 15.4992 1.35498e-06ZM16.9805 22.8079C16.6971 22.8943 16.5063 23.1515 16.5063 23.448L16.5063 25.416L14.3696 25.416L14.3696 23.6512C14.3696 23.3186 14.1214 23.0344 13.7909 22.9889C12.6847 22.837 11.6187 22.4552 10.9384 21.9683L10.7332 21.8221L11.5224 19.6186L11.8775 19.8549C12.767 20.448 13.9539 20.8022 15.0528 20.8022C16.4895 20.8022 17.4937 19.9991 17.4937 18.8494C17.4937 17.7964 16.7885 17.0813 15.0593 16.3797C13.0558 15.5934 11.0076 14.4622 11.0076 12.0343C11.0076 10.163 12.1478 8.69958 14.0571 8.12004C14.3418 8.03362 14.5326 7.77642 14.5326 7.47989L14.5326 5.58442L16.6496 5.58442L16.6496 7.26364C16.6496 7.59826 16.89 7.87676 17.2218 7.9255C18.0745 8.04837 18.8239 8.30558 19.5165 8.71105L19.761 8.8548L18.9394 11.0255L18.5958 10.8293C18.2039 10.6057 17.2861 10.0819 15.8256 10.0819C14.2468 10.0819 13.6861 10.9825 13.6861 11.7541C13.6861 12.7162 14.2894 13.2445 16.3764 14.1075C18.2649 14.8787 20.1964 16.0259 20.1951 18.6876C20.1947 20.6208 18.9616 22.2001 16.9805 22.8079Z" fill="#8DD294"/>
  </symbol>
  <symbol id="ic-setting" viewBox="0 0 31 31" fill="none" xmlns="http://www.w3.org/2000/svg">
    <path fill-rule="evenodd" clip-rule="evenodd" d="M5.94286 6.33446H0.66383C0.31611 6.33446 0 6.03282 0 5.59712V3.82079C0 3.45211 0.284499 3.11696 0.66383 3.11696H5.97447V0.636797C5.97447 0.268125 6.25897 0 6.57508 0H10.4316C10.7793 0 11.0322 0.301641 11.0322 0.636797V8.81462C11.0322 9.18329 10.7477 9.45142 10.4316 9.45142H6.54347C6.19575 9.45142 5.94286 9.14977 5.94286 8.81462V6.33446ZM12.9609 3.1167H29.3671C29.7148 3.1167 30.0309 3.41834 29.9993 3.85405V5.63039C29.9993 5.99907 29.7148 6.33423 29.3354 6.33423H12.9609V3.1167ZM29.3644 13.7092H23.453V16.9268H29.3328C29.7121 16.9268 29.9966 16.5916 29.9966 16.2229V14.4466C30.0282 14.0109 29.7121 13.7092 29.3644 13.7092ZM16.4377 16.9271H0.663831C0.31611 16.9271 0 16.6254 0 16.1897V14.4135C0 14.0448 0.284499 13.7096 0.663831 13.7096H16.4693V11.2296C16.4693 10.8609 16.7538 10.5928 17.0699 10.5928H20.9265C21.2742 10.5928 21.5271 10.8944 21.5271 11.2296V19.4072C21.5271 19.7758 21.2426 20.0439 20.9265 20.0439H17.0383C16.6906 20.0439 16.4377 19.7423 16.4377 19.4072V16.9271ZM29.3671 24.2988H12.9609V27.5164H29.3354C29.7148 27.5164 29.9993 27.1812 29.9993 26.8125V25.0362C30.0309 24.634 29.7148 24.2988 29.3671 24.2988ZM6.57508 21.1826H10.4316C10.7793 21.1826 11.0322 21.4507 11.0322 21.8194V29.9636C11.0322 30.3322 10.7477 30.6003 10.4316 30.6003H6.54347C6.19575 30.6003 5.94286 30.2987 5.94286 29.9636V27.4834H0.66383C0.31611 27.4834 0 27.1818 0 26.7796V25.0033C0 24.6347 0.284499 24.2995 0.66383 24.2995H5.97447V21.8194C5.97447 21.4507 6.25897 21.1826 6.57508 21.1826Z" fill="#8DD294"/>
  </symbol>
  <symbol id="ic-players" viewBox="0 0 40 25" fill="none" xmlns="http://www.w3.org/2000/svg">
    <path d="M37.9775 10.9801C37.0091 10.138 35.9986 10.3485 33.8935 10.8959L31.8305 11.359C30.5253 11.6116 29.8516 12.8747 29.0096 14.5167C28.7149 15.1061 28.1675 16.1587 27.8307 16.4955C26.6097 16.8323 24.1678 17.0008 22.8626 17.0008C21.8521 17.0008 21.0522 17.8428 21.0943 18.8112C21.0943 19.7795 21.8942 20.5795 22.9047 20.5795C23.3257 20.5795 27.0729 20.5374 29.0938 19.8637C30.0201 19.569 30.6516 18.8112 31.241 17.8849L32.041 23.7793C32.0831 24.1161 32.3778 24.3687 32.7146 24.3266C34.104 24.2845 37.7249 24.2424 39.3248 24.2424C39.6616 24.2424 39.9563 23.9477 39.9984 23.6109C40.0405 19.4848 39.2406 12.0747 37.9775 10.9801Z" fill="#8DD294"/>
    <path d="M33.9941 9.56836C36.2175 9.06931 37.6154 6.86233 37.1163 4.63894C36.6173 2.41555 34.4103 1.01769 32.1869 1.51674C29.9635 2.01579 28.5657 4.22276 29.0647 6.44616C29.5638 8.66955 31.7707 10.0674 33.9941 9.56836Z" fill="#8DD294"/>
    <path d="M17.0953 17.0006C15.7901 17.0006 13.3482 16.8322 12.1272 16.4954C11.7904 16.1586 11.2851 15.106 10.9483 14.5166C10.1062 12.9167 9.47471 11.6115 8.16952 11.3168L6.10648 10.8536C3.95924 10.3063 2.99088 10.0958 2.02252 10.9378C0.759435 12.0746 -0.0405179 19.4847 0.00158482 23.5687C0.00158482 23.9055 0.296304 24.2002 0.675229 24.2002C2.27513 24.2002 5.85387 24.2844 7.28536 24.2844C7.62218 24.2844 7.9169 24.0318 7.95901 23.7371L8.75896 17.8427C9.3484 18.769 9.97994 19.5268 10.9062 19.8215C12.9271 20.4952 16.7164 20.5373 17.0953 20.5373C18.0637 20.5373 18.9057 19.7373 18.9057 18.769C18.9057 17.8006 18.1058 17.0006 17.0953 17.0006Z" fill="#8DD294"/>
    <path d="M10.9462 6.47068C11.445 4.24729 10.047 2.0405 7.82361 1.54168C5.60022 1.04285 3.39343 2.4409 2.89461 4.66429C2.39578 6.88768 3.79382 9.09447 6.01722 9.59329C8.24061 10.0921 10.4474 8.69407 10.9462 6.47068Z" fill="#8DD294"/>
    <path d="M15.0331 13.6744C16.4646 13.927 17.6435 12.5797 18.4013 10.8114C18.4434 10.6851 18.5698 10.6009 18.6961 10.6009H21.2643C21.3906 10.6009 21.5169 10.6851 21.559 10.8114C22.3169 12.6218 23.5379 13.927 24.9273 13.6744C26.6535 13.3796 26.443 11.4429 25.9798 9.16937C25.5167 6.89582 24.6747 5.54853 23.0747 5.50643C22.6116 5.50643 22.1064 5.54853 21.6012 5.63273C21.1801 5.71694 20.7591 5.75904 20.3802 5.80115V3.99073C20.3802 3.86442 20.296 3.78021 20.1697 3.78021H19.7486C19.6223 3.78021 19.5381 3.86442 19.5381 3.99073V5.80115C19.1171 5.80115 18.6961 5.71694 18.3171 5.63273C17.8119 5.54853 17.3067 5.46432 16.8435 5.50643C15.2015 5.54853 14.4016 6.89582 13.9384 9.16937C13.5174 11.4429 13.3069 13.3796 15.0331 13.6744ZM23.0326 9.7588C22.78 9.7588 22.5695 9.54829 22.5695 9.29567C22.5695 9.04306 22.78 8.83254 23.0326 8.83254C23.2853 8.83254 23.4958 9.04306 23.4958 9.29567C23.4958 9.59039 23.2853 9.7588 23.0326 9.7588ZM23.9168 7.99049C24.1694 7.99049 24.3799 8.201 24.3799 8.45362C24.3799 8.70623 24.1694 8.91675 23.9168 8.91675C23.6642 8.91675 23.4537 8.70623 23.4537 8.45362C23.4537 8.201 23.6642 7.99049 23.9168 7.99049ZM23.0326 7.10633C23.2853 7.10633 23.4958 7.31684 23.4958 7.56946C23.4958 7.82208 23.2853 8.03259 23.0326 8.03259C22.78 8.03259 22.5695 7.82208 22.5695 7.56946C22.6116 7.31684 22.8221 7.10633 23.0326 7.10633ZM22.1906 7.99049C22.4432 7.99049 22.6537 8.201 22.6537 8.45362C22.6537 8.70623 22.4432 8.91675 22.1906 8.91675C21.938 8.91675 21.7275 8.70623 21.7275 8.45362C21.7275 8.201 21.938 7.99049 22.1906 7.99049ZM15.7068 8.201C15.7068 8.1168 15.791 8.03259 15.8752 8.03259H16.5067V7.40105C16.5067 7.31684 16.5909 7.23264 16.6751 7.23264H17.1383C17.2225 7.23264 17.3067 7.31684 17.3067 7.40105V8.03259H17.8961C17.9803 8.03259 18.0645 8.1168 18.0645 8.201V8.66413C18.0645 8.74834 17.9803 8.83254 17.8961 8.83254H17.2646V9.46409C17.2646 9.54829 17.1804 9.6325 17.0962 9.6325H16.633C16.5488 9.6325 16.4646 9.54829 16.4646 9.46409V8.83254H15.8331C15.7489 8.83254 15.6647 8.74834 15.6647 8.66413V8.201H15.7068Z" fill="#8DD294"/>
  </symbol>
  <symbol id="ic-lighting" viewBox="0 0 23 34" fill="none" xmlns="http://www.w3.org/2000/svg">
    <path d="M12.3846 0L0 20.0909H10.6154V34L23 13.9091H12.3846V0Z" fill="#8DD294"/>
  </symbol>
  <symbol id="ic-tag" viewBox="0 0 34 19" fill="none" xmlns="http://www.w3.org/2000/svg">
    <path fill-rule="evenodd" clip-rule="evenodd" d="M9.85252 0.0921631C9.35214 0.0921631 8.86993 0.279733 8.50107 0.617855L1.17369 7.33462C-0.123409 8.52363 -0.123409 10.5685 1.17369 11.7575L8.50107 18.4743C8.86993 18.8124 9.35214 19 9.85252 19H31.9985C33.1031 19 33.9985 18.1046 33.9985 17V2.09216C33.9985 0.987594 33.1031 0.0921631 31.9985 0.0921631H9.85252ZM8.21511 11.265C9.16442 11.265 9.934 10.4954 9.934 9.54608C9.934 8.59676 9.16442 7.82719 8.21511 7.82719C7.26579 7.82719 6.49621 8.59676 6.49621 9.54608C6.49621 10.4954 7.26579 11.265 8.21511 11.265Z" fill="#8DD294"/>
  </symbol>
  <symbol id="ic-linkedin" viewBox="0 0 24 24" fill="none" xmlns="http://www.w3.org/2000/svg">
    <g opacity="0.2">
      <path d="M22.3774 0H1.74195C0.803978 0 0 0.8 0 1.73333V22.2667C0 23.2 0.803978 24 1.74195 24H22.2434C23.1814 24 23.9853 23.2 23.9853 22.2667V1.73333C24.1193 0.8 23.3154 0 22.3774 0ZM7.1018 20.4H3.6179V8.93333H7.2358V20.4H7.1018ZM5.35985 7.46667C4.15388 7.46667 3.34991 6.53333 3.34991 5.33333C3.34991 4.13333 4.15388 3.33333 5.35985 3.33333C6.56582 3.33333 7.3698 4.26667 7.3698 5.33333C7.3698 6.4 6.56582 7.46667 5.35985 7.46667ZM20.5014 20.4H16.8835V14.8C16.8835 13.4667 16.8835 11.7333 15.0076 11.7333C13.1316 11.7333 12.8636 13.2 12.8636 14.6667V20.2667H9.37974V8.93333H12.8636V10.5333C13.3996 9.6 14.4716 8.66667 16.2136 8.66667C19.8315 8.66667 20.5014 11.0667 20.5014 14.1333V20.4Z" fill="#FFB661"/>
      <path d="M22.3774 0H1.74195C0.803978 0 0 0.8 0 1.73333V22.2667C0 23.2 0.803978 24 1.74195 24H22.2434C23.1814 24 23.9853 23.2 23.9853 22.2667V1.73333C24.1193 0.8 23.3154 0 22.3774 0ZM7.1018 20.4H3.6179V8.93333H7.2358V20.4H7.1018ZM5.35985 7.46667C4.15388 7.46667 3.34991 6.53333 3.34991 5.33333C3.34991 4.13333 4.15388 3.33333 5.35985 3.33333C6.56582 3.33333 7.3698 4.26667 7.3698 5.33333C7.3698 6.4 6.56582 7.46667 5.35985 7.46667ZM20.5014 20.4H16.8835V14.8C16.8835 13.4667 16.8835 11.7333 15.0076 11.7333C13.1316 11.7333 12.8636 13.2 12.8636 14.6667V20.2667H9.37974V8.93333H12.8636V10.5333C13.3996 9.6 14.4716 8.66667 16.2136 8.66667C19.8315 8.66667 20.5014 11.0667 20.5014 14.1333V20.4Z" fill="white"/>
    </g>
  </symbol>
  <symbol id="ic-drops" viewBox="0 0 32 38" fill="none" xmlns="http://www.w3.org/2000/svg">
      <path fill-rule="evenodd" clip-rule="evenodd" d="M16.0021 0.570312L31.9925 9.80236V28.2665L16.0021 37.4985L0.0117188 28.2665V9.80236L16.0021 0.570312ZM16.0021 4.03441L28.2006 11.0772L16.003 17.807L3.80441 11.0768L16.0021 4.03441ZM3.01172 26.5344V14.0657L14.5039 20.4062V33.1694L3.01172 26.5344ZM17.5039 33.1673L28.9925 26.5344V14.0667L17.5039 20.4052V33.1673Z" fill="#8DD294"/>
  </symbol>
  <symbol id="ic-craft" viewBox="0 0 40 34" fill="none" xmlns="http://www.w3.org/2000/svg">
    <path d="M9.45663 13.1451L15.5686 19.4821C15.6577 19.5745 15.7749 19.6207 15.8921 19.6207C16.0088 19.6207 16.1259 19.5745 16.2155 19.4821L18.8029 16.7993C18.8888 16.7102 18.937 16.5896 18.937 16.4639C18.937 16.3381 18.8888 16.2176 18.8029 16.1285L12.6909 9.79153L16.5722 5.7671C16.8304 5.49934 16.9733 5.14202 16.9733 4.76135C16.9733 4.38068 16.8309 4.02336 16.5722 3.7556L13.3383 0.40199C12.8214 -0.133997 11.9149 -0.133997 11.3979 0.40199L7.51669 4.42642L6.54626 3.42019C6.36752 3.23486 6.07804 3.23486 5.89977 3.42019L3.31241 6.10251C3.22649 6.1916 3.17825 6.31214 3.17825 6.43792C3.17825 6.56369 3.22649 6.68423 3.31241 6.77333L4.28284 7.77955L0.401129 11.8035C0.142899 12.0717 0 12.4291 0 12.8097C9.15211e-08 13.1904 0.1429 13.5477 0.401129 13.8155L3.63589 17.1691C3.89412 17.4368 4.23873 17.585 4.60586 17.585C4.97299 17.585 5.3176 17.4373 5.57583 17.1691L9.45663 13.1451Z" fill="#8DD294"/>
    <path d="M39.5989 11.8582L35.7177 7.83379L36.6881 6.82757C36.774 6.73847 36.8223 6.61841 36.8223 6.49216C36.8223 6.36638 36.774 6.24584 36.6881 6.15675L34.1007 3.47443C33.9216 3.2891 33.6321 3.2891 33.4538 3.47443L32.4838 4.48066L28.6026 0.456232C28.0861 -0.0797542 27.1786 -0.0797542 26.6622 0.456233L23.4283 3.80984C22.8935 4.36441 22.8935 5.26725 23.4283 5.82182L27.3091 9.84624L7.64063 30.2407C7.46189 30.4261 7.46189 30.7262 7.64063 30.9111L10.2275 33.5939C10.3167 33.6863 10.4338 33.7325 10.551 33.7325C10.6682 33.7325 10.7849 33.6863 10.8745 33.5939L30.5434 13.1999L34.4238 17.2238C34.682 17.4916 35.0266 17.6397 35.3937 17.6397C35.7613 17.6397 36.1059 17.492 36.3637 17.2238L39.5985 13.8702C40.1338 13.3156 40.1338 12.4128 39.5989 11.8582Z" fill="#8DD294"/>
    <path d="M23.5787 21.9187C23.7506 21.741 24.0538 21.741 24.2257 21.9187L32.716 30.5082C32.8019 30.5968 32.8497 30.7174 32.8497 30.8436C32.8497 30.9694 32.8019 31.0895 32.716 31.1786L30.1286 33.8614C30.0395 33.9538 29.9223 34 29.8051 34C29.6884 34 29.5713 33.9538 29.4821 33.8614L20.9918 25.2723C20.8131 25.0874 20.8131 24.7868 20.9918 24.6015L23.5787 21.9187Z" fill="#8DD294"/>
  </symbol>
  <symbol id="ic-contest" viewBox="0 0 32 34" fill="none" xmlns="http://www.w3.org/2000/svg">
    <path fill-rule="evenodd" clip-rule="evenodd" d="M15.9242 0L0 3.29212V11.992C0 21.8749 5.82377 30.0291 15.578 33.8039L15.9281 33.9394L16.2781 33.8039C26.1228 29.9939 32 21.8402 32 11.9801L31.8414 3.28994L15.9242 0ZM28.7273 12.3159C28.7195 20.4118 24.0583 27.1889 15.9327 30.5432C7.89886 27.2222 3.27273 20.4455 3.27273 12.3067V5.96551L15.929 3.33404L28.6121 5.97051L28.7273 12.3159Z" fill="#8DD294"/>
    <path d="M16 9L18.4687 12.6021L22.6574 13.8369L19.9944 17.2979L20.1145 21.6631L16 20.2L11.8855 21.6631L12.0056 17.2979L9.3426 13.8369L13.5313 12.6021L16 9Z" fill="#8DD294"/>
  </symbol>
</svg>

