<svg style="display: none;" width="20" height="18" xmlns="http://www.w3.org/2000/svg">
  <symbol id="icon-flag-turkey" viewBox="0 0 20 18">
      <path d="M20 0H0V18H20V0Z" fill="#D80027"/>
      <path d="M11.037 6.93209L11.9648 8.21072L13.4674 7.7235L12.5381 9.00096L13.4659 10.2795L11.9637 9.79041L11.0345 11.0679L11.0354 9.48824L9.53332 8.99911L11.036 8.51189L11.037 6.93209Z" fill="#F0F0F0"/>
      <path d="M8.50429 12.1957C6.73928 12.1957 5.30841 10.7648 5.30841 8.99979C5.30841 7.23479 6.73928 5.80391 8.50429 5.80391C9.05463 5.80391 9.57239 5.94308 10.0245 6.18804C9.31531 5.49446 8.34539 5.06641 7.27513 5.06641C5.10279 5.06641 3.3418 6.82746 3.3418 8.99974C3.3418 11.172 5.10285 12.9331 7.27513 12.9331C8.34539 12.9331 9.31531 12.505 10.0245 11.8114C9.57244 12.0565 9.05463 12.1957 8.50429 12.1957Z" fill="#F0F0F0"/>
  </symbol>

  <symbol id="icon-flag-rus" viewBox="0 0 20 19">
    <rect width="20" height="19" rx="2" fill="#36373B"/>
    <path d="M8.14975 12L7.26175 10.4H7.14175H5.97375V12H4.70975V6.4H7.14175C7.87242 6.4 8.43775 6.57067 8.83775 6.912C9.23775 7.248 9.43775 7.72533 9.43775 8.344C9.43775 8.776 9.34708 9.14667 9.16575 9.456C8.98975 9.76 8.73108 9.992 8.38975 10.152L9.58175 12H8.14975ZM5.97375 9.344H7.14175C7.49375 9.344 7.76308 9.264 7.94975 9.104C8.14175 8.93867 8.23775 8.69867 8.23775 8.384C8.23775 8.07467 8.14175 7.84267 7.94975 7.688C7.76308 7.528 7.49375 7.448 7.14175 7.448H5.97375V9.344ZM11.6668 9.688C11.6668 10.088 11.7788 10.4053 12.0028 10.64C12.2321 10.8693 12.5361 10.984 12.9148 10.984C13.2828 10.984 13.5761 10.8693 13.7948 10.64C14.0135 10.4107 14.1228 10.0933 14.1228 9.688V6.4H15.3868V9.688C15.3868 10.1787 15.2855 10.6053 15.0828 10.968C14.8855 11.3253 14.6001 11.6027 14.2268 11.8C13.8535 11.992 13.4135 12.088 12.9068 12.088C12.4001 12.088 11.9575 11.992 11.5788 11.8C11.2001 11.6027 10.9095 11.3253 10.7068 10.968C10.5041 10.6053 10.4028 10.1787 10.4028 9.688V6.4H11.6668V9.688Z" fill="white"/>
  </symbol>


  <symbol id="icon-flag-portugal" viewBox="0 0 20 19">
        <path d="M20 0.512695H0V18.5127H20V0.512695Z" fill="#D80027"/>
        <path d="M7.36842 0.512695V9.80617V18.5127H0V0.512695H7.36842Z" fill="#6DA544"/>
        <path d="M7.2363 12.8878C9.19841 12.8878 10.789 11.3768 10.789 9.51277C10.789 7.64877 9.19841 6.1377 7.2363 6.1377C5.2742 6.1377 3.68359 7.64877 3.68359 9.51277C3.68359 11.3768 5.2742 12.8878 7.2363 12.8878Z" fill="#FFDA44"/>
        <path d="M5.23828 7.8252V9.93467C5.23828 10.9832 6.13301 11.8331 7.23668 11.8331C8.34035 11.8331 9.23508 10.9832 9.23508 9.93467V7.8252H5.23828Z" fill="#D80027"/>
        <path d="M7.23645 10.5674C6.86913 10.5674 6.57031 10.2835 6.57031 9.93459V9.09082H7.90263V9.93459C7.90258 10.2835 7.60371 10.5674 7.23645 10.5674Z" fill="#F0F0F0"/>
    </symbol>
    <symbol id="icon-flag-poland" viewBox="0 0 20 19">
        <rect y="9.5127" width="20" height="9" fill="#D80027"/>
        <rect y="0.512695" width="20" height="9" fill="#F2F2F2"/>
    </symbol>
    <symbol id="icon-flag-france" viewBox="0 0 20 19">
        <rect y="0.512695" width="7" height="18" fill="#2A3A89"/>
        <rect x="13" y="0.512695" width="7" height="18" fill="#D80027"/>
        <rect x="7" y="0.512695" width="6" height="18" fill="#FCFAF7"/>
    </symbol>
    <symbol id="icon-flag-spain" viewBox="0 0 20 19">
        <rect y="12.5127" width="20" height="6" fill="#D80027"/>
        <rect y="6.5127" width="20" height="6" fill="#F5CB59"/>
        <rect y="0.512695" width="20" height="6" fill="#D80027"/>
    </symbol>
    <symbol id="icon-flag-germany" viewBox="0 0 20 19">
        <rect y="12.5127" width="20" height="6" fill="#F5D956"/>
        <rect y="6.5127" width="20" height="6" fill="#D80027"/>
        <rect y="0.512695" width="20" height="6" fill="#101416"/>
    </symbol>
    <symbol id="icon-flag-china" viewBox="0 0 20 19">
        <path d="M0 0.512695H20V18.5127H0V0.512695Z" fill="#D60A2E"/>
        <path d="M4.30183 3.79555L5.20683 5.62939L7.23036 5.92337L5.76597 7.35076L6.11184 9.36635L4.30183 8.41467L2.49158 9.36635L2.83744 7.35076L1.37305 5.92337L3.39658 5.62939L4.30183 3.79555Z" fill="#FED953"/>
        <path d="M9.66229 7.31526L10.024 8.04796L10.8327 8.1654L10.2475 8.73596L10.3855 9.54115L9.66229 9.16102L8.93903 9.54115L9.07708 8.73596L8.49212 8.1654L9.30079 8.04796L9.66229 7.31526Z" fill="#FED953"/>
        <path d="M9.23429 4.11137L9.89523 4.59205L10.6657 4.32018L10.4127 5.09731L10.9095 5.74608L10.0924 5.74559L9.62857 6.41844L9.37656 5.64106L8.59347 5.40817L9.25465 4.92823L9.23429 4.11137Z" fill="#FED953"/>
        <path d="M8.17429 1.90039L8.01986 2.70285L8.5934 3.28508L7.78249 3.38614L7.40609 4.11138L7.05948 3.37149L6.2533 3.23741L6.84993 2.67902L6.72802 1.87109L7.44358 2.26587L8.17429 1.90039Z" fill="#FED953"/>
        <path d="M8.17429 10.1219L8.01986 10.9244L8.5934 11.5063L7.78249 11.6074L7.40609 12.3326L7.05948 11.5927L6.2533 11.4589L6.84993 10.9005L6.72802 10.0926L7.44358 10.4874L8.17429 10.1219Z" fill="#FED953"/>
    </symbol>
    <symbol id="icon-flag-korea" viewBox="0 0 20 19" >
        <path d="M18.5002 0.511117H1.4959C0.668633 0.511117 -0.00195311 0.512695 4.27421e-06 0.513827L0 18.5127C0 18.5127 0.668633 18.5111 1.4959 18.5111H18.5002C19.3274 18.5111 19.9981 18.5111 19.9981 18.5111V0.510742C19.9981 0.510742 19.3275 0.511117 18.5002 0.511117Z" fill="#F5F5F5"/>
        <path d="M12.3094 5.54102C10.3976 4.22671 7.81543 4.76406 6.54176 6.73207C5.9029 7.71437 6.16259 9.04914 7.11841 9.7063C8.07352 10.3634 9.36372 10.0966 10.001 9.11082C10.6382 8.12511 11.9293 7.86154 12.8844 8.51524C13.841 9.1724 14.0983 10.5072 13.4602 11.4895C14.7347 9.5182 14.2195 6.85538 12.3094 5.54102Z" fill="#FF4B55"/>
        <path d="M6.54091 6.73242C5.90205 7.71473 6.16174 9.04949 7.11755 9.70665C8.07266 10.3638 9.36287 10.0969 10.0001 9.11117C10.6374 8.12546 11.9284 7.86189 12.8835 8.5156C13.8402 9.17275 14.0974 10.5075 13.4593 11.4898C12.1865 13.4646 9.60517 13.9952 7.6934 12.6809C5.78337 11.3668 5.26644 8.70393 6.54091 6.73242Z" fill="#41479B"/>
        <path d="M14.424 3.91915L15.1797 5.09056C15.2432 5.18898 15.2175 5.32186 15.1223 5.38762L14.9307 5.51996C14.835 5.58597 14.7056 5.55943 14.6418 5.46067L13.8851 4.28955C13.8214 4.19103 13.8473 4.05791 13.9427 3.99215L14.1353 3.85956C14.231 3.7937 14.3603 3.82044 14.424 3.91915Z" fill="#464655"/>
        <path d="M15.592 5.7251L16.3502 6.89578C16.4142 6.99464 16.3881 7.1284 16.2919 7.19391L16.0994 7.32509C16.0039 7.39022 15.8754 7.36344 15.8118 7.26531L15.054 6.09584C14.9902 5.99737 15.0158 5.86415 15.1114 5.79829L15.3034 5.6659C15.3989 5.60004 15.5282 5.62653 15.592 5.7251Z" fill="#464655"/>
        <path d="M15.2337 3.36275L17.158 6.34077C17.2217 6.43933 17.1958 6.5725 17.1003 6.63821L16.9069 6.77109C16.8113 6.8368 16.6822 6.81017 16.6184 6.7116L14.6935 3.73378C14.6297 3.63517 14.6556 3.5019 14.7513 3.43619L14.9452 3.30307C15.0409 3.2376 15.17 3.26419 15.2337 3.36275Z" fill="#464655"/>
        <path d="M16.0392 2.80669L16.7965 3.98039C16.8604 4.07925 16.8342 4.21271 16.7381 4.27818L16.5454 4.40941C16.4499 4.47453 16.3212 4.44775 16.2577 4.34943L15.4997 3.17729C15.436 3.07872 15.4618 2.9455 15.5574 2.87974L15.7506 2.74696C15.8462 2.68125 15.9754 2.70793 16.0392 2.80669Z" fill="#464655"/>
        <path d="M17.2067 4.616L17.963 5.78727C18.0266 5.88574 18.0008 6.01872 17.9055 6.08448L17.7134 6.21687C17.6178 6.28278 17.4883 6.25619 17.4246 6.15743L16.6684 4.98616C16.6048 4.88769 16.6306 4.75472 16.7259 4.68896L16.918 4.55656C17.0136 4.49061 17.143 4.51715 17.2067 4.616Z" fill="#464655"/>
        <path d="M4.18857 10.9565L6.11264 13.9313C6.17636 14.0298 6.15063 14.163 6.05505 14.2287L5.86238 14.3614C5.7668 14.4272 5.63761 14.4007 5.5738 14.302L3.64972 11.3272C3.58596 11.2287 3.61174 11.0955 3.70732 11.0298L3.90004 10.8971C3.99557 10.8313 4.1248 10.8579 4.18857 10.9565Z" fill="#464655"/>
        <path d="M3.38005 11.5128L4.13546 12.6812C4.19914 12.7797 4.17345 12.9126 4.07811 12.9785L3.88647 13.1108C3.79094 13.1767 3.66161 13.1502 3.59775 13.0516L2.84144 11.8834C2.77762 11.7849 2.80336 11.6517 2.89894 11.5859L3.09152 11.4533C3.18705 11.3876 3.31628 11.4141 3.38005 11.5128Z" fill="#464655"/>
        <path d="M4.54698 13.3202L5.30325 14.4916C5.36687 14.59 5.34109 14.7231 5.24565 14.7888L5.05345 14.9213C4.95782 14.9872 4.82854 14.9606 4.76473 14.8619L4.00799 13.6908C3.94432 13.5922 3.9701 13.4591 4.06559 13.3934L4.25826 13.2607C4.35394 13.1948 4.48321 13.2215 4.54698 13.3202Z" fill="#464655"/>
        <path d="M2.57244 12.069L4.49528 15.044C4.55896 15.1424 4.53318 15.2755 4.43783 15.3413L4.24568 15.4738C4.1501 15.5397 4.02082 15.5131 3.957 15.4145L2.03302 12.4399C1.96926 12.3414 1.99513 12.2082 2.09071 12.1424L2.28404 12.0095C2.37953 11.9438 2.50872 11.9704 2.57244 12.069Z" fill="#464655"/>
        <path d="M3.64963 6.89628L5.57342 3.91905C5.63719 3.82038 5.76642 3.79375 5.86205 3.85956L6.05468 3.99219C6.15021 4.05795 6.17594 4.19112 6.11227 4.28964L4.18773 7.26522C4.1241 7.36355 3.99539 7.39028 3.89985 7.32505L3.70798 7.19407C3.61193 7.12855 3.58582 6.99504 3.64963 6.89628Z" fill="#464655"/>
        <path d="M2.84132 6.34059L4.76544 3.36277C4.82921 3.26411 4.95854 3.23747 5.05417 3.30338L5.24632 3.43587C5.34171 3.50163 5.36744 3.63465 5.30382 3.73312L3.38022 6.71109C3.31645 6.80975 3.18722 6.83643 3.09159 6.77058L2.89892 6.63794C2.80343 6.57223 2.77765 6.43911 2.84132 6.34059Z" fill="#464655"/>
        <path d="M2.03289 5.78787L3.9572 2.80709C4.02097 2.70837 4.15034 2.68169 4.24597 2.7476L4.43812 2.88009C4.53347 2.94585 4.55925 3.07873 4.49572 3.17724L2.57259 6.15847C2.50892 6.25713 2.37964 6.28391 2.28401 6.21815L2.09077 6.08527C1.99514 6.01956 1.96931 5.88644 2.03289 5.78787Z" fill="#464655"/>
        <path d="M13.8873 13.9318L14.6436 12.7637C14.7075 12.6651 14.8368 12.6386 14.9323 12.7045L15.124 12.8368C15.2193 12.9026 15.245 13.0356 15.1813 13.1341L14.4259 14.3025C14.3621 14.4011 14.2329 14.4277 14.1373 14.3619L13.9447 14.2293C13.8492 14.1636 13.8235 14.0304 13.8873 13.9318Z" fill="#464655"/>
        <path d="M15.0538 12.1306L15.8113 10.9566C15.875 10.858 16.0043 10.8313 16.0999 10.897L16.2929 11.0297C16.3886 11.0955 16.4144 11.2288 16.3506 11.3273L15.5914 12.4994C15.5278 12.5977 15.3991 12.6244 15.3035 12.5591L15.1121 12.4282C15.0162 12.3626 14.9901 12.2293 15.0538 12.1306Z" fill="#464655"/>
        <path d="M14.6934 14.4913L15.4502 13.3201C15.5139 13.2215 15.6431 13.1948 15.7388 13.2606L15.9322 13.3936C16.0277 13.4593 16.0535 13.5924 15.9899 13.691L15.2336 14.8623C15.1699 14.9609 15.0408 14.9877 14.9452 14.922L14.7512 14.7889C14.6556 14.7232 14.6297 14.59 14.6934 14.4913Z" fill="#464655"/>
        <path d="M15.8624 12.6811L16.6196 11.5126C16.6834 11.4141 16.8124 11.3876 16.908 11.4533L17.1013 11.5861C17.197 11.6519 17.2228 11.7852 17.1588 11.8838L16.4016 13.0524C16.3379 13.1508 16.2088 13.1773 16.1133 13.1117L15.9199 12.9788C15.8242 12.913 15.7985 12.7797 15.8624 12.6811Z" fill="#464655"/>
        <path d="M15.4999 15.0443L16.2575 13.8751C16.3211 13.7769 16.4497 13.7502 16.5451 13.8153L16.7377 13.9465C16.8339 14.012 16.86 14.1456 16.7961 14.2445L16.039 15.4152C15.9753 15.5138 15.8461 15.5404 15.7506 15.4747L15.5574 15.3419C15.4617 15.2761 15.436 15.1428 15.4999 15.0443Z" fill="#464655"/>
        <path d="M16.6684 13.2407L17.4242 12.0702C17.4879 11.9714 17.6173 11.9448 17.7129 12.0107L17.9049 12.143C18.0003 12.2088 18.026 12.3419 17.9623 12.4404L17.2059 13.6094C17.1423 13.7078 17.0134 13.7345 16.9179 13.6692L16.7265 13.5384C16.6307 13.4729 16.6047 13.3395 16.6684 13.2407Z" fill="#464655"/>
    </symbol>
    <symbol id="icon-flag-usa" viewBox="0 0 20 19">
        <path d="M20 0.512695H0V18.5127H20V0.512695Z" fill="#F0F0F0"/>
        <path d="M20 2.7627H0V5.01248H20V2.7627Z" fill="#D80027"/>
        <path d="M20 7.2627H0V9.51248H20V7.2627Z" fill="#D80027"/>
        <path d="M20 11.7617H0V14.0115H20V11.7617Z" fill="#D80027"/>
        <path d="M20 16.2627H0V18.5125H20V16.2627Z" fill="#D80027"/>
        <path d="M11.5 0.512695H0V9.5127H11.5V0.512695Z" fill="#2E52B2"/>
        <path d="M4.50017 4.0127L4.26398 4.77675H3.5L4.11818 5.24871L3.88199 6.0127L4.50017 5.54074L5.11795 6.0127L4.88182 5.24871L5.5 4.77675H4.73596L4.50017 4.0127Z" fill="#F0F0F0"/>
        <path d="M4.73596 7.27669L4.50017 6.5127L4.26398 7.27669H3.5L4.11818 7.74871L3.88199 8.5127L4.50017 8.04068L5.11795 8.5127L4.88182 7.74871L5.5 7.27669H4.73596Z" fill="#F0F0F0"/>
        <path d="M2.23606 7.27669L2.0002 6.5127L1.764 7.27669H1L1.6182 7.74871L1.382 8.5127L2.0002 8.04068L2.61806 8.5127L2.38191 7.74871L3 7.27669H2.23606Z" fill="#F0F0F0"/>
        <path d="M2.0002 4.0127L1.764 4.77675H1L1.6182 5.24871L1.382 6.0127L2.0002 5.54074L2.61806 6.0127L2.38191 5.24871L3 4.77675H2.23606L2.0002 4.0127Z" fill="#F0F0F0"/>
        <path d="M4.50017 1.5127L4.26398 2.27676H3.5L4.11818 2.74875L3.88199 3.5127L4.50017 3.0407L5.11795 3.5127L4.88182 2.74875L5.5 2.27676H4.73596L4.50017 1.5127Z" fill="#F0F0F0"/>
        <path d="M2.0002 1.5127L1.764 2.27676H1L1.6182 2.74875L1.382 3.5127L2.0002 3.0407L2.61806 3.5127L2.38191 2.74875L3 2.27676H2.23606L2.0002 1.5127Z" fill="#F0F0F0"/>
        <path d="M7.00011 4.0127L6.76398 4.77675H6L6.61813 5.24871L6.38205 6.0127L7.00011 5.54074L7.61801 6.0127L7.38182 5.24871L8 4.77675H7.23602L7.00011 4.0127Z" fill="#F0F0F0"/>
        <path d="M7.23602 7.27669L7.00011 6.5127L6.76398 7.27669H6L6.61813 7.74871L6.38205 8.5127L7.00011 8.04068L7.61801 8.5127L7.38182 7.74871L8 7.27669H7.23602Z" fill="#F0F0F0"/>
        <path d="M9.736 7.27669L9.50014 6.5127L9.26394 7.27669H8.5L9.11809 7.74871L8.88194 8.5127L9.50014 8.04068L10.118 8.5127L9.8818 7.74871L10.5 7.27669H9.736Z" fill="#F0F0F0"/>
        <path d="M9.50014 4.0127L9.26394 4.77675H8.5L9.11809 5.24871L8.88194 6.0127L9.50014 5.54074L10.118 6.0127L9.8818 5.24871L10.5 4.77675H9.736L9.50014 4.0127Z" fill="#F0F0F0"/>
        <path d="M7.00011 1.5127L6.76398 2.27676H6L6.61813 2.74875L6.38205 3.5127L7.00011 3.0407L7.61801 3.5127L7.38182 2.74875L8 2.27676H7.23602L7.00011 1.5127Z" fill="#F0F0F0"/>
        <path d="M9.50014 1.5127L9.26394 2.27676H8.5L9.11809 2.74875L8.88194 3.5127L9.50014 3.0407L10.118 3.5127L9.8818 2.74875L10.5 2.27676H9.736L9.50014 1.5127Z" fill="#F0F0F0"/>
    </symbol>
    <symbol id="icon-flag-england" viewBox="0 0 20 19">
        <mask id="mask0" mask-type="alpha" maskUnits="userSpaceOnUse" x="0" y="0" width="20" height="19">
            <rect y="0.512695" width="20" height="18" fill="#C4C4C4"/>
        </mask>
        <g mask="url(#mask0)">
            <path d="M22 0.512695H-2V18.5127H22V0.512695Z" fill="#0A17A7"/>
            <path fill-rule="evenodd" clip-rule="evenodd" d="M-1.10039 0.3125L22.8996 18.3125L21.0996 20.7125L-2.90039 2.7125L-1.10039 0.3125Z" fill="white"/>
            <path fill-rule="evenodd" clip-rule="evenodd" d="M22.8996 2.7125L-1.10039 20.7125L-2.90039 18.3125L21.0996 0.3125L22.8996 2.7125Z" fill="white"/>
            <path fill-rule="evenodd" clip-rule="evenodd" d="M21.2992 2.14668L-0.700782 18.6466L-1.30078 17.8466L20.6992 1.34668L21.2992 2.14668Z" fill="#DB1F35"/>
            <path fill-rule="evenodd" clip-rule="evenodd" d="M-0.700782 1.34668L21.2992 17.8466L20.6992 18.6466L-1.30078 2.14668L-0.700782 1.34668Z" fill="#DB1F35"/>
            <path fill-rule="evenodd" clip-rule="evenodd" d="M0 13.0908H7V18.5127H13V13.0908H20V6.90331H13V0.512695H7V6.90331H0V13.0908Z" fill="white"/>
            <path fill-rule="evenodd" clip-rule="evenodd" d="M0 12.0596H8.00004V19.0127H12V12.0596H20V7.93456H12V0.512695H8.00004V7.93456H0V12.0596Z" fill="#E6273E"/>
        </g>
    </symbol>
    <symbol id="icon-flag-usa" viewBox="0 0 20 19">
        <path d="M20 0.512695H0V18.5127H20V0.512695Z" fill="#F0F0F0"/>
        <path d="M20 2.7627H0V5.01248H20V2.7627Z" fill="#D80027"/>
        <path d="M20 7.2627H0V9.51248H20V7.2627Z" fill="#D80027"/>
        <path d="M20 11.7617H0V14.0115H20V11.7617Z" fill="#D80027"/>
        <path d="M20 16.2627H0V18.5125H20V16.2627Z" fill="#D80027"/>
        <path d="M11.5 0.512695H0V9.5127H11.5V0.512695Z" fill="#2E52B2"/>
        <path d="M4.50017 4.0127L4.26398 4.77675H3.5L4.11818 5.24871L3.88199 6.0127L4.50017 5.54074L5.11795 6.0127L4.88182 5.24871L5.5 4.77675H4.73596L4.50017 4.0127Z" fill="#F0F0F0"/>
        <path d="M4.73596 7.27669L4.50017 6.5127L4.26398 7.27669H3.5L4.11818 7.74871L3.88199 8.5127L4.50017 8.04068L5.11795 8.5127L4.88182 7.74871L5.5 7.27669H4.73596Z" fill="#F0F0F0"/>
        <path d="M2.23606 7.27669L2.0002 6.5127L1.764 7.27669H1L1.6182 7.74871L1.382 8.5127L2.0002 8.04068L2.61806 8.5127L2.38191 7.74871L3 7.27669H2.23606Z" fill="#F0F0F0"/>
        <path d="M2.0002 4.0127L1.764 4.77675H1L1.6182 5.24871L1.382 6.0127L2.0002 5.54074L2.61806 6.0127L2.38191 5.24871L3 4.77675H2.23606L2.0002 4.0127Z" fill="#F0F0F0"/>
        <path d="M4.50017 1.5127L4.26398 2.27676H3.5L4.11818 2.74875L3.88199 3.5127L4.50017 3.0407L5.11795 3.5127L4.88182 2.74875L5.5 2.27676H4.73596L4.50017 1.5127Z" fill="#F0F0F0"/>
        <path d="M2.0002 1.5127L1.764 2.27676H1L1.6182 2.74875L1.382 3.5127L2.0002 3.0407L2.61806 3.5127L2.38191 2.74875L3 2.27676H2.23606L2.0002 1.5127Z" fill="#F0F0F0"/>
        <path d="M7.00011 4.0127L6.76398 4.77675H6L6.61813 5.24871L6.38205 6.0127L7.00011 5.54074L7.61801 6.0127L7.38182 5.24871L8 4.77675H7.23602L7.00011 4.0127Z" fill="#F0F0F0"/>
        <path d="M7.23602 7.27669L7.00011 6.5127L6.76398 7.27669H6L6.61813 7.74871L6.38205 8.5127L7.00011 8.04068L7.61801 8.5127L7.38182 7.74871L8 7.27669H7.23602Z" fill="#F0F0F0"/>
        <path d="M9.736 7.27669L9.50014 6.5127L9.26394 7.27669H8.5L9.11809 7.74871L8.88194 8.5127L9.50014 8.04068L10.118 8.5127L9.8818 7.74871L10.5 7.27669H9.736Z" fill="#F0F0F0"/>
        <path d="M9.50014 4.0127L9.26394 4.77675H8.5L9.11809 5.24871L8.88194 6.0127L9.50014 5.54074L10.118 6.0127L9.8818 5.24871L10.5 4.77675H9.736L9.50014 4.0127Z" fill="#F0F0F0"/>
        <path d="M7.00011 1.5127L6.76398 2.27676H6L6.61813 2.74875L6.38205 3.5127L7.00011 3.0407L7.61801 3.5127L7.38182 2.74875L8 2.27676H7.23602L7.00011 1.5127Z" fill="#F0F0F0"/>
        <path d="M9.50014 1.5127L9.26394 2.27676H8.5L9.11809 2.74875L8.88194 3.5127L9.50014 3.0407L10.118 3.5127L9.8818 2.74875L10.5 2.27676H9.736L9.50014 1.5127Z" fill="#F0F0F0"/>
    </symbol>
    <symbol id="icon-flag-ukraine" viewBox="0 0 20 19">
      <rect y="9.5127" width="20" height="9" fill="#F7D648"/>
      <rect y="0.512695" width="20" height="9" fill="#245CB5"/>
    </symbol>
</svg>
