<svg style="display: none;">
  <symbol id="icon-dmarket" viewBox="0 0 28 28" fill="none">
    <path
      d="M19.5936 28H4.96614C4.95692 28 4.9477 28 4.93848 28L8.92661 20.9987H15.6409C16.0062 20.9987 16.3439 20.7999 16.5269 20.4763C17.0065 19.6258 17.9861 17.8918 18.8097 16.432C19.2438 15.6633 19.6347 14.9707 19.888 14.5229C19.9788 14.3614 20.0249 14.1805 20.0249 14.0004C20.0249 13.8195 19.9788 13.6386 19.888 13.4771C19.6347 13.0293 19.2438 12.3367 18.8097 11.568C17.9861 10.1082 17.0065 8.37423 16.5269 7.52447C16.3439 7.20078 16.0062 7.00126 15.6409 7.00126H8.92661L4.93848 0.000717743C4.9477 3.35188e-08 4.95692 0 4.96614 0H19.5936C19.9589 0 20.2966 0.199523 20.4796 0.52321L27.7933 13.4771C27.8841 13.6386 27.9302 13.8195 27.9302 14.0004C27.9302 14.1805 27.8841 14.3614 27.7933 14.5229L20.4796 27.4775C20.2966 27.8005 19.9589 28 19.5936 28Z"
      fill="#8DD294" />
    <path
      d="M3.63611 13.998C3.63752 13.8157 3.59212 13.6326 3.49919 13.4683C2.76641 12.1707 0.869523 8.81036 0.136733 7.51274C-0.0455777 7.18905 -0.0455777 6.79072 0.136733 6.46775L3.52048 0.47416C3.62476 0.316981 3.74819 0.212196 3.86807 0.142578L11.3698 13.4683C11.4627 13.6334 11.5081 13.8171 11.5067 14.0015C11.5081 14.1853 11.4627 14.369 11.3698 14.5341L3.86807 27.8598C3.74819 27.7902 3.62476 27.6854 3.52048 27.5282L0.136733 21.5346C-0.0455777 21.2117 -0.0455777 20.8133 0.136733 20.4904C0.869523 19.192 2.76641 15.8317 3.49919 14.5341C3.59212 14.3705 3.63752 14.1874 3.63611 14.0044V14.0015V13.998Z"
      fill="#8DD294" />
  </symbol>
  <symbol id="icon-fire" fill="currentColor" viewBox="0 0 17 20">
    <path
      d="M16.4513 10.5868C14.7828 6.60725 8.84204 6.39267 10.2767 0.608681C10.383 0.179515 9.88353 -0.152113 9.47969 0.0722235C5.62192 2.15953 2.84816 6.3439 5.17557 11.8255C5.36686 12.2742 4.79298 12.6936 4.37851 12.401C2.45494 11.0647 2.25302 9.14324 2.42306 7.76795C2.48682 7.26076 1.76416 7.01691 1.45596 7.43632C0.733294 8.45072 0 10.0894 0 12.5571C0.403843 18.0192 5.43063 19.6968 7.2373 19.9114C9.81977 20.2138 12.6148 19.7749 14.6234 18.0875C16.8339 16.205 17.6416 13.2008 16.4513 10.5868ZM6.58902 15.4929C8.11937 15.1516 8.9058 14.1372 9.11835 13.2398C9.46906 11.845 8.09812 10.4795 9.02271 8.27515C9.37341 10.0991 12.4979 11.2403 12.4979 13.2301C12.5829 15.6978 9.67098 17.8143 6.58902 15.4929Z"
      fill="#D95164" />
  </symbol>
  <symbol id="icon-target" fill="currentColor" viewBox="0 0 25 25">
    <path
      d="M11.1355 10.7022C11.076 10.698 11.0166 10.6958 10.9571 10.6958C9.65962 10.6958 8.60634 11.7489 8.60629 13.046C8.60629 14.3432 9.65535 15.3963 10.955 15.3963C12.2546 15.3963 13.3057 14.3432 13.3057 13.046C13.3057 12.9866 13.3036 12.9272 13.2993 12.8677L14.9791 11.1884L15.0152 11.1523C15.2849 11.7277 15.4357 12.3688 15.4357 13.0461C15.4357 15.5194 13.431 17.5236 10.9571 17.5236C8.48315 17.5236 6.47852 15.5173 6.47852 13.0439C6.47852 10.5706 8.48315 8.56641 10.9571 8.56641C11.6345 8.56641 12.2758 8.71714 12.8513 8.98677L12.8152 9.02286L11.1355 10.7022Z" />
    <path
      d="M10.9999 4.08605C10.9849 4.08597 10.97 4.08594 10.9551 4.08594C6.01023 4.08594 2 8.09618 2 13.0431C2 17.99 6.01025 22.0003 10.9572 22.0003C15.9041 22.0003 19.9143 17.99 19.9143 13.0431C19.9143 12.2083 19.8005 11.4006 19.5873 10.6344L17.4036 11.6897C17.4951 12.1266 17.5433 12.5793 17.5433 13.0431C17.5433 16.6791 14.5952 19.6272 10.9592 19.6272C7.32329 19.6272 4.3731 16.6791 4.3731 13.0431C4.3731 9.40714 7.32118 6.45905 10.9571 6.45905C11.9807 6.45905 12.9488 6.69275 13.8115 7.10913L14.1692 6.62148L10.9999 4.08605Z" />
    <path
      d="M22.9329 0.345606L14.2297 4.78016L16.9462 6.94135L13.115 11.757L21.8183 7.32245L19.1017 5.16126L22.9329 0.345606Z" />
  </symbol>
  <symbol id="icon-seo-area" viewBox="0 0 20 20" fill="currentColor">
    <path
      d="M0 2C0 0.895431 0.895431 0 2 0H8C9.10457 0 10 0.895431 10 2V18C10 19.1046 9.10457 20 8 20H2C0.89543 20 0 19.1046 0 18V2Z" />
    <path fill-rule="evenodd" clip-rule="evenodd"
          d="M18 3C18 2.44772 17.5523 2 17 2H3C2.44772 2 2 2.44772 2 3L2 17C2 17.5523 2.44772 18 3 18H17C17.5523 18 18 17.5523 18 17V3ZM2 0C0.895431 0 0 0.895431 0 2V18C0 19.1046 0.895431 20 2 20H18C19.1046 20 20 19.1046 20 18V2C20 0.895431 19.1046 0 18 0H2Z" />
  </symbol>
  <symbol id="icon-market" fill="currentColor" viewBox="0 0 20 20">
    <path
      d="M19.77 9.109L14.85.856a1.809 1.809 0 0 0-.647-.617A1.865 1.865 0 0 0 13.332 0H3.566c-.323.009-.639.1-.914.267h.018c-.25.145-.452.355-.585.606L.256 3.993a1.399 1.399 0 0 0 0 1.444L2.47 9.162c.143.257.213.546.201.838.002.299-.074.593-.22.856L.202 14.563a1.399 1.399 0 0 0 0 1.444l1.83 3.12c.138.247.34.455.584.606h.055c.275.166.59.258.915.267h9.802c.308.003.612-.075.88-.225.266-.15.487-.368.638-.63l4.846-8.272a1.749 1.749 0 0 0 .018-1.764zm-5.78 1.782l-2.011 3.423c-.16.255-.382.467-.647.616-.265.15-.565.232-.871.24H6.437a1.868 1.868 0 0 1-.731-.161l2.45-4.136a1.748 1.748 0 0 0 0-1.782L5.689 5.009c.201-.091.418-.145.64-.16h4.06c.308-.004.612.074.879.224.267.151.488.369.639.631l2.03 3.405a1.75 1.75 0 0 1 .054 1.71v.072z" />
  </symbol>
  <symbol id="icon-market-home" fill="currentColor" viewBox="0 0 28 28">
    <path
      d="M19.4419 27.5H5.30018C5.29127 27.5 5.28235 27.5 5.27344 27.5L9.12916 20.7488H15.6205C15.9737 20.7488 16.3002 20.5571 16.4771 20.245C16.9407 19.4248 17.8878 17.7528 18.6841 16.3451C19.1038 15.6039 19.4817 14.936 19.7265 14.5042C19.8143 14.3485 19.8589 14.1741 19.8589 14.0003C19.8589 13.8259 19.8143 13.6515 19.7265 13.4958C19.4817 13.064 19.1038 12.3961 18.6841 11.6549C17.8878 10.2472 16.9407 8.57515 16.4771 7.75573C16.3002 7.44361 15.9737 7.25121 15.6205 7.25121H9.12916L5.27344 0.500692C5.28235 0.5 5.29127 0.5 5.30018 0.5H19.4419C19.7951 0.5 20.1216 0.692397 20.2985 1.00452L27.3694 13.4958C27.4572 13.6515 27.5018 13.8259 27.5018 14.0003C27.5018 14.1741 27.4572 14.3485 27.3694 14.5042L20.2985 26.9962C20.1216 27.3076 19.7951 27.5 19.4419 27.5Z"
      fill="#49BC74" />
    <path
      d="M4.01538 13.9992C4.01675 13.8234 3.97285 13.647 3.88301 13.4885C3.17455 12.2372 1.34065 8.99689 0.632193 7.74561C0.455936 7.43348 0.455936 7.04938 0.632193 6.73795L3.90359 0.958411C4.0044 0.806846 4.12374 0.705803 4.23964 0.638672L11.4923 13.4885C11.5821 13.6476 11.626 13.8248 11.6246 14.0027C11.626 14.1798 11.5821 14.357 11.4923 14.5162L4.23964 27.366C4.12374 27.2989 4.0044 27.1978 3.90359 27.0463L0.632193 21.2667C0.455936 20.9553 0.455936 20.5712 0.632193 20.2597C1.34065 19.0078 3.17455 15.7675 3.88301 14.5162C3.97285 14.3584 4.01675 14.1819 4.01538 14.0054V14.0027V13.9992Z"
      fill="#49BC74" />
  </symbol>
  <symbol id="icon-market-title" fill="currentColor" viewBox="0 0 107 15">
    <path
      d="M0.996094 0.800781H7.56421C9.08553 0.800781 10.4349 1.08745 11.6122 1.66078C12.7896 2.23412 13.7024 3.04745 14.3506 4.10078C14.9988 5.15412 15.3229 6.38745 15.3229 7.80078C15.3229 9.21412 14.9988 10.4474 14.3506 11.5008C13.7024 12.5541 12.7896 13.3674 11.6122 13.9408C10.4349 14.5141 9.08553 14.8008 7.56421 14.8008H0.996094V0.800781ZM7.40547 11.6408C8.59606 11.6408 9.54854 11.3008 10.2629 10.6208C10.9905 9.94078 11.3543 9.00078 11.3543 7.80078C11.3543 6.60078 10.9905 5.66078 10.2629 4.98078C9.54854 4.30078 8.59606 3.96078 7.40547 3.96078H4.92506V11.6408H7.40547Z"
      fill="white" />
    <path
      d="M29.431 14.8008L29.3913 7.38078L25.8195 13.4208H24.0733L20.5214 7.58078V14.8008H16.89V0.800781H20.1245L25.0059 8.88078L29.7683 0.800781H33.0028L33.0425 14.8008H29.431Z"
      fill="white" />
    <path
      d="M45.129 12.0808H39.2554L38.164 14.8008H34.1557L40.2873 0.800781H44.1567L50.3081 14.8008H46.2204L45.129 12.0808ZM43.9781 9.16078L42.1922 4.68078L40.4063 9.16078H43.9781Z"
      fill="white" />
    <path
      d="M57.494 11.0808H55.3509V14.8008H51.422V0.800781H57.7718C59.0285 0.800781 60.1199 1.01411 61.0459 1.44078C61.972 1.85411 62.6863 2.45412 63.189 3.24078C63.6917 4.01412 63.9431 4.92745 63.9431 5.98078C63.9431 6.99411 63.7049 7.88078 63.2287 8.64078C62.7657 9.38745 62.0976 9.97412 61.2245 10.4008L64.2209 14.8008H60.0141L57.494 11.0808ZM59.9744 5.98078C59.9744 5.32745 59.7694 4.82078 59.3593 4.46078C58.9492 4.10078 58.3406 3.92078 57.5337 3.92078H55.3509V8.02078H57.5337C58.3406 8.02078 58.9492 7.84745 59.3593 7.50078C59.7694 7.14078 59.9744 6.63411 59.9744 5.98078Z"
      fill="white" />
    <path
      d="M71.4683 9.72078L69.9999 11.3008V14.8008H66.1106V0.800781H69.9999V6.62078L75.3774 0.800781H79.7033L74.0281 7.00078L80.0009 14.8008H75.437L71.4683 9.72078Z"
      fill="white" />
    <path
      d="M92.6837 11.7408V14.8008H81.5318V0.800781H92.4258V3.86078H85.4211V6.22078H91.5924V9.18078H85.4211V11.7408H92.6837Z"
      fill="white" />
    <path d="M98.3207 3.94078H94.0544V0.800781H106.496V3.94078H102.25V14.8008H98.3207V3.94078Z" fill="white" />
  </symbol>
  <symbol id="icon-exchange" viewBox="0 0 14 24" fill="currentColor">
    <path
      d="M8.353 12l-.995 1.057 3.939 4.193H2v1.5h9.296l-3.938 4.192L8.353 24 14 18l-5.647-6zM5.647 0l.995 1.058L2.704 5.25H12v1.5H2.704l3.938 4.193L5.647 12 0 6l5.647-6z" />
  </symbol>
  <symbol id="icon-equaliser" viewBox="0 0 24 16" fill="currentColor">
    <path
      d="M12 0a2 2 0 0 0-1.73 1H2v2h2l-4 8a5 5 0 0 0 10 0L6 3h4.271A2 2 0 0 0 13 3.732 2 2 0 0 0 13.73 3H18l-4 8a5 5 0 0 0 10 0l-4-8h2V1h-8.271A2 2 0 0 0 12 0zM5 5.021L7.988 11H2.012L5 5.021zm14 0L21.988 11h-5.976L19 5.021z" />
  </symbol>
  <symbol id="icon-buy" viewBox="0 0 20 19" fill="currentColor">
    <path
      d="M5.893 14.72c-1.048 0-1.905.828-1.905 1.84s.857 1.84 1.905 1.84c1.049 0 1.906-.828 1.906-1.84s-.857-1.84-1.906-1.84zM.176 0v1.84h1.906l3.43 6.992-1.334 2.208c-.095.276-.19.644-.19.92 0 1.012.857 1.84 1.905 1.84H17.33v-1.84H6.275c-.096 0-.191-.092-.191-.184v-.092l.858-1.564h7.051c.763 0 1.335-.368 1.62-.92l3.431-5.98c.19-.184.19-.276.19-.46 0-.552-.38-.92-.952-.92H4.178L3.32 0H.176zm15.247 14.72c-1.048 0-1.906.828-1.906 1.84s.858 1.84 1.906 1.84 1.906-.828 1.906-1.84-.858-1.84-1.906-1.84z" />
  </symbol>
  <symbol id="icon-withdraw" viewBox="0 0 24 30" fill="currentColor">
    <path
      d="M12 14C8.51406 14 3.77325 14.8922 3.76842 14.8931H3.76674C2.74827 15.0978 1.95284 15.8948 1.76116 16.9013L1.75781 16.9046L0.0719866 25.9408L0.0736607 25.9424C0.0265753 26.1649 0 26.3954 0 26.6316C0 28.4918 1.53514 30 3.42857 30C4.44549 30 5.34866 29.5561 5.97656 28.8651L5.98828 28.8717L7.28571 27.4737H12H16.7143L18.0117 28.8717L18.0234 28.8651C18.6513 29.5561 19.5545 30 20.5714 30C22.4649 30 24 28.4918 24 26.6316C24 26.3954 23.9734 26.1649 23.9263 25.9424L23.928 25.9408L22.2422 16.9046L22.2388 16.9013C22.0471 15.8943 21.2508 15.0973 20.2316 14.8931C20.2311 14.893 20.2304 14.8932 20.2299 14.8931C20.2259 14.8922 15.4859 14 12 14ZM6 19.0526C6.47314 19.0526 6.85714 19.4299 6.85714 19.8947V20.7368H7.71429C8.18743 20.7368 8.57143 21.1141 8.57143 21.5789C8.57143 22.0438 8.18743 22.4211 7.71429 22.4211H6.85714V23.2632C6.85714 23.728 6.47314 24.1053 6 24.1053C5.52686 24.1053 5.14286 23.728 5.14286 23.2632V22.4211H4.28571C3.81257 22.4211 3.42857 22.0438 3.42857 21.5789C3.42857 21.1141 3.81257 20.7368 4.28571 20.7368H5.14286V19.8947C5.14286 19.4299 5.52686 19.0526 6 19.0526ZM18 19.0526C18.4731 19.0526 18.8571 19.4299 18.8571 19.8947C18.8571 20.3596 18.4731 20.7368 18 20.7368C17.5269 20.7368 17.1429 20.3596 17.1429 19.8947C17.1429 19.4299 17.5269 19.0526 18 19.0526ZM16.2857 20.7368C16.7589 20.7368 17.1429 21.1141 17.1429 21.5789C17.1429 22.0438 16.7589 22.4211 16.2857 22.4211C15.8126 22.4211 15.4286 22.0438 15.4286 21.5789C15.4286 21.1141 15.8126 20.7368 16.2857 20.7368ZM19.7143 20.7368C20.1874 20.7368 20.5714 21.1141 20.5714 21.5789C20.5714 22.0438 20.1874 22.4211 19.7143 22.4211C19.2411 22.4211 18.8571 22.0438 18.8571 21.5789C18.8571 21.1141 19.2411 20.7368 19.7143 20.7368ZM18 22.4211C18.4731 22.4211 18.8571 22.7983 18.8571 23.2632C18.8571 23.728 18.4731 24.1053 18 24.1053C17.5269 24.1053 17.1429 23.728 17.1429 23.2632C17.1429 22.7983 17.5269 22.4211 18 22.4211Z" />
    <path d="M18 6.35294L16.9425 5.35765L12.75 9.29647V0L11.25 0V9.29647L7.0575 5.35765L6 6.35294L12 12L18 6.35294Z" />
  </symbol>
  <symbol id="icon-withdraw-nft" viewBox="0 0 15 35" fill="currentColor">
    <path
      d="M12.498 5.44538L11.6167 4.59227L8.1228 7.9684V0L6.87273 0L6.87273 7.9684L3.37879 4.59227L2.49749 5.44538L7.49777 10.2857L12.498 5.44538Z"
      fill="currentColor" />
    <path d="M7.49712 27.4329L14.9942 22.8643L7.49712 12L0 22.8643L7.49712 27.4329Z" fill="currentColor" />
    <path d="M7.49712 33.2889L14.9983 24.3301L7.49712 28.8945L0 24.3301L7.49712 33.2889Z" fill="currentColor" />
  </symbol>
  <symbol id="icon-withdraw-steam" viewBox="0 0 19 25" fill="currentColor">
    <path
      d="M12 6.15632L11.1187 5.30321L7.62476 8.67934L7.62476 0.710938L6.37469 0.710938L6.37469 8.67934L2.88074 5.30321L1.99944 6.15632L6.99972 10.9967L12 6.15632Z"
      fill="currentColor" />
    <path
      d="M14.6018 11.0008C14.0407 10.9961 13.4841 11.0995 12.9647 11.3049C12.4453 11.5104 11.9734 11.8138 11.5766 12.1974C11.1797 12.5811 10.8659 13.0373 10.6534 13.5395C10.4409 14.0417 10.334 14.5798 10.3389 15.1223V15.2289L7.63167 19.0544C6.96226 18.9827 6.29024 19.1653 5.75744 19.5636L1.37065 17.813C0.713892 17.5509 0 18.0346 0 18.7418V20.2093C0 20.6201 0.251195 20.9891 0.633358 21.1397L4.50795 22.6666C4.61314 23.1429 4.83966 23.5862 5.16695 23.9564C5.49424 24.3266 5.91194 24.612 6.38218 24.7866C7.14056 25.0766 7.98576 25.0708 8.73979 24.7704C9.49382 24.4699 10.0978 23.8983 10.4246 23.1759C10.5903 22.8027 10.6617 22.3967 10.6329 21.9915L14.5896 19.2676H14.6876C15.2549 19.2787 15.8188 19.1793 16.3456 18.9753C16.8724 18.7712 17.3512 18.4667 17.7536 18.0799C18.1561 17.693 18.4738 17.2318 18.6878 16.7237C18.9019 16.2155 19.0079 15.6709 18.9995 15.1223C18.9932 14.5718 18.8741 14.028 18.6492 13.5222C18.4243 13.0164 18.0979 12.5587 17.6891 12.1755C17.2802 11.7923 16.7969 11.4912 16.267 11.2896C15.7371 11.088 15.1712 10.9898 14.6018 11.0008ZM9.70189 22.9746C9.58217 23.2545 9.40521 23.5082 9.18164 23.7204C8.95807 23.9326 8.69248 24.099 8.40079 24.2096C8.1091 24.3202 7.79732 24.3727 7.48414 24.364C7.17095 24.3553 6.86281 24.2855 6.57818 24.1589C6.03883 23.9573 5.60027 23.5629 5.35319 23.0575L6.74968 23.6852C7.16816 23.8173 7.62277 23.7923 8.02305 23.6151C8.42332 23.4379 8.7399 23.1215 8.90977 22.7288C9.07965 22.3361 9.09036 21.896 8.93978 21.496C8.7892 21.096 8.48837 20.7656 8.09716 20.5703L6.63943 19.9663C7.07505 19.8183 7.54507 19.7923 7.9953 19.8913C8.44553 19.9904 8.85766 20.2104 9.18416 20.5261C9.51066 20.8418 9.73824 21.2402 9.84068 21.6755C9.94312 22.1108 9.91624 22.5652 9.76314 22.9864L9.70189 22.9746ZM14.6018 17.8463C14.0446 17.8463 13.4999 17.6866 13.0365 17.3873C12.5732 17.0879 12.2121 16.6625 11.9988 16.1648C11.7856 15.667 11.7298 15.1193 11.8385 14.5909C11.9472 14.0625 12.2156 13.5772 12.6096 13.1962C13.0036 12.8152 13.5056 12.5558 14.0522 12.4507C14.5987 12.3456 15.1652 12.3995 15.68 12.6057C16.1949 12.8119 16.6349 13.161 16.9445 13.609C17.2541 14.0569 17.4193 14.5836 17.4193 15.1223C17.4312 15.4832 17.3665 15.8425 17.2291 16.1782C17.0917 16.5139 16.8846 16.8188 16.6206 17.0741C16.3566 17.3294 16.0412 17.5296 15.694 17.6625C15.3468 17.7953 14.9751 17.8579 14.6018 17.8463Z"
      fill="currentColor" />
  </symbol>
  <symbol id="icon-instant" viewBox="0 0 9 15" fill="currentColor">
    <path d="M5.031.533L.858 8.615h3.577v5.595l4.173-8.082H5.031V.533z" />
  </symbol>
  <symbol id="icon-manage" viewBox="0 0 16 16" fill="currentColor">
    <path
      d="M13.95 8.78c.03-.25.05-.51.05-.78s-.02-.53-.06-.78l1.69-1.32c.15-.12.19-.34.1-.51l-1.6-2.77c-.1-.18-.31-.24-.49-.18l-1.99.8c-.42-.32-.86-.58-1.35-.78L10 .34A.4.4 0 0 0 9.6 0H6.4c-.2 0-.36.14-.39.34l-.3 2.12c-.49.2-.94.47-1.35.78l-1.99-.8c-.18-.07-.39 0-.49.18L.28 5.39c-.1.18-.06.39.1.51l1.69 1.32C2.03 7.47 2 7.74 2 8s.02.53.06.78L.37 10.1c-.15.12-.19.34-.1.51l1.6 2.77c.1.18.31.24.49.18l1.99-.8c.42.32.86.58 1.35.78l.3 2.12c.04.2.2.34.4.34h3.2c.2 0 .37-.14.39-.34l.3-2.12c.49-.2.94-.47 1.35-.78l1.99.8c.18.07.39 0 .49-.18l1.6-2.77c.1-.18.06-.39-.1-.51l-1.67-1.32zM8 11c-1.65 0-3-1.35-3-3s1.35-3 3-3 3 1.35 3 3-1.35 3-3 3z" />
  </symbol>
  <symbol id="icon-settings" viewBox="0 0 24 24" fill="currentColor">
    <path
      d="M19.14,12.94c0.04-0.3,0.06-0.61,0.06-0.94c0-0.32-0.02-0.64-0.07-0.94l2.03-1.58c0.18-0.14,0.23-0.41,0.12-0.61 l-1.92-3.32c-0.12-0.22-0.37-0.29-0.59-0.22l-2.39,0.96c-0.5-0.38-1.03-0.7-1.62-0.94L14.4,2.81c-0.04-0.24-0.24-0.41-0.48-0.41 h-3.84c-0.24,0-0.43,0.17-0.47,0.41L9.25,5.35C8.66,5.59,8.12,5.92,7.63,6.29L5.24,5.33c-0.22-0.08-0.47,0-0.59,0.22L2.74,8.87 C2.62,9.08,2.66,9.34,2.86,9.48l2.03,1.58C4.84,11.36,4.8,11.69,4.8,12s0.02,0.64,0.07,0.94l-2.03,1.58 c-0.18,0.14-0.23,0.41-0.12,0.61l1.92,3.32c0.12,0.22,0.37,0.29,0.59,0.22l2.39-0.96c0.5,0.38,1.03,0.7,1.62,0.94l0.36,2.54 c0.05,0.24,0.24,0.41,0.48,0.41h3.84c0.24,0,0.44-0.17,0.47-0.41l0.36-2.54c0.59-0.24,1.13-0.56,1.62-0.94l2.39,0.96 c0.22,0.08,0.47,0,0.59-0.22l1.92-3.32c0.12-0.22,0.07-0.47-0.12-0.61L19.14,12.94z M12,15.6c-1.98,0-3.6-1.62-3.6-3.6 s1.62-3.6,3.6-3.6s3.6,1.62,3.6,3.6S13.98,15.6,12,15.6z" />
  </symbol>
  <symbol id="icon-redeem" viewBox="0 0 24 24" fill="currentColor">
    <path
      d="M3.538 4C2.688 4 2 4.716 2 5.6v4.988h1.818c.118.593.565 1.414.91 1.883H2V18.4c0 .884.688 1.6 1.538 1.6h4.826v-4.706c-.029.03.03-.028 0 0l.909-.941.909.941V20h10.28c.85 0 1.538-.716 1.538-1.6v-5.93h-7.273c-.454-.47-1.027-1.289-.909-1.882H22V5.6c0-.884-.689-1.6-1.538-1.6h-10.28v1.684c-.264.057-.662.085-.91.198-.246-.113-.645-.14-.908-.198V4H3.538zm3.847 3.2c.593 0 1.129.24 1.538.623.41-.383.945-.623 1.538-.623 1.273 0 2.308 1.077 2.308 2.4 0 1.22-.883 2.22-2.018 2.37l1.024 1.064c.3.313.3.819 0 1.132a.752.752 0 0 1-.544.234.752.752 0 0 1-.544-.234L8.923 12.33 7.16 14.166a.752.752 0 0 1-.544.234.752.752 0 0 1-.543-.234.822.822 0 0 1 0-1.132l1.023-1.064c-1.135-.15-2.018-1.15-2.018-2.37 0-1.323 1.035-2.4 2.308-2.4zm0 1.6c-.425 0-.77.358-.77.8 0 .442.345.8.77.8h.769v-.8c0-.442-.345-.8-.77-.8zm3.076 0c-.424 0-.769.358-.769.8v.8h.77c.424 0 .769-.358.769-.8 0-.442-.345-.8-.77-.8zm5.385 7.2c.425 0 .77.358.77.8 0 .442-.345.8-.77.8-.425 0-.77-.358-.77-.8 0-.442.345-.8.77-.8zm3.077 0c.425 0 .77.358.77.8 0 .442-.345.8-.77.8-.424 0-.77-.358-.77-.8 0-.442.346-.8.77-.8z" />
  </symbol>
  <symbol id="icon-sell" viewBox="0 0 11 11" fill="currentColor">
    <path
      d="M5.495.084A5.414 5.414 0 0 0 .084 5.5a5.414 5.414 0 0 0 5.411 5.417A5.42 5.42 0 0 0 10.917 5.5 5.42 5.42 0 0 0 5.495.084zm.006 9.75A4.332 4.332 0 0 1 1.167 5.5a4.332 4.332 0 0 1 4.334-4.333A4.332 4.332 0 0 1 9.834 5.5a4.332 4.332 0 0 1-4.333 4.334z" />
    <path d="M5.771 2.791H4.96v3.25l2.844 1.707.406-.667-2.438-1.446V2.791z" />
  </symbol>
  <symbol id="icon-items" viewBox="0 0 14 14" fill="currentColor">
    <path
      d="M0 0v14h14V0H0zm6.222 12.444H1.556V7.778h4.666v4.666zm0-6.222H1.556V1.556h4.666v4.666zm6.222 6.222H7.778V7.778h4.666v4.666zm0-6.222H7.778V1.556h4.666v4.666z" />
  </symbol>
  <symbol id="icon-language" viewBox="0 0 24 24" fill="currentColor">
    <path
      d="M11.99 2C6.47 2 2 6.48 2 12C2 17.52 6.47 22 11.99 22C17.52 22 22 17.52 22 12C22 6.48 17.52 2 11.99 2ZM18.92 8H15.97C15.65 6.75 15.19 5.55 14.59 4.44C16.43 5.07 17.96 6.35 18.92 8ZM12 4.04C12.83 5.24 13.48 6.57 13.91 8H10.09C10.52 6.57 11.17 5.24 12 4.04ZM4.26 14C4.1 13.36 4 12.69 4 12C4 11.31 4.1 10.64 4.26 10H7.64C7.56 10.66 7.5 11.32 7.5 12C7.5 12.68 7.56 13.34 7.64 14H4.26ZM5.08 16H8.03C8.35 17.25 8.81 18.45 9.41 19.56C7.57 18.93 6.04 17.66 5.08 16V16ZM8.03 8H5.08C6.04 6.34 7.57 5.07 9.41 4.44C8.81 5.55 8.35 6.75 8.03 8V8ZM12 19.96C11.17 18.76 10.52 17.43 10.09 16H13.91C13.48 17.43 12.83 18.76 12 19.96ZM14.34 14H9.66C9.57 13.34 9.5 12.68 9.5 12C9.5 11.32 9.57 10.65 9.66 10H14.34C14.43 10.65 14.5 11.32 14.5 12C14.5 12.68 14.43 13.34 14.34 14ZM14.59 19.56C15.19 18.45 15.65 17.25 15.97 16H18.92C17.96 17.65 16.43 18.93 14.59 19.56V19.56ZM16.36 14C16.44 13.34 16.5 12.68 16.5 12C16.5 11.32 16.44 10.66 16.36 10H19.74C19.9 10.64 20 11.31 20 12C20 12.69 19.9 13.36 19.74 14H16.36Z" />
  </symbol>
  <symbol id="icon-forum" viewBox="0 0 24 24" fill="currentColor">
    <path
      d="M21 6h-2v9H6v2c0 .55.45 1 1 1h11l4 4V7c0-.55-.45-1-1-1zm-4 6V3c0-.55-.45-1-1-1H3c-.55 0-1 .45-1 1v14l4-4h10c.55 0 1-.45 1-1z" />
  </symbol>
  <symbol id="icon-notifications" viewBox="0 0 24 24" fill="currentColor">
    <path
      d="M12 22c1.1 0 2-.9 2-2h-4c0 1.1.89 2 2 2zm6-6v-5c0-3.07-1.64-5.64-4.5-6.32V4c0-.83-.67-1.5-1.5-1.5s-1.5.67-1.5 1.5v.68C7.63 5.36 6 7.92 6 11v5l-2 2v1h16v-1l-2-2z" />
  </symbol>
  <symbol id="icon-arrow-up" viewBox="0 0 24 24" fill="currentColor">
    <path d="M7.41 15.41L12 10.83l4.59 4.58L18 14l-6-6-6 6z" />
  </symbol>
  <symbol id="icon-arrow-down" viewBox="0 0 24 24" fill="currentColor">
    <path d="M7.41 8.59L12 13.17l4.59-4.58L18 10l-6 6-6-6 1.41-1.41z" />
  </symbol>
  <symbol id="icon-arrow-left" viewBox="0 0 24 24" fill="currentColor">
    <path d="M15.41 16.59L10.83 12l4.58-4.59L14 6l-6 6 6 6 1.41-1.41z" />
  </symbol>
  <symbol id="icon-arrow-right" viewBox="0 0 24 24" fill="currentColor">
    <path d="M8.59 16.59L13.17 12 8.59 7.41 10 6l6 6-6 6-1.41-1.41z" />
  </symbol>
  <symbol id="icon-double-arrows-down" viewBox="0 0 24 24" fill="currentColor">
    <path
      d="M15.9855 12.6362L12.0909 16.5695L8.19636 12.6362L7 13.8471L12.0909 18.9999L17.1818 13.8471L15.9855 12.6362Z" />
    <path d="M15.9855 5L12.0909 8.93326L8.19636 5L7 6.2109L12.0909 11.3636L17.1818 6.2109L15.9855 5Z" />
  </symbol>
  <symbol id="icon-search" viewBox="0 0 24 24" fill="currentColor">
    <path
      d="M15.5 14h-.79l-.28-.27C15.41 12.59 16 11.11 16 9.5 16 5.91 13.09 3 9.5 3S3 5.91 3 9.5 5.91 16 9.5 16c1.61 0 3.09-.59 4.23-1.57l.27.28v.79l5 4.99L20.49 19l-4.99-5zm-6 0C7.01 14 5 11.99 5 9.5S7.01 5 9.5 5 14 7.01 14 9.5 11.99 14 9.5 14z" />
  </symbol>
  <symbol id="icon-refresh" viewBox="0 0 24 24" fill="currentColor">
    <path
      d="M17.65 6.35C16.2 4.9 14.21 4 12 4c-4.42 0-7.99 3.58-7.99 8s3.57 8 7.99 8c3.73 0 6.84-2.55 7.73-6h-2.08c-.82 2.33-3.04 4-5.65 4-3.31 0-6-2.69-6-6s2.69-6 6-6c1.66 0 3.14.69 4.22 1.78L13 11h7V4l-2.35 2.35z" />
  </symbol>
  <symbol id="icon-filter" viewBox="0 0 24 24" fill="currentColor">
    <path d="M10 18h4v-2h-4v2zM3 6v2h18V6H3zm3 7h12v-2H6v2z" />
  </symbol>
  <symbol id="icon-filterSearch" viewBox="0 0 19 19" fill="currentColor">
    <path
      d="M14.3749 10.8457C14.7743 9.98 15 9.01692 15 8C15 4.13272 11.8673 1 8 1C4.13272 1 1 4.13272 1 8C1 11.8673 4.13272 15 8 15C9.02297 15 9.98407 14.7626 10.8416 14.3708L13.1204 16.6496C14.095 17.6242 15.675 17.6242 16.6496 16.6496C17.6242 15.675 17.6242 14.095 16.6496 13.1204L14.3749 10.8457ZM8 10C6.90228 10 6 9.09772 6 8C6 6.90228 6.90228 6 8 6C9.09772 6 10 6.90228 10 8C10 9.09772 9.09772 10 8 10Z"
      fill="white" stroke="#3D3E40" stroke-width="2" />
  </symbol>
  <symbol id="icon-close" viewBox="0 0 24 24" fill="currentColor">
    <path
      d="M19 6.41L17.59 5 12 10.59 6.41 5 5 6.41 10.59 12 5 17.59 6.41 19 12 13.41 17.59 19 19 17.59 13.41 12z" />
  </symbol>
  <symbol id="icon-info" viewBox="0 0 24 24" fill="currentColor">
    <path
      d="M12 2C6.48 2 2 6.48 2 12s4.48 10 10 10 10-4.48 10-10S17.52 2 12 2zm1 15h-2v-6h2v6zm0-8h-2V7h2v2z" />
  </symbol>
  <symbol id="icon-delete" viewBox="0 0 84 108" fill="currentColor">
    <path
      d="M6.50016 95.4167C6.50016 101.925 11.8252 107.25 18.3335 107.25H65.6668C72.1752 107.25 77.5002 101.925 77.5002 95.4167V24.4167H6.50016V95.4167ZM21.0552 53.29L29.3977 44.9475L42.0002 57.4908L54.5435 44.9475L62.886 53.29L50.3427 65.8333L62.886 78.3767L54.5435 86.7192L42.0002 74.1758L29.4568 86.7192L21.1143 78.3767L33.6577 65.8333L21.0552 53.29ZM62.7085 6.66667L56.7918 0.75H27.2085L21.2918 6.66667H0.583496V18.5H83.4168V6.66667H62.7085Z" />
  </symbol>
  <symbol id="icon-active" viewBox="0 0 10 10" fill="currentColor">
    <rect width="10" height="10" rx="5" />
  </symbol>
  <symbol id="icon-inactive" viewBox="0 0 10 10" fill="currentColor">
    <rect width="10" height="10" rx="5" fill="#F1625F" />
  </symbol>
  <symbol id="icon-lock" viewBox="0 0 9 12" fill="currentColor">
    <path
      d="M8.747 4.5h-.75V3.498A3.503 3.503 0 0 0 4.5 0 3.503 3.503 0 0 0 1 3.499v1H.25A.251.251 0 0 0 0 4.75V11C0 11.55.448 12 1 12h7c.55 0 1-.448 1-1V4.75a.255.255 0 0 0-.253-.25zm-3.5 5.22a.25.25 0 0 1-.064.194.246.246 0 0 1-.185.085h-1a.246.246 0 0 1-.186-.085.258.258 0 0 1-.063-.194l.157-1.418a.99.99 0 0 1-.41-.803 1.002 1.002 0 0 1 2.001 0 .983.983 0 0 1-.41.803l.16 1.418zm1.25-5.22H2.5V3.498a2 2 0 0 1 1.999-2c1.101 0 1.999.898 1.999 2v1z"
      fill="#848484" />
  </symbol>
  <symbol id="icon-unlock" viewBox="0 0 10 13" fill="currentColor">
    <path
      d="M9.719 4.875h-.833V3.791C8.886 1.7 7.14 0 4.999 0 3.27 0 1.76 1.094 1.297 2.633c-.045.15-.04.157-.04.157 0 .15.125.272.28.272h1.11a.276.276 0 0 0 .28-.272S3.354 1.625 5 1.625c1.227 0 2.221.972 2.221 2.166v1.084H.28A.275.275 0 0 0 0 5.147v6.771C0 12.515.497 13 1.112 13h7.776C9.5 13 10 12.515 10 11.916v-6.77a.28.28 0 0 0-.281-.271zm-3.89 5.657a.276.276 0 0 1-.276.302H4.442a.276.276 0 0 1-.276-.302l.174-1.536c-.284-.2-.456-.52-.456-.871 0-.597.498-1.084 1.112-1.084.615 0 1.112.485 1.112 1.084 0 .35-.17.67-.456.87l.177 1.537z" />
  </symbol>
  <symbol id="icon-help" viewBox="0 -1 19 19" fill="currentColor">
    <path
      d="M7.933 0a8 8 0 1 0 .215 16 8 8 0 0 0-.215-16zM7.91 12.87l-.044-.001c-.68-.02-1.16-.521-1.14-1.192.019-.659.51-1.137 1.168-1.137h.04c.699.022 1.173.518 1.153 1.207-.02.661-.503 1.123-1.177 1.123zm2.862-5.68c-.16.227-.512.51-.955.855l-.488.337c-.268.208-.43.404-.49.597-.048.152-.072.192-.076.5v.08H6.896l.006-.158c.022-.649.038-1.03.307-1.345.422-.495 1.352-1.094 1.391-1.12.133-.1.246-.214.33-.336.195-.27.282-.482.282-.691 0-.29-.086-.557-.256-.796-.164-.23-.474-.346-.923-.346-.445 0-.75.14-.932.43a1.73 1.73 0 0 0-.282.931v.08H4.898l.004-.083c.05-1.178.47-2.025 1.248-2.52.49-.315 1.098-.475 1.808-.475.93 0 1.715.226 2.333.672.626.451.944 1.128.944 2.01a2.3 2.3 0 0 1-.464 1.378z" />
  </symbol>
  <symbol id="icon-transactions" viewBox="0 0 16 17" fill="currentColor">
    <path fill-rule="evenodd" clip-rule="evenodd"
          d="M16 1C16 0.447715 15.5523 0 15 0H1C0.447715 0 0 0.447715 0 1V2V14V15V16C0 16.5523 0.447715 17 1 17H3C3 16.4473 3.44775 16 4 16C4.05859 16 4.11572 16.0049 4.17139 16.0146C4.27246 16.0322 4.36816 16.0645 4.45605 16.1094C4.77881 16.2754 5 16.6113 5 17L7 17C7 16.4473 7.44775 16 8 16C8.2041 16 8.39404 16.0605 8.55225 16.166C8.82227 16.3447 9 16.6514 9 17H11C11 16.4473 11.4478 16 12 16C12.5522 16 13 16.4473 13 17H15C15.5523 17 16 16.5523 16 16V15V14V2V1ZM14 2L2 2L2 4L2 5L2 14L14 14L14 5V4V2ZM12 6C12 5.44772 11.5523 5 11 5H5C4.44772 5 4 5.44772 4 6C4 6.55228 4.44772 7 5 7H11C11.5523 7 12 6.55228 12 6ZM4 10C4 9.44771 4.44772 9 5 9H9C9.55228 9 10 9.44771 10 10C10 10.5523 9.55228 11 9 11H5C4.44772 11 4 10.5523 4 10Z" />
  </symbol>
  <symbol id="icon-p2p-general" viewBox="0 0 24 20" fill="currentColor">
    <path fill-rule="evenodd" clip-rule="evenodd"
          d="M10 0C10.5523 0 11 0.447716 11 1C11 1.55228 10.5523 2 10 2H7C6.44772 2 6 1.55228 6 1C6 0.447716 6.44772 0 7 0H10ZM8 5C8 4.44772 7.55228 4 7 4H4C3.44772 4 3 4.44772 3 5C3 5.55228 3.44772 6 4 6H7C7.55228 6 8 5.55228 8 5ZM21.8182 5.36362C23.0232 5.36362 24 6.34045 24 7.54543C24 8.7504 23.0232 9.72723 21.8182 9.72723C20.6132 9.72723 19.6364 8.7504 19.6364 7.54543C19.6364 6.34045 20.6132 5.36362 21.8182 5.36362ZM19.0917 9.40822C18.7497 8.951 18.1085 8.84203 17.6098 9.11683C16.5815 9.68539 14.5819 11.0002 13.955 12.9309C13.3169 14.8969 14.8744 15.6411 15.7617 16.0651L15.762 16.0652C16.0667 16.2108 16.2923 16.3186 16.3227 16.4252C16.3473 16.5117 16.3454 16.6932 16.343 16.927V16.9275C16.3339 17.8208 16.5812 18.9362 18 19C19 19 19.2549 18.4132 19.3031 16.9891C19.3133 16.6889 19.3238 16.3785 19.3481 16.0675C19.451 14.7344 18.3911 14.6285 17.8052 14.5699C17.6061 14.55 17.4617 14.5356 17.4364 14.4803C17.3803 14.3547 17.7458 13.9132 18.2255 13.3337L18.2257 13.3335C18.5788 12.9069 18.9938 12.4056 19.3481 11.9004C19.892 11.1257 19.5856 10.0668 19.0917 9.40822ZM12.4117 15.6765C12.3096 15.8636 12.0599 16.0095 11.8462 16C11.0886 15.9668 9.13773 16.0273 9 16.9891C8.8219 18.221 10.4023 19.3593 11.9792 18.902C13.1523 18.5633 14.2379 17.5196 14.6393 17.086C14.7367 16.9818 14.7248 16.8183 14.6132 16.7307C14.2237 16.4203 13.4068 15.7001 13.2856 15.0392C13.021 14.5396 12.7208 15.1 12.4703 15.5676L12.4699 15.5683C12.4502 15.6051 12.4308 15.6414 12.4117 15.6765ZM5 9C5 8.44772 4.55228 8 4 8H1C0.447723 8 0 8.44772 0 9C0 9.55228 0.447723 10 1 10H4C4.55228 10 5 9.55228 5 9ZM14.6816 1.88419C14.2585 1.5292 13.6277 1.58438 13.2727 2.00745L8.13043 8.13581C7.77545 8.55888 7.83063 9.18964 8.25369 9.54464L11.3179 12.1158C11.7409 12.4708 12.3717 12.4156 12.7267 11.9925L17.869 5.86418C18.224 5.4411 18.1688 4.81035 17.7458 4.45535L14.6816 1.88419Z" />
  </symbol>
  <symbol id="icon-my-items" viewBox="0 0 24 24" fill="currentColor">
    <path
      d="M17.625 4H6.375C5.23601 3.99955 4.14175 4.43312 3.32478 5.20858C2.50781 5.98403 2.03254 7.04022 2 8.15267V18.6565C2 18.8329 2.03557 19.0076 2.10467 19.1706C2.17377 19.3336 2.27505 19.4817 2.40273 19.6065C2.53041 19.7312 2.68199 19.8302 2.84881 19.8977C3.01563 19.9652 3.19443 20 3.375 20H20.5C20.8771 20.0013 21.2408 19.8637 21.5188 19.6148C21.7968 19.3658 21.9686 19.0237 22 18.6565V8.15267C21.9675 7.04022 21.4922 5.98403 20.6752 5.20858C19.8583 4.43312 18.764 3.99955 17.625 4ZM3.875 8.15267C3.90543 7.51439 4.17859 6.9102 4.641 6.45838C5.10341 6.00656 5.72176 5.73966 6.375 5.70992H17.625C17.9697 5.70992 18.3111 5.77627 18.6295 5.90516C18.948 6.03406 19.2374 6.22299 19.4812 6.46116C19.7249 6.69933 19.9183 6.98208 20.0502 7.29327C20.1821 7.60445 20.25 7.93798 20.25 8.27481H3.875V8.15267ZM13.5 10.1069V11.9389C13.5 12.1154 13.4644 12.2901 13.3953 12.4531C13.3262 12.6161 13.225 12.7642 13.0973 12.8889C12.9696 13.0137 12.818 13.1127 12.6512 13.1802C12.4844 13.2477 12.3056 13.2824 12.125 13.2824C11.9444 13.2824 11.7656 13.2477 11.5988 13.1802C11.432 13.1127 11.2804 13.0137 11.1527 12.8889C11.025 12.7642 10.9238 12.6161 10.8547 12.4531C10.7856 12.2901 10.75 12.1154 10.75 11.9389V10.1069H13.5ZM3.875 18.2901V17.4351V16.871V16.5V16.0916V14.9924V14.6078V14V13.5267V12.4275V11.9389V11.3796V11.084V10.1069H8.875V11.6947C8.83795 12.4978 9.11408 13.2848 9.64766 13.8969C10.1812 14.5089 10.9326 14.9004 11.75 14.9924C12.1809 15.0262 12.6143 14.9722 13.0228 14.834C13.4313 14.6957 13.806 14.4762 14.1232 14.1892C14.4404 13.9022 14.6932 13.5541 14.8656 13.1667C15.0381 12.7794 15.1264 12.3613 15.125 11.9389V10.1069H20.25V11.084V11.5613V11.9389V12.5496V13.6488V14V14.356V15.1145V16.2137V17V17.358V17.6794V18.29L3.875 18.2901Z" />
  </symbol>
  <symbol id="icon-history" viewBox="0 0 24 24" fill="currentColor">
    <path
      d="M19.7656 7.48665L14.5656 2.23665C14.4152 2.08481 14.212 2 14 2H5.6C4.716 2 4 2.72288 4 3.61538V20.3846C4 21.2771 4.716 22 5.6 22H18.4C19.284 22 20 21.2771 20 20.3846V8.05769C20 7.84365 19.916 7.6385 19.7656 7.48665ZM17.3656 13.8787L14.1656 17.1095C14.0096 17.267 13.8048 17.3462 13.6 17.3462C13.3952 17.3462 13.1904 17.267 13.0344 17.1095L10.4 14.4498L7.7656 17.1095C7.4528 17.4253 6.9472 17.4253 6.6344 17.1095C6.3216 16.7937 6.3216 16.2832 6.6344 15.9674L9.8344 12.7367C10.1472 12.4208 10.6528 12.4208 10.9656 12.7367L13.6 15.3964L16.2344 12.7367C16.5472 12.4208 17.0528 12.4208 17.3656 12.7367C17.6784 13.0525 17.6784 13.5629 17.3656 13.8787ZM14.4 8.46154C13.9584 8.46154 13.6 8.09969 13.6 7.65385V3.53785L18.4768 8.46154H14.4Z" />
  </symbol>
  <symbol id="icon-rocket" viewBox="0 0 16 23" fill="currentColor">
    <path
      d="M8.00005 0.599609C8.00005 0.599609 3.20005 3.79961 3.20005 10.9996C3.20005 11.1267 3.21097 11.254 3.2188 11.3809C2.39155 12.0497 0.800049 13.4824 0.800049 14.6355C0.800049 16.0907 2.25474 18.9996 2.25474 18.9996L4.89536 15.698L5.60005 17.3996H10.4L11.1047 15.698L13.7454 18.9996C13.7454 18.9996 15.2 16.0907 15.2 14.6355C15.2 13.4824 13.6086 12.0497 12.7813 11.3809C12.7891 11.254 12.8 11.1267 12.8 10.9996C12.8 3.79961 8.00005 0.599609 8.00005 0.599609ZM8.00005 6.19961C8.88405 6.19961 9.60005 6.91561 9.60005 7.79961C9.60005 8.68361 8.88405 9.39961 8.00005 9.39961C7.11605 9.39961 6.40005 8.68361 6.40005 7.79961C6.40005 6.91561 7.11605 6.19961 8.00005 6.19961ZM5.93442 18.1996C5.72722 18.4668 5.60005 18.7739 5.60005 19.1059C5.60005 20.6283 8.00005 22.1996 8.00005 22.1996C8.00005 22.1996 10.4 20.6491 10.4 19.1059C10.4 18.7739 10.2736 18.4676 10.0672 18.1996H9.39067C9.40507 18.2612 9.44067 18.3161 9.44067 18.3809C9.44067 19.4681 8.00005 20.0121 8.00005 20.0121C8.00005 20.0121 6.55942 19.4681 6.55942 18.3809C6.55942 18.3169 6.59502 18.2612 6.60942 18.1996H5.93442Z" />
  </symbol>
  <symbol id="icon-language" viewBox="0 0 24 24" fill="currentColor">
    <path
      d="M11.99 2C6.47 2 2 6.48 2 12C2 17.52 6.47 22 11.99 22C17.52 22 22 17.52 22 12C22 6.48 17.52 2 11.99 2ZM18.92 8H15.97C15.65 6.75 15.19 5.55 14.59 4.44C16.43 5.07 17.96 6.35 18.92 8ZM12 4.04C12.83 5.24 13.48 6.57 13.91 8H10.09C10.52 6.57 11.17 5.24 12 4.04ZM4.26 14C4.1 13.36 4 12.69 4 12C4 11.31 4.1 10.64 4.26 10H7.64C7.56 10.66 7.5 11.32 7.5 12C7.5 12.68 7.56 13.34 7.64 14H4.26ZM5.08 16H8.03C8.35 17.25 8.81 18.45 9.41 19.56C7.57 18.93 6.04 17.66 5.08 16V16ZM8.03 8H5.08C6.04 6.34 7.57 5.07 9.41 4.44C8.81 5.55 8.35 6.75 8.03 8V8ZM12 19.96C11.17 18.76 10.52 17.43 10.09 16H13.91C13.48 17.43 12.83 18.76 12 19.96ZM14.34 14H9.66C9.57 13.34 9.5 12.68 9.5 12C9.5 11.32 9.57 10.65 9.66 10H14.34C14.43 10.65 14.5 11.32 14.5 12C14.5 12.68 14.43 13.34 14.34 14ZM14.59 19.56C15.19 18.45 15.65 17.25 15.97 16H18.92C17.96 17.65 16.43 18.93 14.59 19.56V19.56ZM16.36 14C16.44 13.34 16.5 12.68 16.5 12C16.5 11.32 16.44 10.66 16.36 10H19.74C19.9 10.64 20 11.31 20 12C20 12.69 19.9 13.36 19.74 14H16.36Z" />
  </symbol>
  <symbol id="icon-details" viewBox="0 0 12 12" fill="currentColor">
    <path
      d="M6 .25a5.75 5.75 0 1 0 0 11.5A5.75 5.75 0 0 0 6 .25zm.75 9.06a.75.75 0 0 1-1.5 0v-4.3a.75.75 0 0 1 1.5 0v4.3zm0-6.59a.75.75 0 1 1-1.5 0 .75.75 0 0 1 1.5 0z" />
  </symbol>
  <symbol id="icon-faq" viewBox="0 0 24 24" fill="currentColor">
    <path fill-rule="evenodd" clip-rule="evenodd"
          d="M12 2C6.47715 2 2 6.47715 2 12C2 17.5228 6.47715 22 12 22C17.5228 22 22 17.5228 22 12C22 6.47715 17.5228 2 12 2ZM11.5903 11.8514C11.3619 12.1977 11.2477 12.6356 11.2477 13.1653H13.4972C13.4972 12.8394 13.5816 12.5644 13.7505 12.3403C13.9193 12.106 14.1875 11.8208 14.5549 11.4847C14.8628 11.1995 15.1111 10.95 15.2998 10.7361C15.4984 10.512 15.6623 10.2421 15.7914 9.92639C15.9305 9.61065 16 9.24398 16 8.82639C16 7.94028 15.6524 7.24768 14.9572 6.74861C14.2719 6.24954 13.3582 6 12.216 6C11.2427 6 10.3985 6.17824 9.68343 6.53472C8.97827 6.8912 8.41713 7.39537 8 8.04722L9.80261 9.13195C10.0509 8.77546 10.3538 8.50046 10.7114 8.30694C11.0788 8.10324 11.496 8.00139 11.9628 8.00139C12.4494 8.00139 12.8367 8.11343 13.1248 8.3375C13.4227 8.55139 13.5717 8.84676 13.5717 9.22361C13.5717 9.48843 13.4922 9.72778 13.3333 9.94167C13.1844 10.1454 12.946 10.4 12.6182 10.7056C12.1713 11.1231 11.8287 11.5051 11.5903 11.8514ZM11.352 16.6028C11.63 16.8676 11.9727 17 12.3799 17C12.7871 17 13.1248 16.8676 13.3929 16.6028C13.671 16.3278 13.8101 15.9968 13.8101 15.6097C13.8101 15.2227 13.676 14.9019 13.4078 14.6472C13.1397 14.3824 12.797 14.25 12.3799 14.25C11.9628 14.25 11.6201 14.3824 11.352 14.6472C11.0838 14.9019 10.9497 15.2227 10.9497 15.6097C10.9497 15.9968 11.0838 16.3278 11.352 16.6028Z" />
  </symbol>
  <symbol id="icon-horn" viewBox="0 -2 24 23" fill="currentColor">
    <path fill-rule="evenodd" clip-rule="evenodd"
          d="m14.3158 0-.8947 1.77778-6.26321 2.66666v7.11116l6.26321 2.6666.8947 1.7778h1.7895v-6.46354c.2715-.15577.4971-.3797.6542-.64935.157-.26966.2399-.57558.2405-.88711-.0002-.31183-.0831-.6181-.2401-.88809s-.3828-.49419-.6546-.6501v-6.46181zm-12.52633 4.44444c-.984207 0-1.78947.8-1.78947 1.77778v3.55556c0 .97782.805263 1.77782 1.78947 1.77782h1.78948v4.4444h1.78947v-6.22222-5.33334z" />
  </symbol>
  <symbol id="icon-blog" viewBox="0 0 24 24" fill="currentColor">
    <path
      d="M17 2L14.5 4.5L19.5 9.5L22 7L17 2ZM12.8919 6.17155C12.4854 6.15967 12.0736 6.29633 11.7461 6.58008L11.7445 6.57682C10.8628 7.45849 9.5 7.83333 7.83333 7.83333C6.46667 7.83333 5.56098 8.67493 5.08431 10.2666C3.65598 15.0391 2.54272 18.4389 2.16439 19.6139L2.16927 19.6156C2.06344 19.8331 2 20.075 2 20.3333C2 20.4817 2.02602 20.6223 2.06185 20.7598L8.72852 14.0931C8.69268 13.9556 8.66667 13.815 8.66667 13.6667C8.66667 12.7458 9.4125 12 10.3333 12C10.7933 12 11.21 12.1866 11.5117 12.4883C11.8134 12.7899 12 13.2067 12 13.6667C12 14.5875 11.2542 15.3333 10.3333 15.3333C10.185 15.3333 10.0444 15.3073 9.9069 15.2715L3.24023 21.9382C3.37773 21.974 3.51833 22 3.66667 22C3.925 22 4.16694 21.9374 4.38444 21.8324L4.38607 21.8356C5.56107 21.4573 8.9609 20.3457 13.7334 18.9173C15.3251 18.4398 16.1667 17.5333 16.1667 16.1667C16.1667 14.5 16.5415 13.1372 17.4232 12.2555L17.4199 12.2539C17.9874 11.5989 17.9676 10.6099 17.3451 9.98828L15.6784 8.32162L14.0117 6.65495C13.7005 6.3437 13.2985 6.18342 12.8919 6.17155Z" />
  </symbol>
  <symbol id="icon-partnership" viewBox="-2 -2 24 24" fill="currentColor">
    <path fill-rule="evenodd" clip-rule="evenodd"
          d="M10 20C15.5228 20 20 15.5228 20 10C20 4.47715 15.5228 0 10 0C4.47715 0 0 4.47715 0 10C0 15.5228 4.47715 20 10 20ZM11.5716 7.33688L10.4755 3.96353C10.3259 3.50287 9.67415 3.50287 9.52447 3.96353L8.4284 7.33688C8.36146 7.54289 8.16949 7.68237 7.95287 7.68237H4.40592C3.92156 7.68237 3.72017 8.30218 4.11203 8.58688L6.98157 10.6717C7.15682 10.7991 7.23015 11.0247 7.16321 11.2307L6.06714 14.6041C5.91746 15.0648 6.4447 15.4478 6.83656 15.1631L9.70611 13.0783C9.88135 12.9509 10.1186 12.9509 10.2939 13.0783L13.1634 15.1631C13.5553 15.4478 14.0825 15.0648 13.9329 14.6041L12.8368 11.2307C12.7699 11.0247 12.8432 10.7991 13.0184 10.6717L15.888 8.58688C16.2798 8.30218 16.0784 7.68237 15.5941 7.68237H12.0471C11.8305 7.68237 11.6385 7.54289 11.5716 7.33688Z" />
  </symbol>
  <symbol id="icon-logout" viewBox="0 0 24 24" fill="currentColor">
    <path
      d="M19 3H5C3.895 3 3 3.895 3 5V19C3 20.105 3.895 21 5 21H19C20.105 21 21 20.105 21 19V5C21 3.895 20.105 3 19 3ZM19.707 12.707L16.407 16.007C16.212 16.202 15.956 16.3 15.7 16.3C15.444 16.3 15.188 16.202 14.993 16.007C14.602 15.616 14.602 14.984 14.993 14.593L16.586 13H9C8.447 13 8 12.553 8 12C8 11.447 8.447 11 9 11H16.586L14.993 9.407C14.602 9.016 14.602 8.384 14.993 7.993C15.384 7.602 16.016 7.602 16.407 7.993L19.707 11.293C20.098 11.684 20.098 12.316 19.707 12.707Z" />
  </symbol>
  <symbol id="icon-steam" viewBox="0 0 16 12" fill="currentColor">
    <path
      d="M12.296 0a3.61 3.61 0 0 0-1.378.261 3.563 3.563 0 0 0-1.17.765c-.333.33-.598.72-.777 1.15a3.459 3.459 0 0 0-.265 1.357v.092l-2.28 3.279a2.212 2.212 0 0 0-1.578.436L1.376 5.93A1 1 0 0 0 0 6.856v.945a1 1 0 0 0 .628.928L3.796 10a2.5 2.5 0 0 0 .555 1.105c.276.318.627.562 1.023.712.64.249 1.35.244 1.986-.014a2.632 2.632 0 0 0 1.419-1.367c.14-.32.2-.667.175-1.015l3.332-2.335h.082a3.61 3.61 0 0 0 1.397-.25 3.564 3.564 0 0 0 1.185-.768c.34-.331.607-.726.787-1.162a3.524 3.524 0 0 0-.033-2.744 3.573 3.573 0 0 0-.808-1.154 3.64 3.64 0 0 0-1.198-.76 3.683 3.683 0 0 0-1.402-.247zM8.17 10.265c-.1.24-.25.457-.438.64a1.964 1.964 0 0 1-1.43.55 1.985 1.985 0 0 1-.762-.175 1.887 1.887 0 0 1-1.032-.944l1.176.538c.352.113.735.092 1.072-.06.337-.152.604-.423.747-.76a1.43 1.43 0 0 0 .025-1.056 1.46 1.46 0 0 0-.71-.794l-1.227-.518a2.095 2.095 0 0 1 2.143.48 2 2 0 0 1 .488 2.109l-.052-.01zm4.126-4.396a2.4 2.4 0 0 1-1.318-.393 2.344 2.344 0 0 1-.874-1.048 2.3 2.3 0 0 1-.135-1.35 2.33 2.33 0 0 1 .65-1.195 2.408 2.408 0 0 1 2.586-.506c.433.177.803.476 1.064.86.26.384.4.836.4 1.297a2.232 2.232 0 0 1-.673 1.673c-.222.22-.488.39-.78.505a2.334 2.334 0 0 1-.92.157z" />
    <path
      d="M13.766 3.879a1.461 1.461 0 0 0-1.112-1.754 1.486 1.486 0 0 0-1.782 1.095 1.461 1.461 0 0 0 1.113 1.754 1.485 1.485 0 0 0 1.781-1.095z" />
  </symbol>
  <symbol id="icon-offers" viewBox="0 0 24 23" fill="currentColor">
    <rect width="12" height="12" rx="6" />
    <path
      d="M8.93078 5.73261L7.45496 3.25668C7.40719 3.18014 7.34046 3.11653 7.26089 3.07168C7.18133 3.02683 7.09148 3.00218 6.99959 3H4.06989C3.97277 3.00259 3.87811 3.03027 3.79557 3.08021H3.80106C3.72627 3.12366 3.66545 3.18664 3.62549 3.26203L3.07686 4.19786C3.03731 4.26352 3.01646 4.33829 3.01646 4.41443C3.01646 4.49058 3.03731 4.56534 3.07686 4.63101L3.74071 5.74865C3.78367 5.82561 3.80452 5.91244 3.80106 5.99999C3.80151 6.08957 3.77888 6.17783 3.73522 6.25667L3.0604 7.36896C3.02085 7.43463 3 7.50939 3 7.58554C3 7.66168 3.02085 7.73645 3.0604 7.80211L3.60903 8.73794C3.65074 8.81211 3.71116 8.87469 3.7846 8.91976H3.80106C3.8836 8.9697 3.97826 8.99738 4.07537 8.99997H7.01605C7.1086 9.00095 7.19971 8.97764 7.27983 8.93247C7.35995 8.88731 7.42613 8.82196 7.47142 8.74329L8.92529 6.26202C8.97327 6.18183 8.99901 6.09084 8.99997 5.99802C9.00093 5.90519 8.97709 5.81372 8.93078 5.73261ZM7.1971 6.26736L6.5936 7.2941C6.54583 7.37064 6.4791 7.43425 6.39954 7.4791C6.31997 7.52395 6.23012 7.5486 6.13824 7.55078H4.93124C4.85546 7.54968 4.78074 7.5333 4.71179 7.50265L5.44696 6.26202C5.49511 6.18072 5.52046 6.08851 5.52046 5.99464C5.52046 5.90077 5.49511 5.80855 5.44696 5.72726L4.7063 4.50267C4.76678 4.47539 4.83185 4.45908 4.89832 4.45454H6.11629C6.20884 4.45356 6.29995 4.47687 6.38007 4.52204C6.46019 4.5672 6.52637 4.63255 6.57166 4.71122L7.18064 5.73261C7.22737 5.80995 7.25336 5.89752 7.25624 5.98724C7.25912 6.07695 7.23878 6.16593 7.1971 6.24597V6.26736Z"
      fill="#1D1F20" />
    <path fill-rule="evenodd" clip-rule="evenodd"
          d="M22 2C22 1.44772 21.5523 1 21 1L15 1C14.4477 1 14 1.44771 14 2C14 2.55228 14.4477 3 15 3L20 3L20 8C20 8.55228 20.4477 9 21 9C21.5523 9 22 8.55228 22 8L22 2Z" />
    <path fill-rule="evenodd" clip-rule="evenodd"
          d="M2 21C2 21.5523 2.44771 22 3 22L9 22C9.55228 22 10 21.5523 10 21C10 20.4477 9.55228 20 9 20L4 20L4 15C4 14.4477 3.55228 14 3 14C2.44771 14 2 14.4477 2 15L2 21Z" />
    <rect x="12" y="11" width="12" height="12" rx="6" />
    <path fill-rule="evenodd" clip-rule="evenodd"
          d="M19.4013 13.8119C19.6443 13.7141 19.9047 13.6649 20.1672 13.6671C20.4336 13.6619 20.6983 13.7087 20.9462 13.8047C21.1941 13.9007 21.4202 14.0441 21.6115 14.2265C21.8028 14.409 21.9555 14.627 22.0607 14.8678C22.1659 15.1086 22.2216 15.3676 22.2246 15.6298C22.2285 15.891 22.1789 16.1503 22.0788 16.3923C21.9786 16.6343 21.83 16.8539 21.6417 17.0381C21.4535 17.2223 21.2294 17.3673 20.983 17.4645C20.7366 17.5617 20.4728 17.609 20.2073 17.6037H20.1615L18.3104 18.9008C18.3239 19.0938 18.2905 19.2871 18.213 19.4648C18.0601 19.8088 17.7775 20.081 17.4247 20.2241C17.072 20.3671 16.6765 20.3699 16.3218 20.2318C16.1018 20.1487 15.9063 20.0128 15.7532 19.8365C15.6001 19.6602 15.4941 19.4491 15.4449 19.2223L13.837 18.5773C13.5343 18.4559 13.3359 18.1626 13.3359 17.8364C13.3359 17.2699 13.9097 16.8836 14.4346 17.0968L16.0295 17.7447C16.2787 17.555 16.5931 17.4681 16.9063 17.5022L18.1728 15.6805V15.6298C18.1706 15.3714 18.2206 15.1152 18.32 14.876C18.4194 14.6369 18.5662 14.4197 18.7519 14.237C18.9375 14.0543 19.1583 13.9098 19.4013 13.8119ZM17.6314 19.7241C17.736 19.623 17.8188 19.5022 17.8748 19.3689L17.9035 19.3746C17.9751 19.174 17.9877 18.9576 17.9398 18.7503C17.8918 18.543 17.7854 18.3533 17.6326 18.203C17.4799 18.0527 17.2871 17.9479 17.0764 17.9007C16.8658 17.8536 16.6459 17.8659 16.4421 17.9364L17.1241 18.224C17.3071 18.317 17.4478 18.4744 17.5183 18.6649C17.5887 18.8553 17.5837 19.0649 17.5043 19.2519C17.4248 19.4389 17.2767 19.5896 17.0894 19.6739C16.9021 19.7583 16.6895 19.7702 16.4937 19.7073L15.8404 19.4084C15.9559 19.6491 16.1611 19.8369 16.4134 19.9329C16.5466 19.9932 16.6908 20.0264 16.8373 20.0305C16.9838 20.0347 17.1297 20.0097 17.2661 19.957C17.4026 19.9044 17.5268 19.8251 17.6314 19.7241ZM19.4349 16.7083C19.6517 16.8508 19.9065 16.9269 20.1672 16.9269C20.3418 16.9324 20.5157 16.9026 20.6781 16.8393C20.8406 16.7761 20.9881 16.6808 21.1117 16.5592C21.2352 16.4376 21.3321 16.2924 21.3963 16.1326C21.4606 15.9727 21.4909 15.8016 21.4853 15.6298C21.4853 15.3732 21.408 15.1224 21.2632 14.9091C21.1183 14.6958 20.9125 14.5295 20.6716 14.4314C20.4308 14.3332 20.1657 14.3075 19.9101 14.3576C19.6544 14.4076 19.4195 14.5311 19.2352 14.7126C19.0508 14.894 18.9253 15.1251 18.8744 15.3767C18.8236 15.6283 18.8497 15.8891 18.9494 16.1262C19.0492 16.3632 19.2181 16.5658 19.4349 16.7083ZM20.366 14.8474C20.81 14.9485 21.0868 15.3847 20.9841 15.8217C20.8814 16.2587 20.4382 16.531 19.9941 16.43C19.5501 16.3289 19.2733 15.8927 19.376 15.4557C19.4787 15.0187 19.9219 14.7464 20.366 14.8474Z"
          fill="#1D1F20" />
  </symbol>
  <symbol id="icon-link" viewBox="0 0 22 22" fill="currentColor">
    <path
      d="M4.87904 16.3346C3.66988 15.1255 3.66988 13.1597 4.87904 11.9505L7.70746 9.12212L6.36396 7.77862L3.53553 10.607C1.58392 12.5587 1.58392 15.7265 3.53553 17.6781C5.48715 19.6297 8.65499 19.6297 10.6066 17.6781L13.435 14.8497L12.0915 13.5062L9.2631 16.3346C8.05395 17.5438 6.08819 17.5438 4.87904 16.3346ZM8.48528 14.1426L14.1421 8.48572L12.7279 7.07151L7.07107 12.7284L8.48528 14.1426ZM10.6066 3.53597L7.77818 6.3644L9.12168 7.7079L11.9501 4.87948C13.1593 3.67032 15.125 3.67032 16.3342 4.87948C17.5433 6.08863 17.5433 8.05439 16.3342 9.26354L13.5057 12.092L14.8492 13.4355L17.6777 10.607C19.6293 8.65543 19.6293 5.48759 17.6777 3.53597C15.7261 1.58436 12.5582 1.58436 10.6066 3.53597Z" />
  </symbol>
  <symbol id="icon-delivery-success" viewBox="0 0 21 20" fill="currentColor">
    <path fill-rule="evenodd" clip-rule="evenodd"
          d="M16.5 0C16.7761 0 17 0.223858 17 0.5C17 0.776142 16.7761 1 16.5 1H14.5C14.2239 1 14 0.776142 14 0.5C14 0.223858 14.2239 0 14.5 0H16.5ZM13.3877 12.5704L17.8599 8.24252C18.0473 8.06113 18.0473 7.76477 17.8599 7.58338L10.1641 0.136045C9.9767 -0.0453482 9.67045 -0.0453482 9.483 0.136045L5.01075 4.46393C4.82331 4.64532 4.82331 4.94168 5.01075 5.12307L12.7065 12.5704C12.894 12.7518 13.1976 12.7518 13.3877 12.5704ZM2.54504 9.8572C1.13947 9.8572 2.67029e-05 8.75455 2.67029e-05 7.39435C2.67029e-05 6.03415 1.13947 4.93149 2.54504 4.93149C3.95061 4.93149 5.09004 6.03415 5.09004 7.39435C5.09004 8.75455 3.95061 9.8572 2.54504 9.8572ZM6.91296 8.75349C6.35855 8.45713 5.64573 8.57465 5.26556 9.06774C4.71643 9.77798 4.37586 10.92 4.98043 11.7554C5.3744 12.3002 5.83574 12.8409 6.22828 13.3009C6.76167 13.926 7.16803 14.4022 7.10567 14.5376C7.07755 14.5973 6.91706 14.6128 6.69569 14.6343C6.04442 14.6974 4.86616 14.8117 4.98043 16.2494C5.00755 16.5847 5.01923 16.9195 5.03052 17.2432C5.08408 18.779 5.129 20.0669 6.77304 19.9973C8.35031 19.9285 8.33139 18.1401 8.32119 17.1768C8.31852 16.9243 8.31645 16.7285 8.34386 16.6351C8.37762 16.5202 8.62857 16.4038 8.96749 16.2467C9.95387 15.7895 11.6853 14.9869 10.976 12.8668C10.279 10.7846 8.0561 9.36665 6.91296 8.75349ZM13.2594 15.4957C13.0218 15.5059 12.8053 15.3833 12.6918 15.1814C12.4014 14.6628 11.8522 13.8069 11.7202 14.4942C11.5856 15.207 10.6774 15.9836 10.2444 16.3183C10.1203 16.4129 10.1071 16.5891 10.2154 16.7016C10.6616 17.1691 11.8073 18.26 13.1115 18.6253C14.8645 19.1184 16.3878 17.8563 16.1898 16.5278C16.0367 15.4906 14.1015 15.4599 13.2594 15.4957ZM19 3.5C19 3.22386 18.7761 3 18.5 3H16.5C16.2239 3 16 3.22386 16 3.5C16 3.77614 16.2239 4 16.5 4H18.5C18.7761 4 19 3.77614 19 3.5ZM20.5 6C20.7761 6 21 6.22386 21 6.5C21 6.77614 20.7761 7 20.5 7H18.5C18.2239 7 18 6.77614 18 6.5C18 6.22386 18.2239 6 18.5 6H20.5Z" />
  </symbol>
  <symbol id="icon-delivery-warning" viewBox="0 0 17 20" fill="currentColor">
    <path
      d="M11.1865 5C9.8058 5 8.68652 3.88071 8.68652 2.5C8.68652 1.11929 9.8058 0 11.1865 0C12.5672 0 13.6865 1.11929 13.6865 2.5C13.6865 3.88071 12.5672 5 11.1865 5Z" />
    <path
      d="M10.2621 5.94492C11.9263 5.93972 12.4189 5.89813 12.5107 9.09025C12.605 12.3812 13.1134 13.3429 10.8885 14.0812C8.12369 15.0014 11.9263 19.7532 8.83912 19.9975C6.97584 20.1457 6.04289 13.5821 8.20493 12.6385C8.66879 12.4357 9.34754 12.0042 9.28726 11.253C9.17719 9.90907 9.08022 8.54696 8.00313 9.42558C6.45694 10.6863 3.09726 10.8631 3.28595 9.3138C3.45367 7.9283 4.40497 9.3138 7.07018 7.72294C8.33858 6.9639 9.55718 5.94752 10.2621 5.94492Z" />
    <path
      d="M0.815107 1.68188H7.21475C7.6655 1.68188 8.02979 2.0432 8.02979 2.49031V6.47786C7.95641 6.52725 7.08634 7.15112 6.69062 7.34348C4.36609 8.47164 2.69411 7.36427 2.69411 9.36064C2.69411 11.5715 6.7509 11.0997 8.02979 10.1405V11.383C8.02979 11.8301 7.6655 12.1914 7.21475 12.1914H0.815107C0.364354 12.1914 8.67844e-05 11.8301 8.67844e-05 11.383V2.49031C8.67844e-05 2.0432 0.364354 1.68188 0.815107 1.68188Z" />
    <path
      d="M13.1752 13.1429C12.6641 13.1923 13.0197 13.4749 12.3252 14C11.6334 14.5251 11.0136 14.4518 11.0503 14.7143C11.1132 15.1822 11.8881 16.6105 12.6769 17.3695C13.906 18.5549 16.4716 19.4569 16.9381 17.8894C17.4491 16.1764 14.6398 16.2881 14.2362 15.3367C13.9951 14.7675 13.6495 13.0961 13.1752 13.1429Z" />
  </symbol>
  <symbol id="icon-delivery-error" viewBox="0 0 22 16" fill="currentColor">
    <path
      d="M9.62705 5.30006C10.2696 5.30006 10.8885 5.07108 11.373 4.65685C12.4711 3.71519 12.5791 2.07886 11.6153 1.00598C11.1123 0.447677 10.3881 0.126068 9.62441 0.126068C8.98186 0.126068 8.36301 0.355051 7.87846 0.769279C6.78032 1.71094 6.67236 3.34727 7.63619 4.42015C8.13917 4.97846 8.86336 5.30006 9.62705 5.30006Z" />
    <path
      d="M9.62364 0.257285C9.01269 0.257285 8.42544 0.473402 7.96459 0.867048C7.45898 1.29929 7.15877 1.89876 7.11401 2.55483C7.06924 3.21091 7.29044 3.84126 7.73285 4.33525C8.2095 4.86783 8.89945 5.17142 9.62364 5.17142C10.2346 5.17142 10.8219 4.9553 11.2827 4.56165C11.7883 4.12941 12.0885 3.52994 12.1333 2.87386C12.1781 2.21779 11.9568 1.58745 11.5144 1.09346C11.0378 0.56088 10.3478 0.257285 9.62364 0.257285ZM9.62364 0C10.3952 0 11.1642 0.311313 11.7119 0.923651C12.7232 2.05056 12.6099 3.76664 11.4565 4.75461C10.9298 5.20743 10.2741 5.42871 9.62364 5.42871C8.85205 5.42871 8.0831 5.11738 7.53535 4.50505C6.52411 3.37814 6.63736 1.66206 7.7908 0.674084C8.32011 0.221263 8.97319 0 9.62364 0Z" />
    <path
      d="M14.317 16H21.6811C21.8575 16 21.999 15.8373 21.999 15.6389V4.36105C21.999 4.16069 21.8558 4 21.6811 4H14.317C14.1405 4 13.999 4.16267 13.999 4.36105V15.6389C13.999 15.8393 14.1423 16 14.317 16Z" />
    <path
      d="M3.21091 11.4111C5.14399 9.93557 7.62102 11.9407 7.94566 11.8912C8.12864 11.8621 8.03421 11.152 8.05192 10.212C7.62694 10.2877 6.59898 10.3314 5.92609 10.3081C3.40569 10.2266 1.42538 8.28838 2.05105 6.89728C2.67673 5.50619 4.05203 7.77036 5.67524 7.7267C6.30976 7.70924 6.96198 7.6132 7.52272 7.49679C7.95951 7.40657 8.34319 7.18831 8.69734 6.92348C9.44402 6.3618 10.5094 6.19883 11.3181 6.32688C11.9231 6.42292 12.3658 6.94385 12.4189 7.54627C12.5517 9.0334 13.0652 12.3918 11.3122 14.656C9.01608 17.6215 5.64867 14.6094 5.05841 14.5774C4.42389 14.5425 1.87693 17.2432 0.448512 15.2904C-0.976955 13.3376 1.27487 12.8865 3.21091 11.4111Z" />
  </symbol>
  <symbol id="icon-claim" viewBox="0 0 23 32" fill="currentColor">
    <path fill-rule="evenodd" clip-rule="evenodd"
          d="M12.0992 0.292893C11.7087 -0.0976311 11.0755 -0.0976311 10.685 0.292893L5.68498 5.29289C5.29446 5.68342 5.29446 6.31658 5.68498 6.70711C6.07551 7.09763 6.70867 7.09763 7.0992 6.70711L10.3921 3.41421V12C10.3921 12.5523 10.8398 13 11.3921 13C11.9444 13 12.3921 12.5523 12.3921 12V3.41421L15.685 6.70711C16.0755 7.09763 16.7087 7.09763 17.0992 6.70711C17.4897 6.31658 17.4897 5.68342 17.0992 5.29289L12.0992 0.292893ZM7.06218 9.49998C7.33832 9.97828 7.17444 10.5899 6.69615 10.866L2.99999 13L11.3923 17.8453L19.7846 13L16.0885 10.866C15.6102 10.5899 15.4463 9.97828 15.7224 9.49998C15.9986 9.02169 16.6102 8.85782 17.0885 9.13396L21.7846 11.8453C22.4034 12.2025 22.7846 12.8628 22.7846 13.5773V24.4226C22.7846 25.1372 22.4034 25.7974 21.7846 26.1547L12.3923 31.5773C11.7735 31.9346 11.0111 31.9346 10.3923 31.5773L1 26.1547C0.381199 25.7974 0 25.1372 0 24.4226V13.5773C0 12.8628 0.381197 12.2025 1 11.8453L5.69615 9.13396C6.17444 8.85782 6.78604 9.02169 7.06218 9.49998ZM2 24.4226V14.732L10.3921 19.5772V29.2678L2 24.4226ZM12.3921 29.2681L20.7846 24.4226V14.732L12.3923 19.5773L12.3921 19.5775V29.2681Z" />
  </symbol>
  <symbol id="icon-goblet" viewBox="0 0 20 18" fill="currentColor">
    <path
      d="M19.9998 1.89474C19.9895 1.73551 19.9191 1.58621 19.803 1.47724C19.6869 1.36826 19.5338 1.30778 19.3748 1.30812H15.5374V0.627396C15.5374 0.461 15.4715 0.30142 15.3543 0.18376C15.2371 0.0661006 15.0782 0 14.9124 0H5.0876C4.92184 0 4.76287 0.0661006 4.64566 0.18376C4.52846 0.30142 4.46261 0.461 4.46261 0.627396V1.30812H0.625185C0.466233 1.30778 0.313124 1.36826 0.197017 1.47724C0.0809097 1.58621 0.0105294 1.73551 0.000197761 1.89474C0.000197761 1.89474 0.000197761 1.99826 0.000197761 2.17707C-0.00961894 3.54409 0.346201 4.8887 1.03053 6.07062C1.71486 7.25253 2.70262 8.22842 3.89075 8.89648L5.87508 10.0195C6.51711 10.7361 7.33644 11.2697 8.25004 11.5661V13.6804H6.33757C6.17182 13.6804 6.01285 13.7465 5.89564 13.8641C5.77843 13.9818 5.71258 14.1414 5.71258 14.3078V17.3726C5.71258 17.539 5.77843 17.6986 5.89564 17.8162C6.01285 17.9339 6.17182 18 6.33757 18H13.6624C13.8282 18 13.9872 17.9339 14.1044 17.8162C14.2216 17.6986 14.2874 17.539 14.2874 17.3726V14.3078C14.2874 14.1414 14.2216 13.9818 14.1044 13.8641C13.9872 13.7465 13.8282 13.6804 13.6624 13.6804H11.75V11.5661C12.6636 11.2697 13.4829 10.7361 14.1249 10.0195L16.1093 8.89648C17.2974 8.22842 18.2851 7.25253 18.9695 6.07062C19.6538 4.8887 20.0096 3.54409 19.9998 2.17707C19.9998 1.99826 19.9998 1.89474 19.9998 1.89474ZM4.50636 7.80481C3.56626 7.27885 2.77443 6.5221 2.20495 5.60534C1.63548 4.68859 1.30697 3.6418 1.25017 2.56291H4.46261V6.35552C4.462 6.8865 4.53778 7.41478 4.68761 7.92401L4.50636 7.80481ZM15.4936 7.80481L15.3124 7.90833C15.4622 7.3991 15.538 6.87082 15.5374 6.33984V2.56291H18.7498C18.693 3.6418 18.3645 4.68859 17.795 5.60534C17.2256 6.5221 16.4337 7.27885 15.4936 7.80481Z"
      fill="currentColor" />
  </symbol>
  <symbol id="icon-nft-explorer" viewBox="0 0 20 22" fill="currentColor">
    <path fill-rule="evenodd" clip-rule="evenodd"
          d="M11.0021 0.263956C10.4487 -0.0879852 9.55132 -0.0879855 8.99786 0.263956L0.415102 5.72158C-0.138367 6.07352 -0.138367 6.64413 0.415102 6.99607L8.99786 12.4537C9.55132 12.8056 10.4487 12.8056 11.0021 12.4537L19.5849 6.99607C20.1384 6.64413 20.1384 6.07352 19.5849 5.72158L11.0021 0.263956Z"
          fill="currentColor" />
    <path fill-rule="evenodd" clip-rule="evenodd"
          d="M0.44431 10.1867C0.717919 9.78009 1.27243 9.67022 1.68284 9.94128L10.1186 15.5127L18.5543 9.94128C18.9648 9.67022 19.5193 9.78009 19.7929 10.1867C20.0665 10.5933 19.9556 11.1426 19.5452 11.4137L10.614 17.3122C10.314 17.5104 9.92318 17.5104 9.62318 17.3122L0.692016 11.4137C0.281604 11.1426 0.170702 10.5933 0.44431 10.1867ZM0.44431 14.7258C0.717919 14.3192 1.27243 14.2094 1.68284 14.4804L10.1186 20.0518L18.5543 14.4804C18.9648 14.2094 19.5193 14.3192 19.7929 14.7258C20.0665 15.1324 19.9556 15.6818 19.5452 15.9528L10.614 21.8514C10.314 22.0495 9.92318 22.0495 9.62318 21.8514L0.692016 15.9528C0.281604 15.6818 0.170702 15.1324 0.44431 14.7258Z"
          fill="currentColor" />
  </symbol>
  <symbol id="icon-trading-api" viewBox="0 0 20 17" fill="currentColor">
    <path fill-rule="evenodd" clip-rule="evenodd"
          d="M0 1C0 0.447715 0.447715 0 1 0H19C19.5523 0 20 0.447715 20 1V16C20 16.5523 19.5523 17 19 17H1C0.447715 17 0 16.5523 0 16V1ZM4.64343 8.71429H6.98603L7.43293 10H8.65829L6.40219 4H5.2489L3 10H4.19653L4.64343 8.71429ZM5.81834 5.36286L6.61843 7.66H5.01825L5.81834 5.36286ZM13.2471 4.26571C12.9203 4.08857 12.5335 4 12.0866 4H9.90258V10H11.0703V8.34571H12.0866C12.5335 8.34571 12.9203 8.26 13.2471 8.08857C13.5787 7.91143 13.8334 7.66 14.0112 7.33429C14.189 7.00286 14.2778 6.61714 14.2778 6.17714C14.2778 5.73143 14.189 5.34571 14.0112 5.02C13.8334 4.69429 13.5787 4.44286 13.2471 4.26571ZM12.8218 6.94857C12.6392 7.12571 12.3725 7.21429 12.0217 7.21429H11.0703V5.13143H12.0217C12.3725 5.13143 12.6392 5.22286 12.8218 5.40571C13.0044 5.58286 13.0957 5.84 13.0957 6.17714C13.0957 6.50857 13.0044 6.76571 12.8218 6.94857ZM15.8323 4H17V10H15.8323V4ZM5 13H3V15H5V13ZM9 13H7V15H9V13ZM11 13H13V15H11V13ZM17 13H15V15H17V13Z"
          fill="currentColor" />
  </symbol>
  <symbol id="icon-bargain" width="26" height="26" viewBox="0 0 26 16" fill="currentColor"
  >
    <path
      d="M16.8385 0.555222C14.8771 -0.341146 11.9718 -0.066955 11.0543 0.771389C10.9805 0.839937 10.9014 0.91904 10.8223 0.992834C10.158 1.64668 9.06652 2.77501 8.4707 3.41302C8.05941 3.85595 8.06997 4.53612 8.4865 4.96848C8.89779 5.39557 9.57796 5.43248 10.0314 5.04755L12.5518 2.92266C12.768 2.7381 13.0896 2.75921 13.2794 2.9701C14.2549 4.02464 18.4361 8.54864 20.155 10.5259C20.329 10.3783 20.5136 10.1568 20.6823 9.94593C20.9459 9.61902 21.2148 9.28156 21.5576 9.09175V1.36721C20.5716 1.38829 18.5205 1.32502 16.8385 0.555222Z"
      fill="white" />
    <path d="M2.61834 0.00195312H0V9.999H2.61834V0.00195312Z" fill="white" />
    <path
      d="M12.8462 4.05387L10.7088 5.85556C9.83391 6.59343 8.52449 6.527 7.72895 5.70417C6.92105 4.86847 6.90766 3.54771 7.69805 2.69759C8.07793 2.28907 8.5306 1.8084 8.98305 1.34131H3.67297V9.34805L10.4168 15.3449C10.9374 15.8078 11.5985 16.0441 12.2257 15.9932C12.6057 15.9628 12.8137 15.8462 12.9376 15.7187L10.356 13.5041C10.1351 13.3146 10.1099 12.9814 10.2994 12.7605C10.4889 12.5396 10.8225 12.5144 11.0429 12.7039L14.3296 15.5236C14.6216 15.7754 15.0031 15.8783 15.3265 15.7893C15.4868 15.7469 15.7979 15.6555 15.7589 15L12.4311 12.2245C12.2077 12.0381 12.1773 11.7055 12.3642 11.482C12.5501 11.258 12.8822 11.2276 13.1067 11.4151L17.2857 14.9005C17.5957 15.159 18.0488 15.1245 18.3166 14.8233C18.5864 14.52 18.5607 14.0514 18.2594 13.7785L14.1618 10.0742C13.946 9.87857 13.929 9.54542 14.1242 9.32916C14.3204 9.11341 14.6535 9.09694 14.8693 9.29157L18.9669 12.9964C19.0853 13.1035 19.1795 13.2262 19.2625 13.3546C19.4177 13.4082 19.6884 13.4116 19.8433 13.2492C20.0153 13.0674 20.3742 12.5788 19.9859 11.9635C19.7022 11.5248 15.5948 7.03059 12.8462 4.05387Z"
      fill="white" />
    <path d="M25.1113 0.00119019H22.6099V9.99823H25.1113V0.00119019Z" fill="white" />
  </symbol>
  <symbol id="icon-nft-tx" viewBox="0 0 9 13" fill="currentColor">
    <path d="M4.49878 9.26081L8.99756 6.51932L4.49878 0L0 6.51932L4.49878 9.26081Z" />
    <path d="M4.49878 12.7743L9 7.39844L4.49878 10.1374L0 7.39844L4.49878 12.7743Z" />
  </symbol>
  <symbol id="icon-tx" viewBox="0 0 24 24" fill="currentColor">
    <path d="M0 0h24v24H0z" fill="none" />
    <path
      d="M14 2H6c-1.1 0-1.99.9-1.99 2L4 20c0 1.1.89 2 1.99 2H18c1.1 0 2-.9 2-2V8l-6-6zm2 16H8v-2h8v2zm0-4H8v-2h8v2zm-3-5V3.5L18.5 9H13z" />
  </symbol>
  <symbol id="icon-navination-white" width="24" height="32" viewBox="0 0 28 36" fill="none"
  >
    <path d="M3.13903 26.3275V10.3855L9.06847 8.32458V24.2464L3.13903 26.3275Z" fill="white" />
    <path d="M20.1887 4.44517L14.3413 6.4859V12.1434L20.1887 19.4577V4.44517Z" fill="white" />
    <path d="M13.8284 22.5895L10.0943 17.9221V8.58725L19.7168 20.5286L13.8284 22.5895Z" fill="white" />
    <path fill-rule="evenodd" clip-rule="evenodd"
          d="M0 8.10232V30.7929L23.3279 22.6905V0L0 8.10232ZM0.964303 29.4391V8.7691L22.3636 1.35375V22.0238L0.964303 29.4391Z"
          fill="white" />
  </symbol>
  <symbol id="icon-maincast-white" width="21" height="26" viewBox="0 0 26 28" fill="none"
  >
    <path
      d="M15.1161 21.2481V11.3242L10.1652 16.1664C10.0702 16.1664 10.0147 16.1664 9.91766 16.1664L0 6.46463V0.119751C0.144567 0.061807 0.154468 0.0579441 0.299035 0L9.9137 9.4024C10.0127 9.40046 10.0662 9.39853 10.1652 9.39853L15.1161 4.31104H19.9046C19.972 4.37864 20.0116 4.41534 20.0789 4.48294V25.6885C19.9343 25.7484 19.9244 25.7523 19.7799 25.8102L15.1161 21.2481Z"
      fill="white" />
    <path
      d="M0.299035 25.8137L6.67977 19.5731L0.299035 13.3325C0.154468 13.3905 0.144567 13.3963 0 13.4542V25.692C0.144567 25.7499 0.154468 25.7557 0.299035 25.8137Z"
      fill="white" />
  </symbol>
  <symbol id="icon-cashout" viewBox="0 0 20 20" fill="currentColor">
    <path fill-rule="evenodd" clip-rule="evenodd"
          d="M4 0C1.79086 0 0 1.79086 0 4V16C0 18.2091 1.79086 20 4 20H16C18.2091 20 20 18.2091 20 16V4C20 1.79086 18.2091 0 16 0H4ZM11.1571 11.4196C11.3657 11.6341 11.4384 11.8885 11.3752 12.183C11.2993 12.5237 11.0718 12.7992 10.6925 13.0095C10.3132 13.2156 9.85496 13.3144 9.31766 13.306C8.75508 13.2976 8.33157 13.1651 8.04711 12.9085C7.76898 12.6519 7.64572 12.2692 7.67733 11.7603L5.00348 11.7539C4.96556 12.5783 5.23737 13.2555 5.81891 13.7855C6.40678 14.3113 7.25697 14.6288 8.36949 14.7382L7.99971 16H9.47885L9.84864 14.7445C11.0749 14.6604 12.0579 14.3933 12.7975 13.9432C13.5433 13.4932 13.9511 12.9022 14.0206 12.1703C14.1217 11.1525 13.4169 10.3407 11.9062 9.73502C11.5206 9.57939 11.0433 9.41115 10.4744 9.23028C9.91185 9.04942 9.52942 8.85594 9.32715 8.64984C9.13119 8.44374 9.06166 8.2061 9.11855 7.93691C9.18808 7.59201 9.39352 7.31441 9.73486 7.1041C10.0762 6.88959 10.4966 6.78654 10.9959 6.79495C11.9504 6.80757 12.3897 7.3102 12.3139 8.30284L14.9972 8.30915C15.0288 7.50578 14.7918 6.85174 14.2861 6.347C13.7867 5.84227 13.0566 5.52261 12.0958 5.38801L12.494 4H11.0054L10.6167 5.35016C9.40932 5.43428 8.4327 5.70768 7.68681 6.17035C6.94091 6.62881 6.5332 7.21977 6.46367 7.94322C6.36885 8.88959 6.96936 9.653 8.26519 10.2334C8.68871 10.4227 9.22285 10.6141 9.8676 10.8076C10.5187 11.0011 10.9485 11.205 11.1571 11.4196Z" />
  </symbol>

  <!--  <symbol fill="currentColor" id="icon-rarity" width="36" height="32" viewBox="0 0 36 32" >
      <g filter="url(#filter0_d_459_2)">
        <path d="M12.8383 10.3713C13.0281 10.1365 13.314 10 13.616 10H22.3897C22.7117 10 23.0139 10.155 23.2018 10.4165L25.2218 13.2276C25.4964 13.6097 25.4675 14.1316 25.1523 14.481L18.6671 21.6698C18.4775 21.88 18.2076 22 17.9246 22H17.4336C17.1421 22 16.8651 21.8728 16.6751 21.6517L10.5431 14.5145C10.2285 14.1483 10.2205 13.6096 10.524 13.2342L12.8383 10.3713Z" fill="url(#paint0_linear_459_2)"/>
        <path d="M12.8383 10.3713C13.0281 10.1365 13.314 10 13.616 10H22.3897C22.7117 10 23.0139 10.155 23.2018 10.4165L25.2218 13.2276C25.4964 13.6097 25.4675 14.1316 25.1523 14.481L18.6671 21.6698C18.4775 21.88 18.2076 22 17.9246 22H17.4336C17.1421 22 16.8651 21.8728 16.6751 21.6517L10.5431 14.5145C10.2285 14.1483 10.2205 13.6096 10.524 13.2342L12.8383 10.3713Z" fill="#FF84FF" fill-opacity="0.2"/>
      </g>
      <defs>
        <filter id="filter0_d_459_2" x="0.301758" y="0" width="35.1079" height="32" filterUnits="userSpaceOnUse" color-interpolation-filters="sRGB">
          <feFlood flood-opacity="0" result="BackgroundImageFix"/>
          <feColorMatrix in="SourceAlpha" type="matrix" values="0 0 0 0 0 0 0 0 0 0 0 0 0 0 0 0 0 0 127 0" result="hardAlpha"/>
          <feOffset/>
          <feGaussianBlur stdDeviation="5"/>
          <feComposite in2="hardAlpha" operator="out"/>
          <feColorMatrix type="matrix" values="0 0 0 0 0.968627 0 0 0 0 0.803922 0 0 0 0 0.403922 0 0 0 0.1 0"/>
          <feBlend mode="normal" in2="BackgroundImageFix" result="effect1_dropShadow_459_2"/>
          <feBlend mode="normal" in="SourceGraphic" in2="effect1_dropShadow_459_2" result="shape"/>
        </filter>
        <linearGradient id="paint0_linear_459_2" x1="25.3316" y1="11.2" x2="9.63659" y2="12.2171" gradientUnits="userSpaceOnUse">
          <stop stop-color="#FFDE65"/>
          <stop offset="1" stop-color="#BA5473"/>
        </linearGradient>
      </defs>
    </symbol>-->
  <symbol id="icon-rarity" fill="currentColor" viewBox="0 0 15.1 12"
          style="enable-background:new 0 0 15.1 12" xml:space="preserve">
    <linearGradient id="fill-rarity" gradientUnits="userSpaceOnUse" x1="15.326" y1="-12.638" x2="-.369" y2="-11.621"
                    gradientTransform="translate(0 18)">
    <stop offset="0" style="stop-color:#fedb65" />
      <stop offset="1" style="stop-color:#bd5b72" />
    </linearGradient>
    <path style="fill:url(#fill-rarity)"
          d="M2.5.4c.2-.2.5-.4.8-.4h8.8c.3 0 .6.2.8.4l2 2.8c.3.4.2.9-.1 1.3l-6.5 7.2c-.2.2-.5.3-.7.3h-.5c-.3 0-.6-.1-.8-.3L.2 4.6c-.3-.4-.3-.9 0-1.3L2.5.4z" />
  </symbol>
  <symbol id="icon-rarity-empty" viewBox="0 0 15 12" fill="none">
    <path
      d="M2.69975 0.388553C2.88912 0.143493 3.18134 0 3.49104 0H11.807C12.1365 0 12.4448 0.162265 12.6313 0.433825L14.5635 3.24693C14.8207 3.62137 14.7932 4.12213 14.4966 4.46615L8.29918 11.653C8.10922 11.8733 7.83275 12 7.54187 12H7.13942C6.84013 12 6.55658 11.8659 6.36663 11.6347L0.505637 4.49804C0.209757 4.13776 0.202085 3.62083 0.487143 3.25193L2.69975 0.388553Z"
      fill="#4F4F50" />
  </symbol>


  <symbol id="icon-advanced" fill="currentColor" viewBox="0 0 15.1 12"
          xml:space="preserve">
    <linearGradient id="fill-advanced" gradientUnits="userSpaceOnUse" x1="15.326" y1="-12.638" x2="-.369" y2="-11.621"
                    gradientTransform="translate(0 18)">
    <stop offset="0" style="stop-color:#e9a2d2" />
      <stop offset="1" style="stop-color:#df678f" />
    </linearGradient>
    <path style="fill:url(#fill-advanced)"
          d="M2.5.4c.2-.2.5-.4.8-.4h8.8c.3 0 .6.2.8.4l2 2.8c.3.4.2.9-.1 1.3l-6.5 7.2c-.2.2-.5.3-.7.3h-.5c-.3 0-.6-.1-.8-.3L.2 4.6c-.3-.4-.3-.9 0-1.3L2.5.4z" />
  </symbol>

  <symbol id="icon-eth" fill="currentColor" height="21" viewBox="0 0 13 21" width="20"
  >
    <path d="M6.5 14.4732L13 10.2442L6.5 0.1875L0 10.2442L6.5 14.4732Z" />
    <path d="M6.49824 20.1875L13 11.6161L6.49824 15.9832L0 11.6161L6.49824 20.1875Z" />
  </symbol>

  <symbol id="icon-showflake" fill="none" height="15" viewBox="0 0 15 15" width="15">
    <path
      d="M14.4019 11.5276L11.8713 10.0666L13.4093 9.6545L13.1269 8.60077L10.5353 9.29523L8.29182 7.99996L10.5352 6.70477L13.1269 7.39923L13.4093 6.34544L11.8713 5.93338L14.4019 4.47237L13.8564 3.52764L11.3259 4.98861L11.7379 3.45069L10.6842 3.16835L9.98981 5.76002L7.74639 7.05524L7.7464 4.46485L9.64362 2.56752L8.87223 1.79617L7.74639 2.92199L7.74638 1.2129e-05L6.65548 0L6.65549 2.92198L5.52963 1.79615L4.75825 2.5676L6.65548 4.46476L6.65552 7.05524L4.41211 5.76001L3.71761 3.16829L2.66392 3.45064L3.07599 4.9886L0.545469 3.5276L0 4.47238L2.53053 5.93338L0.992579 6.3455L1.27489 7.3992L3.86664 6.70479L6.11005 8.00002L3.86665 9.29522L1.27488 8.60073L0.992532 9.65452L2.53058 10.0666L1.28161e-05 11.5276L0.545472 12.4723L3.07596 11.0114L2.66388 12.5493L3.71762 12.8317L4.41203 10.24L6.65548 8.94475L6.65552 11.5352L4.75819 13.4325L5.5296 14.2038L6.65547 13.078L6.6555 16L7.74639 16L7.7464 13.078L8.87223 14.2039L9.64361 13.4324L7.7464 11.5352L7.74635 8.94474L9.98977 10.24L10.6842 12.8317L11.7379 12.5493L11.3259 11.0114L13.8564 12.4724L14.4019 11.5276Z"
      fill="#66ADF2" />
  </symbol>
  <symbol id="icon-magic-wand" viewBox="0 0 29 29" fill="currentColor">
    <path
      d="M16.3922 0.000372263C16.1636 0.00702698 15.9466 0.102508 15.7873 0.266546C15.6279 0.430583 15.5388 0.650259 15.5388 0.878935V4.2128C15.5388 4.4459 15.6314 4.66945 15.7963 4.83428C15.9611 4.9991 16.1846 5.0917 16.4177 5.0917C16.6508 5.0917 16.8744 4.9991 17.0392 4.83428C17.204 4.66945 17.2966 4.4459 17.2966 4.2128V0.878935C17.2966 0.76136 17.2731 0.64498 17.2273 0.536684C17.1815 0.428388 17.1145 0.330378 17.0301 0.248458C16.9458 0.166537 16.8459 0.10237 16.7363 0.0597573C16.6267 0.0171442 16.5097 -0.00304928 16.3922 0.000372263ZM3.52234 7.80361C3.30457 7.81084 3.09725 7.89869 2.94059 8.05014C2.78394 8.20158 2.68912 8.40582 2.67453 8.62322C2.65995 8.84062 2.72664 9.05569 2.86166 9.2267C2.99668 9.39771 3.19041 9.51247 3.40527 9.54872L5.45047 10.2306C5.68033 10.2693 5.91619 10.2152 6.10614 10.0801C6.29609 9.94493 6.42459 9.73988 6.46335 9.51001C6.50212 9.28014 6.44798 9.04429 6.31285 8.85434C6.17773 8.66438 5.97267 8.53589 5.7428 8.49712L3.69743 7.81528C3.6396 7.80556 3.58095 7.80165 3.52234 7.80361ZM11.4643 7.92721L12.2498 12.3779C12.2808 12.5532 12.2578 12.7338 12.1839 12.8958C12.1099 13.0578 11.9885 13.1935 11.8358 13.2849L7.98247 15.591L12.4584 16.2052C12.6369 16.2297 12.8036 16.3085 12.9358 16.4309C13.068 16.5533 13.1595 16.7134 13.1977 16.8895L14.1534 21.2914L16.0914 17.2419C16.1688 17.08 16.294 16.9456 16.45 16.857C16.6061 16.7683 16.7856 16.7297 16.9643 16.7461L21.4277 17.1545L18.1831 14.027C18.0555 13.904 17.9681 13.7452 17.9324 13.5716C17.8966 13.398 17.9142 13.2177 17.9828 13.0542L19.7365 8.87478L15.8066 11.0288C15.6471 11.1162 15.4644 11.152 15.2837 11.1312C15.103 11.1104 14.9333 11.0341 14.7978 10.9127L11.4643 7.92721ZM27.6845 10.2287C27.6151 10.2263 27.5457 10.2321 27.4776 10.246L24.8877 10.9881C24.7741 11.0109 24.6661 11.0559 24.57 11.1205C24.4739 11.1852 24.3915 11.2682 24.3275 11.3648C24.2636 11.4615 24.2194 11.5698 24.1975 11.6835C24.1755 11.7973 24.1763 11.9142 24.1998 12.0277C24.2232 12.1412 24.2688 12.2489 24.3341 12.3446C24.3993 12.4404 24.4828 12.5223 24.5798 12.5856C24.6768 12.649 24.7853 12.6926 24.8992 12.7138C25.0131 12.7351 25.13 12.7336 25.2434 12.7095L27.8333 11.9674C28.0436 11.9236 28.2306 11.8042 28.3589 11.6318C28.4872 11.4595 28.5479 11.2461 28.5295 11.0321C28.5112 10.818 28.4151 10.6181 28.2594 10.4701C28.1037 10.322 27.8992 10.2362 27.6845 10.2287ZM10.8336 17.7565L0 27.5901L0.932121 28.5223L11.7851 18.6693L11.61 17.8631L10.8336 17.7565ZM19.6821 22.0107C19.5309 22.0059 19.381 22.0402 19.247 22.1103C19.1129 22.1804 18.9993 22.2839 18.9169 22.4108C18.8346 22.5377 18.7864 22.6837 18.777 22.8346C18.7677 22.9856 18.7974 23.1364 18.8634 23.2725L19.8597 25.3598C19.9611 25.5685 20.141 25.7286 20.36 25.8052C20.579 25.8819 20.8194 25.8688 21.0289 25.7688C21.2383 25.6689 21.3996 25.4902 21.4778 25.2717C21.556 25.0532 21.5445 24.8127 21.446 24.6026L20.4497 22.5153C20.3808 22.3686 20.2726 22.2438 20.1371 22.1547C20.0016 22.0656 19.8441 22.0158 19.6821 22.0107Z"
      fill="currentColor" />
  </symbol>

  <symbol id="icon-market-ua-home" fill="none" height="24" viewBox="0 0 27 24" width="27"
  >
    <mask height="12" id="mask0_6803_12736" maskUnits="userSpaceOnUse" style="mask-type:alpha" width="27" x="0" y="12">
      <rect fill="#C4C4C4" height="12" width="27" y="12" />
    </mask>
    <g mask="url(#mask0_6803_12736)">
      <path
        d="M17.8364 23.5H5.26596C5.25804 23.5 5.25011 23.5 5.24219 23.5L8.66949 17.4989H14.4396C14.7535 17.4989 15.0437 17.3285 15.201 17.0511C15.6131 16.3221 16.455 14.8358 17.1628 13.5845C17.5359 12.9257 17.8718 12.332 18.0894 11.9482C18.1674 11.8097 18.2071 11.6547 18.2071 11.5003C18.2071 11.3453 18.1674 11.1903 18.0894 11.0518C17.8718 10.668 17.5359 10.0743 17.1628 9.41546C16.455 8.16419 15.6131 6.67791 15.201 5.94954C15.0437 5.6721 14.7535 5.50108 14.4396 5.50108H8.66949L5.24219 -0.499385C5.25011 -0.5 5.25804 -0.5 5.26596 -0.5H17.8364C18.1504 -0.5 18.4405 -0.32898 18.5978 -0.0515341L24.883 11.0518C24.9611 11.1903 25.0007 11.3453 25.0007 11.5003C25.0007 11.6547 24.9611 11.8097 24.883 11.9482L18.5978 23.0521C18.4405 23.329 18.1504 23.5 17.8364 23.5Z"
        fill="#FFE500" />
      <path
        d="M4.12478 11.4991C4.126 11.3428 4.08698 11.186 4.00712 11.0451C3.37738 9.93284 1.74725 7.05257 1.1175 5.94033C0.960832 5.66288 0.960832 5.32146 1.1175 5.04462L4.02541 -0.0927402C4.11502 -0.227465 4.2211 -0.317281 4.32413 -0.376953L10.7709 11.0451C10.8508 11.1866 10.8898 11.3441 10.8886 11.5022C10.8898 11.6596 10.8508 11.8171 10.7709 11.9586L4.32413 23.3807C4.2211 23.321 4.11502 23.2312 4.02541 23.0965L1.1175 17.9591C0.960832 17.6823 0.960832 17.3408 1.1175 17.064C1.74725 15.9511 3.37738 13.0709 4.00712 11.9586C4.08698 11.8184 4.126 11.6615 4.12478 11.5046V11.5022V11.4991Z"
        fill="#FFE500" />
    </g>
    <mask height="12" id="mask1_6803_12736" maskUnits="userSpaceOnUse" style="mask-type:alpha" width="27" x="0" y="0">
      <rect fill="#0084FF" height="12" width="27" />
    </mask>
    <g mask="url(#mask1_6803_12736)">
      <path
        d="M17.8364 24.5H5.26596C5.25804 24.5 5.25011 24.5 5.24219 24.5L8.66949 18.4989H14.4396C14.7535 18.4989 15.0437 18.3285 15.201 18.0511C15.6131 17.3221 16.455 15.8358 17.1628 14.5845C17.5359 13.9257 17.8718 13.332 18.0894 12.9482C18.1674 12.8097 18.2071 12.6547 18.2071 12.5003C18.2071 12.3453 18.1674 12.1903 18.0894 12.0518C17.8718 11.668 17.5359 11.0743 17.1628 10.4155C16.455 9.16419 15.6131 7.67791 15.201 6.94954C15.0437 6.6721 14.7535 6.50108 14.4396 6.50108H8.66949L5.24219 0.500615C5.25011 0.5 5.25804 0.5 5.26596 0.5H17.8364C18.1504 0.5 18.4405 0.67102 18.5978 0.948466L24.883 12.0518C24.9611 12.1903 25.0007 12.3453 25.0007 12.5003C25.0007 12.6547 24.9611 12.8097 24.883 12.9482L18.5978 24.0521C18.4405 24.329 18.1504 24.5 17.8364 24.5Z"
        fill="#0084FF" />
      <path
        d="M4.12478 12.4991C4.126 12.3428 4.08698 12.186 4.00712 12.0451C3.37738 10.9328 1.74725 8.05257 1.1175 6.94033C0.960832 6.66288 0.960832 6.32146 1.1175 6.04462L4.02541 0.90726C4.11502 0.772535 4.2211 0.682719 4.32413 0.623047L10.7709 12.0451C10.8508 12.1866 10.8898 12.3441 10.8886 12.5022C10.8898 12.6596 10.8508 12.8171 10.7709 12.9586L4.32413 24.3807C4.2211 24.321 4.11502 24.2312 4.02541 24.0965L1.1175 18.9591C0.960832 18.6823 0.960832 18.3408 1.1175 18.064C1.74725 16.9511 3.37738 14.0709 4.00712 12.9586C4.08698 12.8184 4.126 12.6615 4.12478 12.5046V12.5022V12.4991Z"
        fill="#0084FF" />
    </g>
  </symbol>

  <symbol id="icon-donate-ukraine" viewBox="0 0 20 18">
    <path fill-rule="evenodd" clip-rule="evenodd"
          d="M19.5669 8.47058H0.433136C2.35108 14.8175 9.98548 17.994 9.99999 18H10C10.0146 17.994 17.6489 14.8175 19.5669 8.47058Z"
          fill="#FFE600" />
    <path fill-rule="evenodd" clip-rule="evenodd"
          d="M10 1.88373C11.0471 0.731121 12.5763 0 14.2857 0C17.4414 0 20 2.47995 20 5.53854C20 6.58133 19.8424 7.55869 19.5669 8.47059H0.433124C0.15756 7.55869 0 6.58133 0 5.53854C0 2.47989 2.55867 0 5.71433 0C7.42363 0 8.95291 0.731121 10 1.88373Z"
          fill="#32B5FF" />
  </symbol>

  <symbol id="icon-terms-of-use" viewBox="0 0 24 24" fill="currentColor">
    <path
      d="M5 2C3.9 2 3 2.9 3 4V17C3 17.552 3.448 18 4 18C4.552 18 5 17.552 5 17V5C5 4.448 5.448 4 6 4H16C16.552 4 17 3.552 17 3C17 2.448 16.552 2 16 2H5ZM9 6C7.9 6 7 6.9 7 8V20C7 21.1 7.9 22 9 22H20C21.1 22 22 21.1 22 20V8C22 6.895 21.105 6 20 6H9ZM12 9H17C17.552 9 18 9.448 18 10C18 10.552 17.552 11 17 11H12C11.448 11 11 10.552 11 10C11 9.448 11.448 9 12 9ZM12 13H17C17.552 13 18 13.448 18 14C18 14.552 17.552 15 17 15H12C11.448 15 11 14.552 11 14C11 13.448 11.448 13 12 13ZM12 17H17C17.552 17 18 17.448 18 18C18 18.552 17.552 19 17 19H12C11.448 19 11 18.552 11 18C11 17.448 11.448 17 12 17Z"
      fill="currentColor" />
  </symbol>
  <symbol id="icon-privacy-policy" viewBox="0 0 24 24" fill="currentColor">
    <path
      d="M12 1C5.92525 1 1 5.92525 1 12C1 18.0747 5.92525 23 12 23C18.0747 23 23 18.0747 23 12C23 5.92525 18.0747 1 12 1ZM12 6.5C14.0222 6.5 15.6667 8.1445 15.6667 10.1667V11.0833C16.1727 11.0833 16.5833 11.494 16.5833 12V15.6667C16.5833 16.1727 16.1727 16.5833 15.6667 16.5833H8.33333C7.82733 16.5833 7.41667 16.1727 7.41667 15.6667V12C7.41667 11.494 7.82733 11.0833 8.33333 11.0833V10.1667C8.33333 8.1445 9.97783 6.5 12 6.5ZM12 8.33333C10.9889 8.33333 10.1667 9.15558 10.1667 10.1667V11.0833H13.8333V10.1667C13.8333 9.15558 13.0111 8.33333 12 8.33333Z"
      fill="currentColor" />
  </symbol>
  <symbol id="icon-ios" width="20" height="20" viewBox="0 0 14 18" fill="currentColor"
  >
    <path
      d="M11.6816 9.52223C11.6816 7.26565 13.4731 6.16488 13.5258 6.10984C12.5247 4.56875 10.944 4.3486 10.3644 4.3486C9.04712 4.18348 7.72986 5.17418 7.09758 5.17418C6.41261 5.17418 5.3588 4.3486 4.25231 4.40364C2.82967 4.40364 1.45973 5.28426 0.722065 6.66022C-0.805952 9.41216 0.353233 13.485 1.77587 15.7416C2.51353 16.8424 3.35658 18.0532 4.46307 17.9982C5.56956 17.9432 5.99109 17.2827 7.30834 17.2827C8.6256 17.2827 8.99443 17.9982 10.1536 17.9982C11.3128 17.9982 12.0505 16.8974 12.7881 15.7966C13.6312 14.5308 14 13.3199 14 13.2649C14 13.1548 11.7343 12.2742 11.6816 9.52223Z"
      fill="#8DD294" />
    <path
      d="M9.52135 2.86201C10.1009 2.09147 10.5225 1.04573 10.4171 0C9.57404 0.0550387 8.52023 0.605426 7.88795 1.37597C7.36105 2.03643 6.83415 3.1372 6.99222 4.1279C7.94064 4.18294 8.94175 3.63255 9.52135 2.86201Z"
      fill="#8DD294" />
  </symbol>
  <symbol id="icon-android" width="20" height="20" viewBox="0 0 16 17" fill="currentColor"
  >
    <path fill-rule="evenodd" clip-rule="evenodd"
          d="M1.11315 17C1.17863 17 1.2441 16.9346 1.30958 16.8692L11.5898 11.3115L9.16709 8.89231L1.11315 17ZM12.0482 11.05L9.49448 8.5L12.0482 5.95L15.5186 7.84615C16.3698 8.30385 15.9114 8.89231 15.5186 9.15385L12.0482 11.05ZM11.5898 5.75385L1.37506 0.130769C1.2441 0.0653846 1.11315 0.0653847 1.04767 1.24711e-07L9.23256 8.17308L11.5898 5.75385ZM0.392875 0.130769L8.83969 8.56538L0.458354 17C0.196438 16.8692 0.0654789 16.4769 0.0654789 16.0846C0.0654789 15.2346 1.24892e-07 2.02692 1.24892e-07 1.04615C1.24892e-07 0.588461 0.130958 0.261538 0.392875 0.130769Z"
          fill="#8DD294" />
  </symbol>
  <symbol id="icon-time-lock" viewBox="0 0 24 24">
    <g>
      <path d="M0,0h24v24H0V0z" fill="none" />
    </g>
    <g>
      <g>
        <path
          d="M18,11c0.7,0,1.37,0.1,2,0.29V10c0-1.1-0.9-2-2-2h-1V6c0-2.76-2.24-5-5-5S7,3.24,7,6v2H6c-1.1,0-2,0.9-2,2v10 c0,1.1,0.9,2,2,2h6.26C11.47,20.87,11,19.49,11,18C11,14.13,14.13,11,18,11z M9,6c0-1.66,1.34-3,3-3s3,1.34,3,3v2H9V6z" />
        <path
          d="M18,13c-2.76,0-5,2.24-5,5s2.24,5,5,5s5-2.24,5-5S20.76,13,18,13z M20,20c-0.2,0.2-0.51,0.2-0.71,0l-1.65-1.65 c-0.09-0.09-0.15-0.22-0.15-0.35v-2.5c0-0.28,0.22-0.5,0.5-0.5h0c0.28,0,0.5,0.22,0.5,0.5v2.29l1.5,1.5 C20.2,19.49,20.2,19.8,20,20z" />
      </g>
    </g>
  </symbol>
  <symbol id="icon-cancel" viewBox="0 0 24 24">
    <path d="M0 0h24v24H0V0z" fill="none" opacity=".87" />
    <path
      d="M12 2C6.47 2 2 6.47 2 12s4.47 10 10 10 10-4.47 10-10S17.53 2 12 2zm4.3 14.3c-.39.39-1.02.39-1.41 0L12 13.41 9.11 16.3c-.39.39-1.02.39-1.41 0-.39-.39-.39-1.02 0-1.41L10.59 12 7.7 9.11c-.39-.39-.39-1.02 0-1.41.39-.39 1.02-.39 1.41 0L12 10.59l2.89-2.89c.39-.39 1.02-.39 1.41 0 .39.39.39 1.02 0 1.41L13.41 12l2.89 2.89c.38.38.38 1.02 0 1.41z" />
  </symbol>
  <symbol id="icon-check" viewBox="0 0 24 24">
    <path d="M0 0h24v24H0V0z" fill="none" />
    <path
      d="M12 2C6.48 2 2 6.48 2 12s4.48 10 10 10 10-4.48 10-10S17.52 2 12 2zM9.29 16.29 5.7 12.7c-.39-.39-.39-1.02 0-1.41.39-.39 1.02-.39 1.41 0L10 14.17l6.88-6.88c.39-.39 1.02-.39 1.41 0 .39.39.39 1.02 0 1.41l-7.59 7.59c-.38.39-1.02.39-1.41 0z" />
  </symbol>

  <symbol id="icon-warning-outlined" viewBox="0 0 19 16">
    <path
      d="M0 15.8333L9.16667 0L18.3333 15.8333H0ZM2.875 14.1667H15.4583L9.16667 3.33333L2.875 14.1667ZM9.16667 13.3333C9.40278 13.3333 9.60069 13.2535 9.76042 13.0938C9.92014 12.934 10 12.7361 10 12.5C10 12.2639 9.92014 12.066 9.76042 11.9062C9.60069 11.7465 9.40278 11.6667 9.16667 11.6667C8.93056 11.6667 8.73264 11.7465 8.57292 11.9062C8.41319 12.066 8.33333 12.2639 8.33333 12.5C8.33333 12.7361 8.41319 12.934 8.57292 13.0938C8.73264 13.2535 8.93056 13.3333 9.16667 13.3333ZM8.33333 10.8333H10V6.66667H8.33333V10.8333Z"
      fill="currentColor" />
  </symbol>

  <symbol id="icon-check-outlined" viewBox="0 0 16 16">
    <path
      d="M1.00049 8C1.00049 4.13401 4.1345 1 8.00049 1C11.8665 1 15.0005 4.13401 15.0005 8C15.0005 11.866 11.8665 15 8.00049 15C4.1345 15 1.00049 11.866 1.00049 8Z"
      stroke="currentColor" stroke-width="2" />
    <path fill-rule="evenodd" clip-rule="evenodd"
          d="M11.3314 6.81276C11.6576 6.44584 11.6245 5.884 11.2576 5.55785C10.8907 5.2317 10.3288 5.26475 10.0027 5.63167L7.07343 8.92707L5.96225 7.81589C5.61512 7.46876 5.05231 7.46876 4.70517 7.81589C4.35804 8.16303 4.35804 8.72584 4.70517 9.07297L6.48295 10.8508C6.65606 11.0239 6.8929 11.1179 7.1376 11.1107C7.38231 11.1035 7.61321 10.9957 7.77585 10.8128L11.3314 6.81276Z"
          fill="currentColor" />
  </symbol>

  <symbol id="icon-info-shield" viewBox="0 0 14 17">
    <path
      d="M0.5 7.87649V3.84652L7 1.14522L13.5 3.84652V7.87649C13.5 11.6415 10.7306 15.1815 7 16.09C3.26944 15.1815 0.5 11.6415 0.5 7.87649Z"
      stroke="currentColor" />
    <path
      d="M7.0498 12.6038C7.2623 12.6038 7.44043 12.5319 7.58418 12.3881C7.72793 12.2444 7.7998 12.0663 7.7998 11.8538C7.7998 11.6413 7.72793 11.4631 7.58418 11.3194C7.44043 11.1756 7.2623 11.1038 7.0498 11.1038C6.8373 11.1038 6.65918 11.1756 6.51543 11.3194C6.37168 11.4631 6.2998 11.6413 6.2998 11.8538C6.2998 12.0663 6.37168 12.2444 6.51543 12.3881C6.65918 12.5319 6.8373 12.6038 7.0498 12.6038ZM6.2998 10.3538H7.7998V4.60376H6.2998V10.3538Z"
      fill="currentColor" />
  </symbol>

  <symbol id="icon-error-outlined" viewBox="0 0 80 80" fill="none">
    <path d="M1 40C1 18.4723 18.4723 1 40 1C61.5277 1 79 18.4723 79 40C79 61.5277 61.5277 79 40 79C18.4723 79 1 61.5277 1 40Z" stroke="currentColor" stroke-width="2"/>
    <path d="M36.6667 20H43.3334V43.3333H36.6667V20Z" fill="currentColor"/>
    <path d="M36.6667 51.6667H43.3334V58.3333H36.6667V51.6667Z" fill="currentColor"/>
  </symbol>
</svg>
