<svg xmlns="http://www.w3.org/2000/svg" width="19" height="19" viewBox="0 0 19 19">
  <path d="M13.58.41H5.404A5.044 5.044 0 0 0 .38 5.454v8.156a5.044 5.044 0 0 0 5.022 5.022h8.155a5.045 5.045 0 0 0 5.023-5.022V5.454a5.044 5.044 0 0 0-5-5.044zm3.423 13.2a3.422 3.422 0 0 1-3.422 3.422H5.403A3.422 3.422 0 0 1 1.98 13.61V5.454a3.423 3.423 0 0 1 3.422-3.422h8.155a3.422 3.422 0 0 1 3.423 3.422v8.156h.022z"/>
  <path d="M9.493 4.834a4.688 4.688 0 1 0 4.688 4.733 4.71 4.71 0 0 0-4.688-4.733zm0 7.778a3.089 3.089 0 1 1 0-6.178 3.089 3.089 0 0 1 0 6.178zM14.38 3.478a1.178 1.178 0 1 0 .003 2.357 1.178 1.178 0 0 0-.003-2.357z"/>
</svg>
