<svg width="24" height="17" viewBox="0 0 24 17" xmlns="http://www.w3.org/2000/svg">
  <path d="M20.857 2.052S19.137.26 15.234 0v.566s2.141-.122 4.792 2.447C18.025 1.595 15.17.707 12 .707c-3.17 0-6.025.888-8.026 2.306C6.625.443 8.766.566 8.766.566V0C4.862.26 3.143 2.052 3.143 2.052.168 5.826 0 14.082 0 14.082c2.802 3.325 6.323 2.9 6.323 2.9l1.294-1.84c-1.668-.444-2.86-1.464-3.575-2.258 1.997 1.39 4.823 2.259 7.958 2.259s5.96-.869 7.958-2.26c-.716.795-1.907 1.815-3.575 2.26l1.294 1.84s3.52.424 6.323-2.902c0 0-.168-8.255-3.143-12.029zM8.264 11.746c-1.125 0-2.036-.954-2.036-2.13 0-1.177.911-2.13 2.036-2.13 1.124 0 2.036.953 2.036 2.13 0 1.176-.912 2.13-2.036 2.13zm7.473 0c-1.125 0-2.036-.954-2.036-2.13 0-1.177.911-2.13 2.036-2.13 1.124 0 2.036.953 2.036 2.13 0 1.176-.912 2.13-2.036 2.13z"/>
</svg>
