<svg width="21" height="18" viewBox="0 0 21 18" xmlns="http://www.w3.org/2000/svg">
  <path fill-rule="evenodd" clip-rule="evenodd" d="M18.74 6.534c1.185 0 2.222.911 2.222 2.279 0 .912-.445 1.671-1.037 1.975v.76c0 3.343-4.148 6.23-9.333 6.23-5.186 0-9.334-2.735-9.334-6.23 0-.152.037-.266.074-.38.037-.114.074-.228.074-.38C.666 10.484.221 9.725.221 8.813c0-1.368 1.037-2.431 2.222-2.583.593 0 1.037.152 1.482.608 1.63-1.064 3.852-1.824 6.37-1.824L11.777.456c.148-.152.296-.152.444-.152l3.704.912A1.925 1.925 0 0 1 17.703 0c1.037 0 1.926.912 1.926 1.975 0 1.064-.89 1.976-1.926 1.976-1.037 0-1.926-.912-1.926-1.976l-3.408-.76-1.333 4.103c2.37.152 4.444.76 6.074 1.824.445-.304 1.037-.608 1.63-.608zm-4.89 7.9c.149-.151.149-.303 0-.455h-.444c-.592.608-1.481.912-2.814.912-1.334 0-2.223-.304-2.815-.912-.148-.152-.297-.152-.445 0-.148.152-.148.304 0 .456.593.76 1.778 1.064 3.26 1.064 1.481 0 2.518-.304 3.259-1.064zM7.48 11.7c.737 0 1.334-.612 1.334-1.368 0-.755-.597-1.367-1.334-1.367-.736 0-1.333.612-1.333 1.367 0 .756.597 1.368 1.333 1.368zm7.556-1.368c0 .756-.597 1.368-1.333 1.368-.737 0-1.334-.612-1.334-1.368 0-.755.597-1.367 1.334-1.367.736 0 1.333.612 1.333 1.367z"/>
</svg>
