<svg width="12" height="12" viewBox="0 0 20 20" fill="currentColor" xmlns="http://www.w3.org/2000/svg">
    <path d="M19.77 9.109L14.85.856a1.809 1.809 0 0 0-.647-.617A1.865 1.865 0 0 0 13.332 0H3.566c-.323.009-.639.1-.914.267h.018c-.25.145-.452.355-.585.606L.256 3.993a1.399 1.399 0 0 0 0 1.444L2.47 9.162c.143.257.213.546.201.838.002.299-.074.593-.22.856L.202 14.563a1.399 1.399 0 0 0 0 1.444l1.83 3.12c.138.247.34.455.584.606h.055c.275.166.59.258.915.267h9.802c.308.003.612-.075.88-.225.266-.15.487-.368.638-.63l4.846-8.272a1.749 1.749 0 0 0 .018-1.764zm-5.78 1.782l-2.011 3.423c-.16.255-.382.467-.647.616-.265.15-.565.232-.871.24H6.437a1.868 1.868 0 0 1-.731-.161l2.45-4.136a1.748 1.748 0 0 0 0-1.782L5.689 5.009c.201-.091.418-.145.64-.16h4.06c.308-.004.612.074.879.224.267.151.488.369.639.631l2.03 3.405a1.75 1.75 0 0 1 .054 1.71v.072z"/>
</svg>
