<svg width="16" height="12" viewBox="0 0 16 12" xmlns="http://www.w3.org/2000/svg">
  <path d="M12.296 0a3.61 3.61 0 0 0-1.378.261 3.563 3.563 0 0 0-1.17.765c-.333.33-.598.72-.777 1.15a3.459 3.459 0 0 0-.265 1.357v.092l-2.28 3.279a2.212 2.212 0 0 0-1.578.436L1.376 5.93A1 1 0 0 0 0 6.856v.945a1 1 0 0 0 .628.928L3.796 10a2.5 2.5 0 0 0 .555 1.105c.276.318.627.562 1.023.712.64.249 1.35.244 1.986-.014a2.632 2.632 0 0 0 1.419-1.367c.14-.32.2-.667.175-1.015l3.332-2.335h.082a3.61 3.61 0 0 0 1.397-.25 3.564 3.564 0 0 0 1.185-.768c.34-.331.607-.726.787-1.162a3.524 3.524 0 0 0-.033-2.744 3.573 3.573 0 0 0-.808-1.154 3.64 3.64 0 0 0-1.198-.76 3.683 3.683 0 0 0-1.402-.247zM8.17 10.265c-.1.24-.25.457-.438.64a1.964 1.964 0 0 1-1.43.55 1.985 1.985 0 0 1-.762-.175 1.887 1.887 0 0 1-1.032-.944l1.176.538c.352.113.735.092 1.072-.06.337-.152.604-.423.747-.76a1.43 1.43 0 0 0 .025-1.056 1.46 1.46 0 0 0-.71-.794l-1.227-.518a2.095 2.095 0 0 1 2.143.48 2 2 0 0 1 .488 2.109l-.052-.01zm4.126-4.396a2.4 2.4 0 0 1-1.318-.393 2.344 2.344 0 0 1-.874-1.048 2.3 2.3 0 0 1-.135-1.35 2.33 2.33 0 0 1 .65-1.195 2.408 2.408 0 0 1 2.586-.506c.433.177.803.476 1.064.86.26.384.4.836.4 1.297a2.232 2.232 0 0 1-.673 1.673c-.222.22-.488.39-.78.505a2.334 2.334 0 0 1-.92.157z"/>
  <path d="M13.766 3.879a1.461 1.461 0 0 0-1.112-1.754 1.486 1.486 0 0 0-1.782 1.095 1.461 1.461 0 0 0 1.113 1.754 1.485 1.485 0 0 0 1.781-1.095z"/>
</svg>
