<svg width="19" height="15" viewBox="0 0 19 15" xmlns="http://www.w3.org/2000/svg">
  <path d="M18.114 2.333a7.4 7.4 0 0 1-2.09.555A3.533 3.533 0 0 0 17.559 1c-.69.4-1.44.686-2.222.845A3.667 3.667 0 0 0 12.69.733a3.578 3.578 0 0 0-3.622 3.51 3.4 3.4 0 0 0 0 .8A10.378 10.378 0 0 1 1.625 1.31a3.422 3.422 0 0 0-.49 1.756 3.489 3.489 0 0 0 1.6 2.933 3.689 3.689 0 0 1-1.644-.444 3.533 3.533 0 0 0 2.912 3.444c-.312.086-.633.13-.956.134h-.689a3.6 3.6 0 0 0 3.378 2.444 7.4 7.4 0 0 1-4.445 1.511H.425a10.467 10.467 0 0 0 5.555 1.578 10.067 10.067 0 0 0 10.29-10v-.444a7.221 7.221 0 0 0 1.844-1.89z"/>
</svg>
