<svg width="112" height="22" viewBox="0 0 112 22" fill="none" xmlns="http://www.w3.org/2000/svg">
  <path d="M27.1963 5.17773H32.4508C33.6678 5.17773 34.7473 5.40767 35.6892 5.86753C36.6311 6.32739 37.3613 6.97975 37.8799 7.82461C38.3985 8.66947 38.6578 9.65871 38.6578 10.7923C38.6578 11.9259 38.3985 12.9152 37.8799 13.76C37.3613 14.6049 36.6311 15.2572 35.6892 15.7171C34.7473 16.177 33.6678 16.4069 32.4508 16.4069H27.1963V5.17773ZM32.3238 13.8723C33.2763 13.8723 34.0382 13.5996 34.6097 13.0542C35.1918 12.5088 35.4828 11.7548 35.4828 10.7923C35.4828 9.82982 35.1918 9.07586 34.6097 8.53044C34.0382 7.98503 33.2763 7.71232 32.3238 7.71232H30.3395V13.8723H32.3238Z" fill="white"/>
  <path d="M49.9442 16.4069L49.9124 10.4554L47.055 15.3H45.6581L42.8165 10.6159V16.4069H39.9114V5.17773H42.499L46.4042 11.6586L50.2141 5.17773H52.8016L52.8334 16.4069H49.9442Z" fill="white"/>
  <path d="M62.5026 14.2252H57.8037L56.9306 16.4069H53.724L58.6292 5.17773H61.7248L66.6459 16.4069H63.3757L62.5026 14.2252ZM61.5819 11.8832L60.1532 8.28982L58.7245 11.8832H61.5819Z" fill="white"/>
  <path d="M72.3946 13.4232H70.6802V16.4069H67.537V5.17773H72.6169C73.6222 5.17773 74.4953 5.34885 75.2362 5.69107C75.977 6.0226 76.5485 6.50385 76.9506 7.13482C77.3528 7.7551 77.5539 8.48766 77.5539 9.33253C77.5539 10.1453 77.3634 10.8565 76.9824 11.4661C76.612 12.065 76.0775 12.5355 75.379 12.8777L77.7761 16.4069H74.4107L72.3946 13.4232ZM74.3789 9.33253C74.3789 8.8085 74.2149 8.40211 73.8868 8.11336C73.5588 7.82461 73.0719 7.68023 72.4264 7.68023H70.6802V10.9688H72.4264C73.0719 10.9688 73.5588 10.8297 73.8868 10.5517C74.2149 10.2629 74.3789 9.85655 74.3789 9.33253Z" fill="white"/>
  <path d="M83.5741 12.3323L82.3993 13.5996V16.4069H79.2879V5.17773H82.3993V9.84586L86.7014 5.17773H90.162L85.6219 10.1507L90.4001 16.4069H86.749L83.5741 12.3323Z" fill="white"/>
  <path d="M100.546 13.9525V16.4069H91.6249V5.17773H100.34V7.63211H94.7363V9.52503H99.6733V11.8992H94.7363V13.9525H100.546Z" fill="white"/>
  <path d="M105.056 7.69628H101.643V5.17773H111.596V7.69628H108.199V16.4069H105.056V7.69628Z" fill="white"/>
  <path d="M15.5535 21.7812H4.24015C4.23301 21.7812 4.22588 21.7812 4.21875 21.7812L7.30332 16.3662H12.4964C12.779 16.3662 13.0401 16.2125 13.1817 15.9621C13.5526 15.3043 14.3103 13.9632 14.9473 12.8341C15.283 12.2396 15.5854 11.7039 15.7812 11.3575C15.8515 11.2326 15.8871 11.0927 15.8871 10.9534C15.8871 10.8135 15.8515 10.6736 15.7812 10.5487C15.5854 10.2023 15.283 9.66667 14.9473 9.07216C14.3103 7.94308 13.5526 6.60195 13.1817 5.9447C13.0401 5.69435 12.779 5.54003 12.4964 5.54003H7.30332L4.21875 0.125555C4.22588 0.125 4.23301 0.125 4.24015 0.125H15.5535C15.8361 0.125 16.0973 0.279319 16.2388 0.52967L21.8955 10.5487C21.9657 10.6736 22.0014 10.8135 22.0014 10.9534C22.0014 11.0927 21.9657 11.2326 21.8955 11.3575L16.2388 21.3771C16.0973 21.6269 15.8361 21.7812 15.5535 21.7812Z" fill="#49BC74"/>
  <path d="M3.21171 10.9506C3.21281 10.8097 3.1777 10.6681 3.10582 10.541C2.53906 9.53735 1.07194 6.93836 0.505169 5.93473C0.364163 5.68438 0.364163 5.3763 0.505169 5.1265L3.12228 0.490833C3.20294 0.369265 3.2984 0.28822 3.39113 0.234375L9.19322 10.541C9.26509 10.6687 9.30021 10.8108 9.29911 10.9534C9.30021 11.0955 9.26509 11.2376 9.19322 11.3653L3.39113 21.6719C3.2984 21.6181 3.20294 21.537 3.12228 21.4155L0.505169 16.7798C0.364163 16.53 0.364163 16.2219 0.505169 15.9721C1.07194 14.9679 2.53906 12.3689 3.10582 11.3653C3.1777 11.2387 3.21281 11.0972 3.21171 10.9556V10.9534V10.9506Z" fill="#49BC74"/>
</svg>
