<svg width="80" height="25" viewBox="0 0 80 25" fill="none" xmlns="http://www.w3.org/2000/svg">
  <path d="M12.02 0C5.67 0 .49 4.962 0 11.283l6.46 2.716c.545-.388 1.2-.61 1.908-.61h.19l2.89-4.213V9.12c0-2.55 2.044-4.63 4.552-4.63 2.508 0 4.552 2.08 4.552 4.63S18.508 13.75 16 13.75h-.109l-4.089 2.966v.166c0 1.913-1.526 3.465-3.407 3.465-1.662 0-3.025-1.192-3.352-2.8l-4.634-1.94c1.444 5.156 6.078 8.926 11.611 8.926 6.651 0 12.048-5.489 12.048-12.253C24.068 5.49 18.671 0 12.02 0z" fill="#fff"/>
  <path d="M7.55 18.6l-1.472-.609c.273.554.709 1.026 1.308 1.275 1.309.555 2.808-.083 3.353-1.414a2.538 2.538 0 0 0 0-1.995 2.688 2.688 0 0 0-1.39-1.414 2.46 2.46 0 0 0-1.88-.028l1.526.638a1.917 1.917 0 0 1 1.008 2.494c-.381.998-1.499 1.47-2.453 1.054zM19.026 9.093c0-1.691-1.363-3.077-3.026-3.077-1.662 0-3.025 1.386-3.025 3.077 0 1.69 1.363 3.104 3.025 3.104 1.663 0 3.026-1.386 3.026-3.104zm-5.315 0c0-1.275 1.008-2.329 2.29-2.329 1.253 0 2.289 1.026 2.289 2.329 0 1.275-1.009 2.3-2.29 2.3-1.254.028-2.29-1.025-2.29-2.3zM36.96 8.4l-.817 1.44c-.627-.443-1.472-.72-2.208-.72-.845 0-1.363.36-1.363.998 0 .776.927.943 2.29 1.442 1.472.526 2.317 1.164 2.317 2.522 0 1.885-1.445 2.939-3.544 2.939-1.008 0-2.262-.277-3.189-.86l.6-1.607c.763.415 1.69.665 2.508.665 1.117 0 1.635-.416 1.635-1.026 0-.693-.79-.915-2.099-1.358-1.472-.5-2.48-1.164-2.48-2.69 0-1.718 1.363-2.716 3.298-2.716 1.336.056 2.426.5 3.053.97zM43.257 9.314v7.568H41.35V9.314h-2.753V7.651h7.414v1.663h-2.753zM50.017 9.286v2.08h3.652v1.663h-3.652v2.162h4.225v1.663h-6.133V7.651h6.133v1.663h-4.225v-.028zM58.494 15.08l-.6 1.802h-1.99l3.408-9.231h1.908l3.489 9.231h-2.072l-.627-1.802h-3.516zm1.772-5.24l-1.227 3.688h2.508L60.266 9.84zM74.494 11.227l-2.48 5.406H70.95l-2.453-5.35v5.627H66.67V7.65h1.827l3.052 6.682 2.944-6.681h1.826v9.231h-1.826v-5.655zM80 8.815c0 .804-.573 1.276-1.254 1.276s-1.254-.5-1.254-1.276c0-.804.6-1.275 1.254-1.275C79.4 7.512 80 8.011 80 8.815zm-2.317 0c0 .666.463 1.081 1.036 1.081.572 0 1.035-.415 1.035-1.08 0-.666-.463-1.082-1.035-1.082-.573 0-1.036.416-1.036 1.081zm1.063-.665c.327 0 .436.166.436.36 0 .167-.109.278-.218.36l.3.555h-.245l-.246-.499h-.272v.5h-.191V8.15h.436zm-.218.582h.218c.136 0 .218-.083.218-.194 0-.11-.054-.194-.218-.194h-.218v.388z" fill="#fff"/>
</svg>
